<ttFont>
<head>
    <!-- Most of this table will be recalculated by the compiler -->
    <tableVersion value="1.0"/>
    <fontRevision value="0.00099"/>
    <checkSumAdjustment value="0x74d2170c"/>
    <magicNumber value="0x5f0f3cf5"/>
    <flags value="00000000 00001001"/>
    <unitsPerEm value="1000"/>
    <created value="Mon Dec  9 07:21:43 2024"/>
    <modified value="Mon Dec 16 15:35:55 2024"/>
    <xMin value="-288"/>
    <yMin value="-348"/>
    <xMax value="1344"/>
    <yMax value="1230"/>
    <macStyle value="00000000 00000000"/>
    <lowestRecPPEM value="8"/>
    <fontDirectionHint value="2"/>
    <indexToLocFormat value="0"/>
    <glyphDataFormat value="0"/>
  </head>
    <TTGlyph name=".notdef" xMin="265" yMin="37" xMax="711" yMax="757">
      <contour>
        <pt x="430" y="287" on="1"/>
        <pt x="430" y="227" on="1"/>
        <pt x="494" y="227" on="1"/>
        <pt x="494" y="287" on="1"/>
      </contour>
      <contour>
        <pt x="425" y="225" on="1"/>
        <pt x="425" y="289" on="1"/>
        <pt x="425" y="291" on="0"/>
        <pt x="428" y="291" on="1"/>
        <pt x="496" y="291" on="1"/>
        <pt x="498" y="291" on="0"/>
        <pt x="498" y="289" on="1"/>
        <pt x="498" y="225" on="1"/>
        <pt x="498" y="223" on="0"/>
        <pt x="496" y="223" on="1"/>
        <pt x="428" y="223" on="1"/>
        <pt x="425" y="223" on="0"/>
      </contour>
      <contour>
        <pt x="494" y="332" on="1"/>
        <pt x="494" y="382" on="1"/>
        <pt x="494" y="383" on="0"/>
        <pt x="495" y="384" on="1"/>
        <pt x="522" y="399" on="0"/>
        <pt x="553" y="452" on="0"/>
        <pt x="553" y="483" on="1"/>
        <pt x="553" y="530" on="0"/>
        <pt x="487" y="597" on="0"/>
        <pt x="439" y="597" on="1"/>
        <pt x="438" y="597" on="0"/>
        <pt x="431" y="596" on="0"/>
        <pt x="430" y="596" on="1"/>
        <pt x="430" y="532" on="1"/>
        <pt x="434" y="533" on="0"/>
        <pt x="439" y="533" on="1"/>
        <pt x="461" y="533" on="0"/>
        <pt x="490" y="504" on="0"/>
        <pt x="490" y="483" on="1"/>
        <pt x="490" y="462" on="0"/>
        <pt x="461" y="433" on="0"/>
        <pt x="439" y="433" on="1"/>
        <pt x="434" y="433" on="0"/>
        <pt x="430" y="434" on="1"/>
        <pt x="430" y="332" on="1"/>
      </contour>
      <contour>
        <pt x="425" y="598" on="1"/>
        <pt x="425" y="601" on="0"/>
        <pt x="439" y="601" on="1"/>
        <pt x="489" y="601" on="0"/>
        <pt x="558" y="532" on="0"/>
        <pt x="558" y="483" on="1"/>
        <pt x="558" y="451" on="0"/>
        <pt x="525" y="396" on="0"/>
        <pt x="498" y="380" on="1"/>
        <pt x="498" y="329" on="1"/>
        <pt x="498" y="327" on="0"/>
        <pt x="496" y="327" on="1"/>
        <pt x="428" y="327" on="1"/>
        <pt x="425" y="327" on="0"/>
        <pt x="425" y="329" on="1"/>
        <pt x="425" y="436" on="1"/>
        <pt x="425" y="439" on="0"/>
        <pt x="428" y="439" on="1"/>
        <pt x="433" y="437" on="0"/>
        <pt x="439" y="437" on="1"/>
        <pt x="459" y="437" on="0"/>
        <pt x="485" y="464" on="0"/>
        <pt x="485" y="483" on="1"/>
        <pt x="485" y="502" on="0"/>
        <pt x="459" y="529" on="0"/>
        <pt x="439" y="529" on="1"/>
        <pt x="433" y="529" on="0"/>
        <pt x="428" y="527" on="1"/>
        <pt x="425" y="527" on="0"/>
        <pt x="425" y="530" on="1"/>
      </contour>
      <contour>
        <pt x="326" y="696" on="1"/>
        <pt x="322" y="696" on="0"/>
        <pt x="315" y="689" on="0"/>
        <pt x="315" y="685" on="1"/>
        <pt x="315" y="113" on="1"/>
        <pt x="315" y="108" on="0"/>
        <pt x="322" y="101" on="0"/>
        <pt x="326" y="101" on="1"/>
        <pt x="652" y="101" on="1"/>
        <pt x="656" y="101" on="0"/>
        <pt x="663" y="108" on="0"/>
        <pt x="663" y="113" on="1"/>
        <pt x="663" y="685" on="1"/>
        <pt x="663" y="689" on="0"/>
        <pt x="656" y="696" on="0"/>
        <pt x="652" y="696" on="1"/>
      </contour>
      <contour>
        <pt x="326" y="701" on="1"/>
        <pt x="652" y="701" on="1"/>
        <pt x="658" y="701" on="0"/>
        <pt x="668" y="691" on="0"/>
        <pt x="668" y="685" on="1"/>
        <pt x="668" y="113" on="1"/>
        <pt x="668" y="106" on="0"/>
        <pt x="658" y="97" on="0"/>
        <pt x="652" y="97" on="1"/>
        <pt x="326" y="97" on="1"/>
        <pt x="320" y="97" on="0"/>
        <pt x="310" y="106" on="0"/>
        <pt x="310" y="113" on="1"/>
        <pt x="310" y="685" on="1"/>
        <pt x="310" y="691" on="0"/>
        <pt x="320" y="701" on="0"/>
      </contour>
      <contour>
        <pt x="281" y="752" on="1"/>
        <pt x="277" y="752" on="0"/>
        <pt x="270" y="745" on="0"/>
        <pt x="270" y="741" on="1"/>
        <pt x="270" y="53" on="1"/>
        <pt x="270" y="49" on="0"/>
        <pt x="277" y="42" on="0"/>
        <pt x="281" y="42" on="1"/>
        <pt x="695" y="42" on="1"/>
        <pt x="699" y="42" on="0"/>
        <pt x="706" y="49" on="0"/>
        <pt x="706" y="53" on="1"/>
        <pt x="706" y="741" on="1"/>
        <pt x="706" y="745" on="0"/>
        <pt x="699" y="752" on="0"/>
        <pt x="695" y="752" on="1"/>
      </contour>
      <contour>
        <pt x="281" y="757" on="1"/>
        <pt x="695" y="757" on="1"/>
        <pt x="701" y="757" on="0"/>
        <pt x="711" y="747" on="0"/>
        <pt x="711" y="741" on="1"/>
        <pt x="711" y="53" on="1"/>
        <pt x="711" y="47" on="0"/>
        <pt x="701" y="37" on="0"/>
        <pt x="695" y="37" on="1"/>
        <pt x="281" y="37" on="1"/>
        <pt x="275" y="37" on="0"/>
        <pt x="265" y="47" on="0"/>
        <pt x="265" y="53" on="1"/>
        <pt x="265" y="741" on="1"/>
        <pt x="265" y="747" on="0"/>
        <pt x="275" y="757" on="0"/>
      </contour>
    </TTGlyph>
    <TTGlyph name="A" xMin="80" yMin="36" xMax="672" yMax="733">
      <contour>
        <pt x="452" y="246" on="1"/>
        <pt x="454" y="246" on="0"/>
        <pt x="455" y="245" on="1"/>
        <pt x="534" y="41" on="1"/>
        <pt x="666" y="41" on="1"/>
        <pt x="412" y="728" on="1"/>
        <pt x="279" y="728" on="1"/>
        <pt x="86" y="41" on="1"/>
        <pt x="218" y="41" on="1"/>
        <pt x="270" y="243" on="1"/>
        <pt x="271" y="245" on="0"/>
        <pt x="273" y="245" on="1"/>
        <pt x="451" y="245" on="1"/>
        <pt x="451" y="246" on="0"/>
      </contour>
      <contour>
        <pt x="308" y="371" on="1"/>
        <pt x="401" y="371" on="1"/>
        <pt x="359" y="513" on="1"/>
      </contour>
      <contour>
        <pt x="404" y="366" on="1"/>
        <pt x="305" y="366" on="1"/>
        <pt x="303" y="366" on="0"/>
        <pt x="303" y="369" on="1"/>
        <pt x="303" y="369" on="0"/>
        <pt x="303" y="370" on="1"/>
        <pt x="357" y="521" on="1"/>
        <pt x="357" y="522" on="0"/>
        <pt x="361" y="522" on="0"/>
        <pt x="361" y="521" on="1"/>
        <pt x="406" y="369" on="1"/>
        <pt x="406" y="366" on="0"/>
      </contour>
      <contour>
        <pt x="219" y="36" on="1"/>
        <pt x="83" y="36" on="1"/>
        <pt x="80" y="36" on="0"/>
        <pt x="80" y="38" on="1"/>
        <pt x="80" y="39" on="0"/>
        <pt x="80" y="39" on="1"/>
        <pt x="275" y="731" on="1"/>
        <pt x="275" y="733" on="0"/>
        <pt x="277" y="733" on="1"/>
        <pt x="414" y="733" on="1"/>
        <pt x="415" y="733" on="0"/>
        <pt x="416" y="731" on="1"/>
        <pt x="672" y="39" on="1"/>
        <pt x="672" y="39" on="0"/>
        <pt x="672" y="38" on="1"/>
        <pt x="672" y="36" on="0"/>
        <pt x="669" y="36" on="1"/>
        <pt x="533" y="36" on="1"/>
        <pt x="531" y="36" on="0"/>
        <pt x="531" y="38" on="1"/>
        <pt x="451" y="240" on="1"/>
        <pt x="274" y="240" on="1"/>
        <pt x="222" y="38" on="1"/>
        <pt x="221" y="36" on="0"/>
      </contour>
    </TTGlyph>
    <TTGlyph name="A.0" xMin="50" yMin="10" xMax="702" yMax="779">
      <contour>
        <pt x="550" y="10" on="1"/>
        <pt x="702" y="10" on="1"/>
        <pt x="418" y="779" on="1"/>
        <pt x="266" y="779" on="1"/>
        <pt x="50" y="10" on="1"/>
        <pt x="202" y="10" on="1"/>
        <pt x="261" y="237" on="1"/>
        <pt x="461" y="237" on="1"/>
        <pt x="461" y="238" on="1"/>
      </contour>
      <contour>
        <pt x="407" y="377" on="1"/>
        <pt x="297" y="377" on="1"/>
        <pt x="357" y="545" on="1"/>
      </contour>
    </TTGlyph>
    <TTGlyph name="A.1" xMin="50" yMin="0" xMax="702" yMax="769">
      <component glyphName="A.0" x="0" y="-10" flags="0x204"/>
    </TTGlyph>
    <TTGlyph name="AE" xMin="94" yMin="34" xMax="930" yMax="741">
      <contour>
        <pt x="322" y="371" on="1"/>
        <pt x="414" y="371" on="1"/>
        <pt x="359" y="513" on="1"/>
      </contour>
      <contour>
        <pt x="417" y="367" on="1"/>
        <pt x="319" y="367" on="1"/>
        <pt x="317" y="367" on="0"/>
        <pt x="317" y="369" on="1"/>
        <pt x="317" y="369" on="0"/>
        <pt x="317" y="370" on="1"/>
        <pt x="356" y="521" on="1"/>
        <pt x="357" y="523" on="0"/>
        <pt x="358" y="523" on="1"/>
        <pt x="360" y="523" on="0"/>
        <pt x="360" y="521" on="1"/>
        <pt x="419" y="370" on="1"/>
        <pt x="420" y="369" on="0"/>
        <pt x="420" y="369" on="1"/>
        <pt x="420" y="367" on="0"/>
      </contour>
      <contour>
        <pt x="553" y="473" on="1"/>
        <pt x="551" y="473" on="0"/>
        <pt x="551" y="475" on="1"/>
        <pt x="551" y="602" on="1"/>
        <pt x="551" y="604" on="0"/>
        <pt x="553" y="604" on="1"/>
        <pt x="926" y="604" on="1"/>
        <pt x="925" y="737" on="1"/>
        <pt x="278" y="737" on="1"/>
        <pt x="99" y="41" on="1"/>
        <pt x="231" y="41" on="1"/>
        <pt x="284" y="244" on="1"/>
        <pt x="284" y="245" on="0"/>
        <pt x="286" y="245" on="1"/>
        <pt x="417" y="245" on="1"/>
        <pt x="419" y="245" on="0"/>
        <pt x="419" y="243" on="1"/>
        <pt x="419" y="39" on="1"/>
        <pt x="419" y="39" on="0"/>
        <pt x="419" y="38" on="1"/>
        <pt x="926" y="38" on="1"/>
        <pt x="925" y="171" on="1"/>
        <pt x="553" y="171" on="1"/>
        <pt x="551" y="171" on="0"/>
        <pt x="551" y="173" on="1"/>
        <pt x="551" y="338" on="1"/>
        <pt x="551" y="341" on="0"/>
        <pt x="553" y="341" on="1"/>
        <pt x="828" y="341" on="1"/>
        <pt x="827" y="473" on="1"/>
      </contour>
      <contour>
        <pt x="831" y="336" on="1"/>
        <pt x="556" y="336" on="1"/>
        <pt x="556" y="175" on="1"/>
        <pt x="927" y="175" on="1"/>
        <pt x="929" y="175" on="0"/>
        <pt x="929" y="173" on="1"/>
        <pt x="930" y="36" on="1"/>
        <pt x="930" y="34" on="0"/>
        <pt x="928" y="34" on="1"/>
        <pt x="418" y="34" on="1"/>
        <pt x="416" y="34" on="0"/>
        <pt x="416" y="35" on="1"/>
        <pt x="414" y="36" on="0"/>
        <pt x="414" y="37" on="1"/>
        <pt x="414" y="241" on="1"/>
        <pt x="288" y="241" on="1"/>
        <pt x="235" y="38" on="1"/>
        <pt x="235" y="36" on="0"/>
        <pt x="233" y="36" on="1"/>
        <pt x="96" y="36" on="1"/>
        <pt x="94" y="36" on="0"/>
        <pt x="94" y="39" on="1"/>
        <pt x="94" y="39" on="0"/>
        <pt x="274" y="740" on="1"/>
        <pt x="274" y="741" on="0"/>
        <pt x="276" y="741" on="1"/>
        <pt x="927" y="741" on="1"/>
        <pt x="929" y="741" on="0"/>
        <pt x="929" y="739" on="1"/>
        <pt x="930" y="602" on="1"/>
        <pt x="930" y="600" on="0"/>
        <pt x="928" y="600" on="1"/>
        <pt x="556" y="600" on="1"/>
        <pt x="556" y="478" on="1"/>
        <pt x="830" y="478" on="1"/>
        <pt x="832" y="478" on="0"/>
        <pt x="832" y="475" on="1"/>
        <pt x="833" y="338" on="1"/>
        <pt x="833" y="336" on="0"/>
      </contour>
    </TTGlyph>
    <TTGlyph name="AE.0" xMin="50" yMin="7" xMax="974" yMax="788">
      <contour>
        <pt x="407" y="377" on="1"/>
        <pt x="297" y="377" on="1"/>
        <pt x="341" y="545" on="1"/>
      </contour>
      <contour>
        <pt x="865" y="495" on="1"/>
        <pt x="558" y="495" on="1"/>
        <pt x="558" y="636" on="1"/>
        <pt x="974" y="636" on="1"/>
        <pt x="973" y="788" on="1"/>
        <pt x="250" y="788" on="1"/>
        <pt x="50" y="10" on="1"/>
        <pt x="202" y="10" on="1"/>
        <pt x="261" y="237" on="1"/>
        <pt x="406" y="237" on="1"/>
        <pt x="406" y="8" on="1"/>
        <pt x="407" y="8" on="1"/>
        <pt x="407" y="7" on="1"/>
        <pt x="974" y="7" on="1"/>
        <pt x="973" y="159" on="1"/>
        <pt x="558" y="159" on="1"/>
        <pt x="558" y="343" on="1"/>
        <pt x="866" y="343" on="1"/>
      </contour>
    </TTGlyph>
    <TTGlyph name="AE.1" xMin="50" yMin="-3" xMax="974" yMax="778">
      <component glyphName="AE.0" x="0" y="-10" flags="0x204"/>
    </TTGlyph>
    <TTGlyph name="Aacute" xMin="80" yMin="36" xMax="672" yMax="1078">
      <component glyphName="acutecomb" x="327" y="285" flags="0x1004"/>
      <component glyphName="A" x="0" y="0" flags="0x1204"/>
    </TTGlyph>
    <TTGlyph name="Aacute.0" xMin="50" yMin="10" xMax="702" yMax="1132">
      <contour>
        <pt x="326" y="843" on="1"/>
        <pt x="508" y="1025" on="1"/>
        <pt x="400" y="1132" on="1"/>
        <pt x="218" y="950" on="1"/>
      </contour>
      <contour>
        <pt x="550" y="10" on="1"/>
        <pt x="702" y="10" on="1"/>
        <pt x="418" y="779" on="1"/>
        <pt x="266" y="779" on="1"/>
        <pt x="50" y="10" on="1"/>
        <pt x="202" y="10" on="1"/>
        <pt x="261" y="237" on="1"/>
        <pt x="461" y="237" on="1"/>
        <pt x="461" y="238" on="1"/>
      </contour>
      <contour>
        <pt x="407" y="377" on="1"/>
        <pt x="297" y="377" on="1"/>
        <pt x="357" y="545" on="1"/>
      </contour>
    </TTGlyph>
    <TTGlyph name="Aacute.1" xMin="50" yMin="0" xMax="702" yMax="1122">
      <component glyphName="Aacute.0" x="0" y="-10" flags="0x204"/>
    </TTGlyph>
    <TTGlyph name="Abreve" xMin="80" yMin="36" xMax="672" yMax="950">
      <component glyphName="uni0306" x="294" y="23" flags="0x1004"/>
      <component glyphName="A" x="0" y="0" flags="0x1204"/>
    </TTGlyph>
    <TTGlyph name="Abreve.0" xMin="50" yMin="10" xMax="702" yMax="967">
      <contour>
        <pt x="454" y="967" on="1"/>
        <pt x="378" y="967" on="1"/>
        <pt x="380" y="959" on="0"/>
        <pt x="380" y="953" on="1"/>
        <pt x="380" y="931" on="0"/>
        <pt x="365" y="915" on="1"/>
        <pt x="349" y="899" on="0"/>
        <pt x="327" y="899" on="1"/>
        <pt x="304" y="899" on="0"/>
        <pt x="288" y="915" on="1"/>
        <pt x="272" y="931" on="0"/>
        <pt x="272" y="953" on="1"/>
        <pt x="272" y="959" on="0"/>
        <pt x="274" y="967" on="1"/>
        <pt x="198" y="967" on="1"/>
        <pt x="198" y="953" on="1"/>
        <pt x="198" y="899" on="0"/>
        <pt x="235" y="862" on="1"/>
        <pt x="272" y="825" on="0"/>
        <pt x="326" y="825" on="1"/>
        <pt x="380" y="825" on="0"/>
        <pt x="417" y="863" on="1"/>
        <pt x="454" y="900" on="0"/>
        <pt x="454" y="953" on="1"/>
        <pt x="454" y="967" on="0"/>
      </contour>
      <contour>
        <pt x="550" y="10" on="1"/>
        <pt x="702" y="10" on="1"/>
        <pt x="418" y="779" on="1"/>
        <pt x="266" y="779" on="1"/>
        <pt x="50" y="10" on="1"/>
        <pt x="202" y="10" on="1"/>
        <pt x="261" y="237" on="1"/>
        <pt x="461" y="237" on="1"/>
        <pt x="461" y="238" on="1"/>
      </contour>
      <contour>
        <pt x="407" y="377" on="1"/>
        <pt x="297" y="377" on="1"/>
        <pt x="357" y="545" on="1"/>
      </contour>
    </TTGlyph>
    <TTGlyph name="Abreve.1" xMin="50" yMin="0" xMax="702" yMax="957">
      <component glyphName="Abreve.0" x="0" y="-10" flags="0x204"/>
    </TTGlyph>
    <TTGlyph name="Acircumflex" xMin="80" yMin="36" xMax="672" yMax="987">
      <component glyphName="uni0302" x="293" y="60" flags="0x1004"/>
      <component glyphName="A" x="0" y="0" flags="0x1204"/>
    </TTGlyph>
    <TTGlyph name="Acircumflex.0" xMin="50" yMin="10" xMax="702" yMax="1010">
      <contour>
        <pt x="226" y="842" on="1"/>
        <pt x="302" y="842" on="1"/>
        <pt x="330" y="950" on="1"/>
        <pt x="350" y="842" on="1"/>
        <pt x="426" y="842" on="1"/>
        <pt x="374" y="1010" on="1"/>
        <pt x="373" y="1010" on="1"/>
        <pt x="298" y="1010" on="1"/>
        <pt x="297" y="1010" on="1"/>
      </contour>
      <contour>
        <pt x="550" y="10" on="1"/>
        <pt x="702" y="10" on="1"/>
        <pt x="418" y="779" on="1"/>
        <pt x="266" y="779" on="1"/>
        <pt x="50" y="10" on="1"/>
        <pt x="202" y="10" on="1"/>
        <pt x="261" y="237" on="1"/>
        <pt x="461" y="237" on="1"/>
        <pt x="461" y="238" on="1"/>
      </contour>
      <contour>
        <pt x="407" y="377" on="1"/>
        <pt x="297" y="377" on="1"/>
        <pt x="357" y="545" on="1"/>
      </contour>
    </TTGlyph>
    <TTGlyph name="Acircumflex.1" xMin="50" yMin="0" xMax="702" yMax="1000">
      <component glyphName="Acircumflex.0" x="0" y="-10" flags="0x204"/>
    </TTGlyph>
    <TTGlyph name="Adieresis" xMin="80" yMin="36" xMax="672" yMax="937">
      <component glyphName="uni0308" x="293" y="302" flags="0x1004"/>
      <component glyphName="A" x="0" y="0" flags="0x1204"/>
    </TTGlyph>
    <TTGlyph name="Adieresis.0" xMin="50" yMin="10" xMax="702" yMax="985">
      <contour>
        <pt x="350" y="843" on="1"/>
        <pt x="502" y="843" on="1"/>
        <pt x="502" y="985" on="1"/>
        <pt x="350" y="985" on="1"/>
      </contour>
      <contour>
        <pt x="150" y="843" on="1"/>
        <pt x="302" y="843" on="1"/>
        <pt x="302" y="985" on="1"/>
        <pt x="150" y="985" on="1"/>
      </contour>
      <contour>
        <pt x="550" y="10" on="1"/>
        <pt x="702" y="10" on="1"/>
        <pt x="418" y="779" on="1"/>
        <pt x="266" y="779" on="1"/>
        <pt x="50" y="10" on="1"/>
        <pt x="202" y="10" on="1"/>
        <pt x="261" y="237" on="1"/>
        <pt x="461" y="237" on="1"/>
        <pt x="461" y="238" on="1"/>
      </contour>
      <contour>
        <pt x="407" y="377" on="1"/>
        <pt x="297" y="377" on="1"/>
        <pt x="357" y="545" on="1"/>
      </contour>
    </TTGlyph>
    <TTGlyph name="Adieresis.1" xMin="50" yMin="0" xMax="702" yMax="975">
      <component glyphName="Adieresis.0" x="0" y="-10" flags="0x204"/>
    </TTGlyph>
    <TTGlyph name="Agrave" xMin="80" yMin="36" xMax="672" yMax="1078">
      <component glyphName="gravecomb" x="260" y="285" flags="0x1004"/>
      <component glyphName="A" x="0" y="0" flags="0x1204"/>
    </TTGlyph>
    <TTGlyph name="Agrave.0" xMin="50" yMin="10" xMax="702" yMax="1132">
      <contour>
        <pt x="326" y="843" on="1"/>
        <pt x="434" y="950" on="1"/>
        <pt x="252" y="1132" on="1"/>
        <pt x="144" y="1025" on="1"/>
      </contour>
      <contour>
        <pt x="550" y="10" on="1"/>
        <pt x="702" y="10" on="1"/>
        <pt x="418" y="779" on="1"/>
        <pt x="266" y="779" on="1"/>
        <pt x="50" y="10" on="1"/>
        <pt x="202" y="10" on="1"/>
        <pt x="261" y="237" on="1"/>
        <pt x="461" y="237" on="1"/>
        <pt x="461" y="238" on="1"/>
      </contour>
      <contour>
        <pt x="407" y="377" on="1"/>
        <pt x="297" y="377" on="1"/>
        <pt x="357" y="545" on="1"/>
      </contour>
    </TTGlyph>
    <TTGlyph name="Agrave.1" xMin="50" yMin="0" xMax="702" yMax="1122">
      <component glyphName="Agrave.0" x="0" y="-10" flags="0x204"/>
    </TTGlyph>
    <TTGlyph name="Amacron" xMin="80" yMin="36" xMax="672" yMax="902">
      <component glyphName="uni0304" x="293" y="46" flags="0x1004"/>
      <component glyphName="A" x="0" y="0" flags="0x1204"/>
    </TTGlyph>
    <TTGlyph name="Amacron.0" xMin="50" yMin="10" xMax="702" yMax="919">
      <contour>
        <pt x="462" y="919" on="1"/>
        <pt x="190" y="919" on="1"/>
        <pt x="190" y="843" on="1"/>
        <pt x="462" y="843" on="1"/>
      </contour>
      <contour>
        <pt x="550" y="10" on="1"/>
        <pt x="702" y="10" on="1"/>
        <pt x="418" y="779" on="1"/>
        <pt x="266" y="779" on="1"/>
        <pt x="50" y="10" on="1"/>
        <pt x="202" y="10" on="1"/>
        <pt x="261" y="237" on="1"/>
        <pt x="461" y="237" on="1"/>
        <pt x="461" y="238" on="1"/>
      </contour>
      <contour>
        <pt x="407" y="377" on="1"/>
        <pt x="297" y="377" on="1"/>
        <pt x="357" y="545" on="1"/>
      </contour>
    </TTGlyph>
    <TTGlyph name="Amacron.1" xMin="50" yMin="0" xMax="702" yMax="909">
      <component glyphName="Amacron.0" x="0" y="-10" flags="0x204"/>
    </TTGlyph>
    <TTGlyph name="Aogonek" xMin="80" yMin="-223" xMax="672" yMax="733">
      <component glyphName="uni0328" x="553" y="-166" flags="0x1004"/>
      <component glyphName="A" x="0" y="0" flags="0x1004"/>
    </TTGlyph>
    <TTGlyph name="Aogonek.0" xMin="50" yMin="-242" xMax="702" yMax="779">
      <contour>
        <pt x="685" y="-242" on="1"/>
        <pt x="685" y="-165" on="1"/>
        <pt x="677" y="-167" on="0"/>
        <pt x="672" y="-167" on="1"/>
        <pt x="649" y="-167" on="0"/>
        <pt x="634" y="-151" on="1"/>
        <pt x="618" y="-136" on="0"/>
        <pt x="618" y="-114" on="1"/>
        <pt x="618" y="-92" on="0"/>
        <pt x="634" y="-76" on="1"/>
        <pt x="650" y="-60" on="0"/>
        <pt x="672" y="-60" on="1"/>
        <pt x="677" y="-60" on="0"/>
        <pt x="685" y="-62" on="1"/>
        <pt x="685" y="15" on="1"/>
        <pt x="672" y="15" on="1"/>
        <pt x="618" y="15" on="0"/>
        <pt x="581" y="-22" on="1"/>
        <pt x="543" y="-60" on="0"/>
        <pt x="543" y="-114" on="1"/>
        <pt x="543" y="-167" on="0"/>
        <pt x="581" y="-204" on="1"/>
        <pt x="618" y="-242" on="0"/>
        <pt x="672" y="-242" on="1"/>
        <pt x="685" y="-242" on="0"/>
      </contour>
      <contour>
        <pt x="550" y="10" on="1"/>
        <pt x="702" y="10" on="1"/>
        <pt x="418" y="779" on="1"/>
        <pt x="266" y="779" on="1"/>
        <pt x="50" y="10" on="1"/>
        <pt x="202" y="10" on="1"/>
        <pt x="261" y="237" on="1"/>
        <pt x="461" y="237" on="1"/>
        <pt x="461" y="238" on="1"/>
      </contour>
      <contour>
        <pt x="407" y="377" on="1"/>
        <pt x="297" y="377" on="1"/>
        <pt x="357" y="545" on="1"/>
      </contour>
    </TTGlyph>
    <TTGlyph name="Aogonek.1" xMin="50" yMin="-252" xMax="702" yMax="769">
      <component glyphName="Aogonek.0" x="0" y="-10" flags="0x204"/>
    </TTGlyph>
    <TTGlyph name="Aring" xMin="80" yMin="36" xMax="672" yMax="1002">
      <component glyphName="uni030A" x="293" y="324" flags="0x1004"/>
      <component glyphName="A" x="0" y="0" flags="0x1204"/>
    </TTGlyph>
    <TTGlyph name="Aring.0" xMin="50" yMin="10" xMax="702" yMax="1059">
      <contour>
        <pt x="325" y="802" on="1"/>
        <pt x="327" y="802" on="1"/>
        <pt x="381" y="802" on="0"/>
        <pt x="419" y="840" on="1"/>
        <pt x="456" y="877" on="0"/>
        <pt x="456" y="930" on="1"/>
        <pt x="456" y="984" on="0"/>
        <pt x="419" y="1022" on="1"/>
        <pt x="381" y="1059" on="0"/>
        <pt x="327" y="1059" on="1"/>
        <pt x="325" y="1059" on="0"/>
        <pt x="325" y="1059" on="1"/>
        <pt x="323" y="1059" on="0"/>
        <pt x="323" y="1059" on="1"/>
        <pt x="316" y="1059" on="1"/>
        <pt x="266" y="1055" on="0"/>
        <pt x="231" y="1018" on="1"/>
        <pt x="196" y="981" on="0"/>
        <pt x="196" y="930" on="1"/>
        <pt x="196" y="879" on="0"/>
        <pt x="231" y="843" on="1"/>
        <pt x="265" y="806" on="0"/>
        <pt x="316" y="802" on="1"/>
        <pt x="323" y="802" on="0"/>
        <pt x="323" y="802" on="1"/>
        <pt x="325" y="802" on="0"/>
      </contour>
      <contour>
        <pt x="326" y="984" on="1"/>
        <pt x="330" y="984" on="0"/>
        <pt x="338" y="982" on="1"/>
        <pt x="338" y="983" on="1"/>
        <pt x="357" y="979" on="0"/>
        <pt x="369" y="965" on="1"/>
        <pt x="380" y="950" on="0"/>
        <pt x="380" y="930" on="1"/>
        <pt x="380" y="911" on="0"/>
        <pt x="369" y="897" on="1"/>
        <pt x="357" y="882" on="0"/>
        <pt x="338" y="878" on="1"/>
        <pt x="338" y="879" on="1"/>
        <pt x="330" y="877" on="0"/>
        <pt x="326" y="877" on="1"/>
        <pt x="322" y="877" on="0"/>
        <pt x="314" y="879" on="1"/>
        <pt x="314" y="878" on="1"/>
        <pt x="295" y="882" on="0"/>
        <pt x="284" y="897" on="1"/>
        <pt x="272" y="911" on="0"/>
        <pt x="272" y="930" on="1"/>
        <pt x="272" y="950" on="0"/>
        <pt x="284" y="965" on="1"/>
        <pt x="295" y="979" on="0"/>
        <pt x="314" y="983" on="1"/>
        <pt x="314" y="982" on="1"/>
        <pt x="322" y="984" on="0"/>
      </contour>
      <contour>
        <pt x="550" y="10" on="1"/>
        <pt x="702" y="10" on="1"/>
        <pt x="418" y="779" on="1"/>
        <pt x="266" y="779" on="1"/>
        <pt x="50" y="10" on="1"/>
        <pt x="202" y="10" on="1"/>
        <pt x="261" y="237" on="1"/>
        <pt x="461" y="237" on="1"/>
        <pt x="461" y="238" on="1"/>
      </contour>
      <contour>
        <pt x="407" y="377" on="1"/>
        <pt x="297" y="377" on="1"/>
        <pt x="357" y="545" on="1"/>
      </contour>
    </TTGlyph>
    <TTGlyph name="Aring.1" xMin="50" yMin="0" xMax="702" yMax="1049">
      <component glyphName="Aring.0" x="0" y="-10" flags="0x204"/>
    </TTGlyph>
    <TTGlyph name="Atilde" xMin="80" yMin="36" xMax="672" yMax="943">
      <component glyphName="tildecomb" x="293" y="28" flags="0x1004"/>
      <component glyphName="A" x="0" y="0" flags="0x1204"/>
    </TTGlyph>
    <TTGlyph name="Atilde.0" xMin="50" yMin="10" xMax="702" yMax="960">
      <contour>
        <pt x="451" y="960" on="1"/>
        <pt x="441" y="950" on="1"/>
        <pt x="432" y="940" on="0"/>
        <pt x="415" y="930" on="1"/>
        <pt x="398" y="920" on="0"/>
        <pt x="383" y="920" on="1"/>
        <pt x="361" y="920" on="0"/>
        <pt x="338" y="920" on="1"/>
        <pt x="322" y="920" on="0"/>
        <pt x="299" y="934" on="1"/>
        <pt x="275" y="947" on="0"/>
        <pt x="258" y="947" on="1"/>
        <pt x="233" y="947" on="0"/>
        <pt x="201" y="919" on="1"/>
        <pt x="201" y="843" on="1"/>
        <pt x="210" y="850" on="1"/>
        <pt x="219" y="857" on="0"/>
        <pt x="234" y="864" on="1"/>
        <pt x="249" y="871" on="0"/>
        <pt x="260" y="871" on="1"/>
        <pt x="276" y="871" on="0"/>
        <pt x="299" y="857" on="1"/>
        <pt x="321" y="843" on="0"/>
        <pt x="337" y="843" on="1"/>
        <pt x="387" y="843" on="1"/>
        <pt x="403" y="843" on="0"/>
        <pt x="419" y="854" on="1"/>
        <pt x="435" y="864" on="0"/>
        <pt x="443" y="873" on="1"/>
        <pt x="450" y="882" on="0"/>
        <pt x="451" y="884" on="1"/>
      </contour>
      <contour>
        <pt x="550" y="10" on="1"/>
        <pt x="702" y="10" on="1"/>
        <pt x="418" y="779" on="1"/>
        <pt x="266" y="779" on="1"/>
        <pt x="50" y="10" on="1"/>
        <pt x="202" y="10" on="1"/>
        <pt x="261" y="237" on="1"/>
        <pt x="461" y="237" on="1"/>
        <pt x="461" y="238" on="1"/>
      </contour>
      <contour>
        <pt x="407" y="377" on="1"/>
        <pt x="297" y="377" on="1"/>
        <pt x="357" y="545" on="1"/>
      </contour>
    </TTGlyph>
    <TTGlyph name="Atilde.1" xMin="50" yMin="0" xMax="702" yMax="950">
      <component glyphName="Atilde.0" x="0" y="-10" flags="0x204"/>
    </TTGlyph>
    <TTGlyph name="B" xMin="69" yMin="40" xMax="465" yMax="743">
      <contour>
        <pt x="225" y="739" on="1"/>
        <pt x="222" y="739" on="0"/>
        <pt x="211" y="739" on="0"/>
        <pt x="208" y="739" on="1"/>
        <pt x="208" y="739" on="0"/>
        <pt x="207" y="739" on="1"/>
        <pt x="74" y="739" on="1"/>
        <pt x="74" y="45" on="1"/>
        <pt x="208" y="45" on="1"/>
        <pt x="209" y="45" on="0"/>
        <pt x="209" y="45" on="1"/>
        <pt x="216" y="44" on="0"/>
        <pt x="230" y="44" on="1"/>
        <pt x="326" y="44" on="0"/>
        <pt x="460" y="178" on="0"/>
        <pt x="460" y="273" on="1"/>
        <pt x="460" y="295" on="0"/>
        <pt x="437" y="334" on="0"/>
        <pt x="383" y="391" on="0"/>
        <pt x="380" y="394" on="1"/>
        <pt x="380" y="395" on="0"/>
        <pt x="380" y="396" on="0"/>
        <pt x="380" y="397" on="1"/>
        <pt x="387" y="405" on="0"/>
        <pt x="403" y="423" on="1"/>
        <pt x="420" y="440" on="0"/>
        <pt x="437" y="460" on="0"/>
        <pt x="455" y="494" on="0"/>
        <pt x="455" y="509" on="1"/>
        <pt x="455" y="605" on="0"/>
        <pt x="320" y="739" on="0"/>
      </contour>
      <contour>
        <pt x="230" y="161" on="1"/>
        <pt x="270" y="161" on="0"/>
        <pt x="324" y="215" on="0"/>
        <pt x="324" y="254" on="1"/>
        <pt x="324" y="294" on="0"/>
        <pt x="270" y="348" on="0"/>
        <pt x="230" y="348" on="1"/>
        <pt x="220" y="348" on="0"/>
        <pt x="211" y="346" on="1"/>
        <pt x="211" y="163" on="1"/>
        <pt x="220" y="161" on="0"/>
      </contour>
      <contour>
        <pt x="206" y="162" on="1"/>
        <pt x="206" y="348" on="1"/>
        <pt x="206" y="350" on="0"/>
        <pt x="208" y="350" on="1"/>
        <pt x="219" y="353" on="0"/>
        <pt x="230" y="353" on="1"/>
        <pt x="272" y="353" on="0"/>
        <pt x="329" y="296" on="0"/>
        <pt x="329" y="254" on="1"/>
        <pt x="329" y="213" on="0"/>
        <pt x="271" y="157" on="0"/>
        <pt x="230" y="157" on="1"/>
        <pt x="219" y="157" on="0"/>
        <pt x="208" y="159" on="1"/>
        <pt x="206" y="160" on="0"/>
      </contour>
      <contour>
        <pt x="230" y="447" on="1"/>
        <pt x="270" y="447" on="0"/>
        <pt x="324" y="501" on="0"/>
        <pt x="324" y="540" on="1"/>
        <pt x="324" y="580" on="0"/>
        <pt x="270" y="634" on="0"/>
        <pt x="230" y="634" on="1"/>
        <pt x="220" y="634" on="0"/>
        <pt x="211" y="632" on="1"/>
        <pt x="211" y="450" on="1"/>
        <pt x="220" y="447" on="0"/>
      </contour>
      <contour>
        <pt x="206" y="448" on="1"/>
        <pt x="206" y="634" on="1"/>
        <pt x="206" y="636" on="0"/>
        <pt x="208" y="636" on="1"/>
        <pt x="219" y="639" on="0"/>
        <pt x="230" y="639" on="1"/>
        <pt x="272" y="639" on="0"/>
        <pt x="329" y="582" on="0"/>
        <pt x="329" y="540" on="1"/>
        <pt x="329" y="500" on="0"/>
        <pt x="271" y="443" on="0"/>
        <pt x="230" y="443" on="1"/>
        <pt x="219" y="443" on="0"/>
        <pt x="208" y="446" on="1"/>
        <pt x="206" y="446" on="0"/>
      </contour>
      <contour>
        <pt x="385" y="396" on="1"/>
        <pt x="391" y="389" on="0"/>
        <pt x="426" y="352" on="0"/>
        <pt x="446" y="328" on="0"/>
        <pt x="465" y="291" on="0"/>
        <pt x="465" y="273" on="1"/>
        <pt x="465" y="176" on="0"/>
        <pt x="327" y="40" on="0"/>
        <pt x="230" y="40" on="1"/>
        <pt x="227" y="40" on="0"/>
        <pt x="212" y="40" on="0"/>
        <pt x="208" y="40" on="1"/>
        <pt x="72" y="40" on="1"/>
        <pt x="69" y="40" on="0"/>
        <pt x="69" y="43" on="1"/>
        <pt x="69" y="741" on="1"/>
        <pt x="69" y="743" on="0"/>
        <pt x="72" y="743" on="1"/>
        <pt x="208" y="743" on="1"/>
        <pt x="209" y="743" on="0"/>
        <pt x="210" y="743" on="1"/>
        <pt x="215" y="743" on="0"/>
        <pt x="224" y="743" on="1"/>
        <pt x="225" y="743" on="1"/>
        <pt x="322" y="743" on="0"/>
        <pt x="459" y="606" on="0"/>
        <pt x="459" y="509" on="1"/>
        <pt x="459" y="488" on="0"/>
        <pt x="436" y="450" on="0"/>
        <pt x="390" y="402" on="0"/>
      </contour>
    </TTGlyph>
    <TTGlyph name="B.0" xMin="50" yMin="13" xMax="484" yMax="790">
      <contour>
        <pt x="202" y="790" on="1"/>
        <pt x="50" y="790" on="1"/>
        <pt x="50" y="14" on="1"/>
        <pt x="202" y="14" on="1"/>
        <pt x="210" y="13" on="0"/>
        <pt x="226" y="13" on="1"/>
        <pt x="333" y="13" on="0"/>
        <pt x="409" y="88" on="1"/>
        <pt x="484" y="163" on="0"/>
        <pt x="484" y="270" on="1"/>
        <pt x="484" y="295" on="0"/>
        <pt x="471" y="318" on="1"/>
        <pt x="458" y="340" on="0"/>
        <pt x="428" y="372" on="1"/>
        <pt x="397" y="404" on="0"/>
        <pt x="395" y="406" on="1"/>
        <pt x="401" y="413" on="0"/>
        <pt x="426" y="439" on="1"/>
        <pt x="450" y="465" on="0"/>
        <pt x="464" y="487" on="1"/>
        <pt x="478" y="509" on="0"/>
        <pt x="478" y="532" on="1"/>
        <pt x="478" y="639" on="0"/>
        <pt x="403" y="715" on="1"/>
        <pt x="327" y="790" on="0"/>
        <pt x="220" y="790" on="1"/>
        <pt x="208" y="790" on="0"/>
      </contour>
      <contour>
        <pt x="202" y="146" on="1"/>
        <pt x="202" y="353" on="1"/>
        <pt x="214" y="356" on="0"/>
        <pt x="226" y="356" on="1"/>
        <pt x="271" y="356" on="0"/>
        <pt x="302" y="325" on="1"/>
        <pt x="333" y="294" on="0"/>
        <pt x="333" y="249" on="1"/>
        <pt x="333" y="205" on="0"/>
        <pt x="302" y="174" on="1"/>
        <pt x="271" y="143" on="0"/>
        <pt x="226" y="143" on="1"/>
        <pt x="214" y="143" on="0"/>
      </contour>
      <contour>
        <pt x="202" y="464" on="1"/>
        <pt x="202" y="671" on="1"/>
        <pt x="214" y="674" on="0"/>
        <pt x="226" y="674" on="1"/>
        <pt x="271" y="674" on="0"/>
        <pt x="302" y="643" on="1"/>
        <pt x="333" y="612" on="0"/>
        <pt x="333" y="567" on="1"/>
        <pt x="333" y="523" on="0"/>
        <pt x="302" y="492" on="1"/>
        <pt x="271" y="461" on="0"/>
        <pt x="226" y="461" on="1"/>
        <pt x="214" y="461" on="0"/>
      </contour>
    </TTGlyph>
    <TTGlyph name="B.1" xMin="50" yMin="3" xMax="484" yMax="780">
      <component glyphName="B.0" x="0" y="-10" flags="0x204"/>
    </TTGlyph>
    <TTGlyph name="C" xMin="70" yMin="23" xMax="484" yMax="736">
      <contour>
        <pt x="208" y="378" on="1"/>
        <pt x="208" y="466" on="0"/>
        <pt x="330" y="591" on="0"/>
        <pt x="417" y="591" on="1"/>
        <pt x="449" y="591" on="0"/>
        <pt x="480" y="581" on="1"/>
        <pt x="480" y="725" on="1"/>
        <pt x="449" y="731" on="0"/>
        <pt x="417" y="731" on="1"/>
        <pt x="324" y="731" on="0"/>
        <pt x="166" y="637" on="0"/>
        <pt x="75" y="475" on="0"/>
        <pt x="75" y="380" on="1"/>
        <pt x="75" y="284" on="0"/>
        <pt x="166" y="122" on="0"/>
        <pt x="324" y="28" on="0"/>
        <pt x="417" y="28" on="1"/>
        <pt x="449" y="28" on="0"/>
        <pt x="480" y="34" on="1"/>
        <pt x="480" y="174" on="1"/>
        <pt x="449" y="164" on="0"/>
        <pt x="417" y="164" on="1"/>
        <pt x="330" y="164" on="0"/>
        <pt x="208" y="289" on="0"/>
      </contour>
      <contour>
        <pt x="417" y="586" on="1"/>
        <pt x="332" y="586" on="0"/>
        <pt x="213" y="464" on="0"/>
        <pt x="213" y="378" on="1"/>
        <pt x="213" y="291" on="0"/>
        <pt x="332" y="169" on="0"/>
        <pt x="417" y="169" on="1"/>
        <pt x="450" y="169" on="0"/>
        <pt x="482" y="180" on="1"/>
        <pt x="484" y="180" on="0"/>
        <pt x="484" y="178" on="1"/>
        <pt x="484" y="32" on="1"/>
        <pt x="484" y="30" on="0"/>
        <pt x="483" y="30" on="1"/>
        <pt x="450" y="23" on="0"/>
        <pt x="417" y="23" on="1"/>
        <pt x="322" y="23" on="0"/>
        <pt x="163" y="118" on="0"/>
        <pt x="70" y="283" on="0"/>
        <pt x="70" y="380" on="1"/>
        <pt x="70" y="477" on="0"/>
        <pt x="163" y="641" on="0"/>
        <pt x="323" y="736" on="0"/>
        <pt x="417" y="736" on="1"/>
        <pt x="450" y="736" on="0"/>
        <pt x="483" y="729" on="1"/>
        <pt x="484" y="729" on="0"/>
        <pt x="484" y="727" on="1"/>
        <pt x="484" y="578" on="1"/>
        <pt x="484" y="576" on="0"/>
        <pt x="482" y="576" on="1"/>
        <pt x="450" y="586" on="0"/>
      </contour>
    </TTGlyph>
    <TTGlyph name="C.0" xMin="50" yMin="-4" xMax="505" yMax="783">
      <contour>
        <pt x="432" y="622" on="1"/>
        <pt x="470" y="622" on="0"/>
        <pt x="505" y="610" on="1"/>
        <pt x="505" y="776" on="1"/>
        <pt x="469" y="783" on="0"/>
        <pt x="432" y="783" on="1"/>
        <pt x="274" y="783" on="0"/>
        <pt x="162" y="668" on="1"/>
        <pt x="50" y="553" on="0"/>
        <pt x="50" y="390" on="1"/>
        <pt x="50" y="227" on="0"/>
        <pt x="162" y="112" on="1"/>
        <pt x="274" y="-4" on="0"/>
        <pt x="432" y="-4" on="1"/>
        <pt x="469" y="-4" on="0"/>
        <pt x="505" y="3" on="1"/>
        <pt x="505" y="165" on="1"/>
        <pt x="470" y="153" on="0"/>
        <pt x="432" y="153" on="1"/>
        <pt x="337" y="153" on="0"/>
        <pt x="270" y="222" on="1"/>
        <pt x="203" y="290" on="0"/>
        <pt x="203" y="388" on="1"/>
        <pt x="203" y="485" on="0"/>
        <pt x="270" y="554" on="1"/>
        <pt x="337" y="622" on="0"/>
      </contour>
    </TTGlyph>
    <TTGlyph name="C.1" xMin="50" yMin="-14" xMax="505" yMax="773">
      <component glyphName="C.0" x="0" y="-10" flags="0x204"/>
    </TTGlyph>
    <TTGlyph name="Cacute" xMin="70" yMin="23" xMax="555" yMax="1078">
      <component glyphName="acutecomb" x="422" y="285" flags="0x1004"/>
      <component glyphName="C" x="0" y="0" flags="0x1204"/>
    </TTGlyph>
    <TTGlyph name="Cacute.0" xMin="50" yMin="-4" xMax="614" yMax="1132">
      <contour>
        <pt x="432" y="843" on="1"/>
        <pt x="614" y="1025" on="1"/>
        <pt x="506" y="1132" on="1"/>
        <pt x="324" y="950" on="1"/>
      </contour>
      <contour>
        <pt x="432" y="622" on="1"/>
        <pt x="470" y="622" on="0"/>
        <pt x="505" y="610" on="1"/>
        <pt x="505" y="776" on="1"/>
        <pt x="469" y="783" on="0"/>
        <pt x="432" y="783" on="1"/>
        <pt x="274" y="783" on="0"/>
        <pt x="162" y="668" on="1"/>
        <pt x="50" y="553" on="0"/>
        <pt x="50" y="390" on="1"/>
        <pt x="50" y="227" on="0"/>
        <pt x="162" y="112" on="1"/>
        <pt x="274" y="-4" on="0"/>
        <pt x="432" y="-4" on="1"/>
        <pt x="469" y="-4" on="0"/>
        <pt x="505" y="3" on="1"/>
        <pt x="505" y="165" on="1"/>
        <pt x="470" y="153" on="0"/>
        <pt x="432" y="153" on="1"/>
        <pt x="337" y="153" on="0"/>
        <pt x="270" y="222" on="1"/>
        <pt x="203" y="290" on="0"/>
        <pt x="203" y="388" on="1"/>
        <pt x="203" y="485" on="0"/>
        <pt x="270" y="554" on="1"/>
        <pt x="337" y="622" on="0"/>
      </contour>
    </TTGlyph>
    <TTGlyph name="Cacute.1" xMin="50" yMin="-14" xMax="614" yMax="1122">
      <component glyphName="Cacute.0" x="0" y="-10" flags="0x204"/>
    </TTGlyph>
    <TTGlyph name="Ccaron" xMin="70" yMin="23" xMax="484" yMax="988">
      <component glyphName="uni030C" x="389" y="60" flags="0x1004"/>
      <component glyphName="C" x="0" y="0" flags="0x1204"/>
    </TTGlyph>
    <TTGlyph name="Ccaron.0" xMin="50" yMin="-4" xMax="532" yMax="1011">
      <contour>
        <pt x="332" y="1011" on="1"/>
        <pt x="403" y="843" on="1"/>
        <pt x="404" y="843" on="1"/>
        <pt x="479" y="843" on="1"/>
        <pt x="480" y="843" on="1"/>
        <pt x="532" y="1011" on="1"/>
        <pt x="456" y="1011" on="1"/>
        <pt x="436" y="903" on="1"/>
        <pt x="408" y="1011" on="1"/>
      </contour>
      <contour>
        <pt x="432" y="622" on="1"/>
        <pt x="470" y="622" on="0"/>
        <pt x="505" y="610" on="1"/>
        <pt x="505" y="776" on="1"/>
        <pt x="469" y="783" on="0"/>
        <pt x="432" y="783" on="1"/>
        <pt x="274" y="783" on="0"/>
        <pt x="162" y="668" on="1"/>
        <pt x="50" y="553" on="0"/>
        <pt x="50" y="390" on="1"/>
        <pt x="50" y="227" on="0"/>
        <pt x="162" y="112" on="1"/>
        <pt x="274" y="-4" on="0"/>
        <pt x="432" y="-4" on="1"/>
        <pt x="469" y="-4" on="0"/>
        <pt x="505" y="3" on="1"/>
        <pt x="505" y="165" on="1"/>
        <pt x="470" y="153" on="0"/>
        <pt x="432" y="153" on="1"/>
        <pt x="337" y="153" on="0"/>
        <pt x="270" y="222" on="1"/>
        <pt x="203" y="290" on="0"/>
        <pt x="203" y="388" on="1"/>
        <pt x="203" y="485" on="0"/>
        <pt x="270" y="554" on="1"/>
        <pt x="337" y="622" on="0"/>
      </contour>
    </TTGlyph>
    <TTGlyph name="Ccaron.1" xMin="50" yMin="-14" xMax="532" yMax="1001">
      <component glyphName="Ccaron.0" x="0" y="-10" flags="0x204"/>
    </TTGlyph>
    <TTGlyph name="Ccedilla" xMin="70" yMin="-232" xMax="513" yMax="736">
      <component glyphName="uni0327" x="447" y="-175" flags="0x1004"/>
      <component glyphName="C" x="0" y="0" flags="0x1204"/>
    </TTGlyph>
    <TTGlyph name="Ccedilla.0" xMin="50" yMin="-252" xMax="567" yMax="783">
      <contour>
        <pt x="425" y="-252" on="1"/>
        <pt x="438" y="-252" on="1"/>
        <pt x="492" y="-252" on="0"/>
        <pt x="530" y="-214" on="1"/>
        <pt x="567" y="-177" on="0"/>
        <pt x="567" y="-124" on="1"/>
        <pt x="567" y="-70" on="0"/>
        <pt x="530" y="-32" on="1"/>
        <pt x="492" y="5" on="0"/>
        <pt x="438" y="5" on="1"/>
        <pt x="425" y="5" on="1"/>
        <pt x="425" y="-72" on="1"/>
        <pt x="433" y="-70" on="0"/>
        <pt x="438" y="-70" on="1"/>
        <pt x="460" y="-70" on="0"/>
        <pt x="476" y="-86" on="1"/>
        <pt x="492" y="-102" on="0"/>
        <pt x="492" y="-124" on="1"/>
        <pt x="492" y="-146" on="0"/>
        <pt x="477" y="-161" on="1"/>
        <pt x="461" y="-177" on="0"/>
        <pt x="438" y="-177" on="1"/>
        <pt x="433" y="-177" on="0"/>
        <pt x="425" y="-175" on="1"/>
      </contour>
      <contour>
        <pt x="432" y="622" on="1"/>
        <pt x="470" y="622" on="0"/>
        <pt x="505" y="610" on="1"/>
        <pt x="505" y="776" on="1"/>
        <pt x="469" y="783" on="0"/>
        <pt x="432" y="783" on="1"/>
        <pt x="274" y="783" on="0"/>
        <pt x="162" y="668" on="1"/>
        <pt x="50" y="553" on="0"/>
        <pt x="50" y="390" on="1"/>
        <pt x="50" y="227" on="0"/>
        <pt x="162" y="112" on="1"/>
        <pt x="274" y="-4" on="0"/>
        <pt x="432" y="-4" on="1"/>
        <pt x="469" y="-4" on="0"/>
        <pt x="505" y="3" on="1"/>
        <pt x="505" y="165" on="1"/>
        <pt x="470" y="153" on="0"/>
        <pt x="432" y="153" on="1"/>
        <pt x="337" y="153" on="0"/>
        <pt x="270" y="222" on="1"/>
        <pt x="203" y="290" on="0"/>
        <pt x="203" y="388" on="1"/>
        <pt x="203" y="485" on="0"/>
        <pt x="270" y="554" on="1"/>
        <pt x="337" y="622" on="0"/>
      </contour>
    </TTGlyph>
    <TTGlyph name="Ccedilla.1" xMin="50" yMin="-262" xMax="567" yMax="773">
      <component glyphName="Ccedilla.0" x="0" y="-10" flags="0x204"/>
    </TTGlyph>
    <TTGlyph name="Ccircumflex" xMin="70" yMin="23" xMax="484" yMax="987">
      <component glyphName="uni0302" x="389" y="60" flags="0x1004"/>
      <component glyphName="C" x="0" y="0" flags="0x1204"/>
    </TTGlyph>
    <TTGlyph name="Ccircumflex.0" xMin="50" yMin="-4" xMax="532" yMax="1010">
      <contour>
        <pt x="332" y="842" on="1"/>
        <pt x="408" y="842" on="1"/>
        <pt x="436" y="950" on="1"/>
        <pt x="456" y="842" on="1"/>
        <pt x="532" y="842" on="1"/>
        <pt x="480" y="1010" on="1"/>
        <pt x="479" y="1010" on="1"/>
        <pt x="404" y="1010" on="1"/>
        <pt x="403" y="1010" on="1"/>
      </contour>
      <contour>
        <pt x="432" y="622" on="1"/>
        <pt x="470" y="622" on="0"/>
        <pt x="505" y="610" on="1"/>
        <pt x="505" y="776" on="1"/>
        <pt x="469" y="783" on="0"/>
        <pt x="432" y="783" on="1"/>
        <pt x="274" y="783" on="0"/>
        <pt x="162" y="668" on="1"/>
        <pt x="50" y="553" on="0"/>
        <pt x="50" y="390" on="1"/>
        <pt x="50" y="227" on="0"/>
        <pt x="162" y="112" on="1"/>
        <pt x="274" y="-4" on="0"/>
        <pt x="432" y="-4" on="1"/>
        <pt x="469" y="-4" on="0"/>
        <pt x="505" y="3" on="1"/>
        <pt x="505" y="165" on="1"/>
        <pt x="470" y="153" on="0"/>
        <pt x="432" y="153" on="1"/>
        <pt x="337" y="153" on="0"/>
        <pt x="270" y="222" on="1"/>
        <pt x="203" y="290" on="0"/>
        <pt x="203" y="388" on="1"/>
        <pt x="203" y="485" on="0"/>
        <pt x="270" y="554" on="1"/>
        <pt x="337" y="622" on="0"/>
      </contour>
    </TTGlyph>
    <TTGlyph name="Ccircumflex.1" xMin="50" yMin="-14" xMax="532" yMax="1000">
      <component glyphName="Ccircumflex.0" x="0" y="-10" flags="0x204"/>
    </TTGlyph>
    <TTGlyph name="Cdotaccent" xMin="70" yMin="23" xMax="484" yMax="937">
      <component glyphName="uni0307" x="346" y="302" flags="0x1004"/>
      <component glyphName="C" x="0" y="0" flags="0x1204"/>
    </TTGlyph>
    <TTGlyph name="Cdotaccent.0" xMin="50" yMin="-4" xMax="505" yMax="985">
      <contour>
        <pt x="308" y="843" on="1"/>
        <pt x="460" y="843" on="1"/>
        <pt x="460" y="985" on="1"/>
        <pt x="308" y="985" on="1"/>
      </contour>
      <contour>
        <pt x="432" y="622" on="1"/>
        <pt x="470" y="622" on="0"/>
        <pt x="505" y="610" on="1"/>
        <pt x="505" y="776" on="1"/>
        <pt x="469" y="783" on="0"/>
        <pt x="432" y="783" on="1"/>
        <pt x="274" y="783" on="0"/>
        <pt x="162" y="668" on="1"/>
        <pt x="50" y="553" on="0"/>
        <pt x="50" y="390" on="1"/>
        <pt x="50" y="227" on="0"/>
        <pt x="162" y="112" on="1"/>
        <pt x="274" y="-4" on="0"/>
        <pt x="432" y="-4" on="1"/>
        <pt x="469" y="-4" on="0"/>
        <pt x="505" y="3" on="1"/>
        <pt x="505" y="165" on="1"/>
        <pt x="470" y="153" on="0"/>
        <pt x="432" y="153" on="1"/>
        <pt x="337" y="153" on="0"/>
        <pt x="270" y="222" on="1"/>
        <pt x="203" y="290" on="0"/>
        <pt x="203" y="388" on="1"/>
        <pt x="203" y="485" on="0"/>
        <pt x="270" y="554" on="1"/>
        <pt x="337" y="622" on="0"/>
      </contour>
    </TTGlyph>
    <TTGlyph name="Cdotaccent.1" xMin="50" yMin="-14" xMax="505" yMax="975">
      <component glyphName="Cdotaccent.0" x="0" y="-10" flags="0x204"/>
    </TTGlyph>
    <TTGlyph name="D" xMin="74" yMin="23" xMax="556" yMax="736">
      <contour>
        <pt x="210" y="731" on="1"/>
        <pt x="193" y="731" on="0"/>
        <pt x="124" y="725" on="0"/>
        <pt x="107" y="725" on="1"/>
        <pt x="92" y="725" on="0"/>
        <pt x="79" y="727" on="1"/>
        <pt x="79" y="28" on="1"/>
        <pt x="213" y="28" on="1"/>
        <pt x="305" y="29" on="0"/>
        <pt x="461" y="123" on="0"/>
        <pt x="551" y="285" on="0"/>
        <pt x="551" y="475" on="0"/>
        <pt x="460" y="637" on="0"/>
        <pt x="302" y="731" on="0"/>
      </contour>
      <contour>
        <pt x="107" y="729" on="1"/>
        <pt x="124" y="729" on="0"/>
        <pt x="192" y="736" on="0"/>
        <pt x="210" y="736" on="1"/>
        <pt x="304" y="736" on="0"/>
        <pt x="463" y="641" on="0"/>
        <pt x="556" y="477" on="0"/>
        <pt x="556" y="380" on="1"/>
        <pt x="556" y="283" on="0"/>
        <pt x="464" y="120" on="0"/>
        <pt x="307" y="24" on="0"/>
        <pt x="213" y="23" on="1"/>
        <pt x="76" y="23" on="1"/>
        <pt x="74" y="23" on="0"/>
        <pt x="74" y="25" on="1"/>
        <pt x="74" y="729" on="1"/>
        <pt x="74" y="731" on="0"/>
        <pt x="76" y="731" on="1"/>
        <pt x="77" y="731" on="1"/>
        <pt x="91" y="729" on="0"/>
      </contour>
      <contour>
        <pt x="414" y="378" on="1"/>
        <pt x="414" y="463" on="0"/>
        <pt x="298" y="584" on="0"/>
        <pt x="216" y="586" on="1"/>
        <pt x="216" y="169" on="1"/>
        <pt x="298" y="171" on="0"/>
        <pt x="414" y="293" on="0"/>
      </contour>
      <contour>
        <pt x="211" y="167" on="1"/>
        <pt x="211" y="589" on="1"/>
        <pt x="211" y="591" on="0"/>
        <pt x="213" y="591" on="1"/>
        <pt x="299" y="589" on="0"/>
        <pt x="418" y="465" on="0"/>
        <pt x="418" y="378" on="1"/>
        <pt x="418" y="290" on="0"/>
        <pt x="299" y="166" on="0"/>
        <pt x="213" y="164" on="1"/>
        <pt x="211" y="164" on="0"/>
      </contour>
    </TTGlyph>
    <TTGlyph name="D.0" xMin="50" yMin="-4" xMax="580" yMax="783">
      <contour>
        <pt x="50" y="778" on="1"/>
        <pt x="50" y="-4" on="1"/>
        <pt x="202" y="-4" on="1"/>
        <pt x="305" y="-3" on="0"/>
        <pt x="392" y="50" on="1"/>
        <pt x="479" y="103" on="0"/>
        <pt x="530" y="193" on="1"/>
        <pt x="580" y="283" on="0"/>
        <pt x="580" y="390" on="1"/>
        <pt x="580" y="553" on="0"/>
        <pt x="468" y="668" on="1"/>
        <pt x="356" y="783" on="0"/>
        <pt x="198" y="783" on="1"/>
        <pt x="183" y="783" on="0"/>
        <pt x="124" y="778" on="1"/>
        <pt x="65" y="773" on="0"/>
      </contour>
      <contour>
        <pt x="202" y="153" on="1"/>
        <pt x="202" y="622" on="1"/>
        <pt x="296" y="620" on="0"/>
        <pt x="362" y="552" on="1"/>
        <pt x="427" y="484" on="0"/>
        <pt x="427" y="388" on="1"/>
        <pt x="427" y="292" on="0"/>
        <pt x="362" y="224" on="1"/>
        <pt x="296" y="155" on="0"/>
      </contour>
    </TTGlyph>
    <TTGlyph name="D.1" xMin="50" yMin="-14" xMax="580" yMax="773">
      <component glyphName="D.0" x="0" y="-10" flags="0x204"/>
    </TTGlyph>
    <TTGlyph name="Dcaron" xMin="74" yMin="23" xMax="556" yMax="988">
      <component glyphName="uni030C" x="284" y="60" flags="0x1004"/>
      <component glyphName="D" x="0" y="0" flags="0x1204"/>
    </TTGlyph>
    <TTGlyph name="Dcaron.0" xMin="50" yMin="-4" xMax="580" yMax="1011">
      <contour>
        <pt x="215" y="1011" on="1"/>
        <pt x="286" y="843" on="1"/>
        <pt x="287" y="843" on="1"/>
        <pt x="362" y="843" on="1"/>
        <pt x="363" y="843" on="1"/>
        <pt x="415" y="1011" on="1"/>
        <pt x="339" y="1011" on="1"/>
        <pt x="319" y="903" on="1"/>
        <pt x="291" y="1011" on="1"/>
      </contour>
      <contour>
        <pt x="50" y="778" on="1"/>
        <pt x="50" y="-4" on="1"/>
        <pt x="202" y="-4" on="1"/>
        <pt x="305" y="-3" on="0"/>
        <pt x="392" y="50" on="1"/>
        <pt x="479" y="103" on="0"/>
        <pt x="530" y="193" on="1"/>
        <pt x="580" y="283" on="0"/>
        <pt x="580" y="390" on="1"/>
        <pt x="580" y="553" on="0"/>
        <pt x="468" y="668" on="1"/>
        <pt x="356" y="783" on="0"/>
        <pt x="198" y="783" on="1"/>
        <pt x="183" y="783" on="0"/>
        <pt x="124" y="778" on="1"/>
        <pt x="65" y="773" on="0"/>
      </contour>
      <contour>
        <pt x="202" y="153" on="1"/>
        <pt x="202" y="622" on="1"/>
        <pt x="296" y="620" on="0"/>
        <pt x="362" y="552" on="1"/>
        <pt x="427" y="484" on="0"/>
        <pt x="427" y="388" on="1"/>
        <pt x="427" y="292" on="0"/>
        <pt x="362" y="224" on="1"/>
        <pt x="296" y="155" on="0"/>
      </contour>
    </TTGlyph>
    <TTGlyph name="Dcaron.1" xMin="50" yMin="-14" xMax="580" yMax="1001">
      <component glyphName="Dcaron.0" x="0" y="-10" flags="0x204"/>
    </TTGlyph>
    <TTGlyph name="Dcroat" xMin="77" yMin="23" xMax="613" yMax="736">
      <component glyphName="Eth" x="0" y="0" flags="0x1204"/>
    </TTGlyph>
    <TTGlyph name="Dcroat.0" xMin="50" yMin="-14" xMax="640" yMax="773">
      <component glyphName="Eth.0" x="0" y="-10" flags="0x204"/>
    </TTGlyph>
    <TTGlyph name="E" xMin="76" yMin="34" xMax="592" yMax="741">
      <contour>
        <pt x="215" y="473" on="1"/>
        <pt x="213" y="473" on="0"/>
        <pt x="213" y="475" on="1"/>
        <pt x="213" y="602" on="1"/>
        <pt x="213" y="604" on="0"/>
        <pt x="215" y="604" on="1"/>
        <pt x="587" y="604" on="1"/>
        <pt x="586" y="737" on="1"/>
        <pt x="81" y="737" on="1"/>
        <pt x="81" y="736" on="0"/>
        <pt x="81" y="736" on="0"/>
        <pt x="81" y="735" on="1"/>
        <pt x="81" y="39" on="1"/>
        <pt x="81" y="39" on="0"/>
        <pt x="81" y="38" on="1"/>
        <pt x="587" y="38" on="1"/>
        <pt x="586" y="171" on="1"/>
        <pt x="215" y="171" on="1"/>
        <pt x="213" y="171" on="0"/>
        <pt x="213" y="173" on="1"/>
        <pt x="213" y="338" on="1"/>
        <pt x="213" y="341" on="0"/>
        <pt x="215" y="341" on="1"/>
        <pt x="490" y="341" on="1"/>
        <pt x="489" y="473" on="1"/>
      </contour>
      <contour>
        <pt x="492" y="336" on="1"/>
        <pt x="217" y="336" on="1"/>
        <pt x="217" y="175" on="1"/>
        <pt x="589" y="175" on="1"/>
        <pt x="591" y="175" on="0"/>
        <pt x="591" y="173" on="1"/>
        <pt x="592" y="36" on="1"/>
        <pt x="592" y="34" on="0"/>
        <pt x="590" y="34" on="1"/>
        <pt x="79" y="34" on="1"/>
        <pt x="78" y="34" on="0"/>
        <pt x="77" y="35" on="1"/>
        <pt x="76" y="36" on="0"/>
        <pt x="76" y="37" on="1"/>
        <pt x="76" y="735" on="1"/>
        <pt x="76" y="736" on="0"/>
        <pt x="76" y="736" on="1"/>
        <pt x="76" y="739" on="1"/>
        <pt x="76" y="741" on="0"/>
        <pt x="78" y="741" on="1"/>
        <pt x="589" y="741" on="1"/>
        <pt x="591" y="741" on="0"/>
        <pt x="591" y="739" on="1"/>
        <pt x="592" y="602" on="1"/>
        <pt x="592" y="600" on="0"/>
        <pt x="590" y="600" on="1"/>
        <pt x="217" y="600" on="1"/>
        <pt x="217" y="478" on="1"/>
        <pt x="492" y="478" on="1"/>
        <pt x="494" y="478" on="0"/>
        <pt x="494" y="475" on="1"/>
        <pt x="495" y="338" on="1"/>
        <pt x="495" y="336" on="0"/>
      </contour>
    </TTGlyph>
    <TTGlyph name="E.0" xMin="50" yMin="7" xMax="618" yMax="788">
      <contour>
        <pt x="509" y="495" on="1"/>
        <pt x="202" y="495" on="1"/>
        <pt x="202" y="636" on="1"/>
        <pt x="618" y="636" on="1"/>
        <pt x="617" y="788" on="1"/>
        <pt x="50" y="788" on="1"/>
        <pt x="50" y="784" on="1"/>
        <pt x="50" y="8" on="1"/>
        <pt x="51" y="8" on="1"/>
        <pt x="51" y="7" on="1"/>
        <pt x="618" y="7" on="1"/>
        <pt x="617" y="159" on="1"/>
        <pt x="202" y="159" on="1"/>
        <pt x="202" y="343" on="1"/>
        <pt x="510" y="343" on="1"/>
      </contour>
    </TTGlyph>
    <TTGlyph name="E.1" xMin="50" yMin="-3" xMax="618" yMax="778">
      <component glyphName="E.0" x="0" y="-10" flags="0x204"/>
    </TTGlyph>
    <TTGlyph name="Eacute" xMin="76" yMin="34" xMax="592" yMax="1083">
      <component glyphName="acutecomb" x="333" y="290" flags="0x1004"/>
      <component glyphName="E" x="0" y="0" flags="0x1204"/>
    </TTGlyph>
    <TTGlyph name="Eacute.0" xMin="50" yMin="7" xMax="618" yMax="1137">
      <contour>
        <pt x="333" y="848" on="1"/>
        <pt x="515" y="1030" on="1"/>
        <pt x="407" y="1137" on="1"/>
        <pt x="225" y="955" on="1"/>
      </contour>
      <contour>
        <pt x="509" y="495" on="1"/>
        <pt x="202" y="495" on="1"/>
        <pt x="202" y="636" on="1"/>
        <pt x="618" y="636" on="1"/>
        <pt x="617" y="788" on="1"/>
        <pt x="50" y="788" on="1"/>
        <pt x="50" y="784" on="1"/>
        <pt x="50" y="8" on="1"/>
        <pt x="51" y="8" on="1"/>
        <pt x="51" y="7" on="1"/>
        <pt x="618" y="7" on="1"/>
        <pt x="617" y="159" on="1"/>
        <pt x="202" y="159" on="1"/>
        <pt x="202" y="343" on="1"/>
        <pt x="510" y="343" on="1"/>
      </contour>
    </TTGlyph>
    <TTGlyph name="Eacute.1" xMin="50" yMin="-3" xMax="618" yMax="1127">
      <component glyphName="Eacute.0" x="0" y="-10" flags="0x204"/>
    </TTGlyph>
    <TTGlyph name="Ebreve" xMin="76" yMin="34" xMax="592" yMax="954">
      <component glyphName="uni0306" x="301" y="27" flags="0x1004"/>
      <component glyphName="E" x="0" y="0" flags="0x1204"/>
    </TTGlyph>
    <TTGlyph name="Ebreve.0" xMin="50" yMin="7" xMax="618" yMax="972">
      <contour>
        <pt x="462" y="972" on="1"/>
        <pt x="386" y="972" on="1"/>
        <pt x="388" y="964" on="0"/>
        <pt x="388" y="958" on="1"/>
        <pt x="388" y="936" on="0"/>
        <pt x="373" y="920" on="1"/>
        <pt x="357" y="904" on="0"/>
        <pt x="335" y="904" on="1"/>
        <pt x="312" y="904" on="0"/>
        <pt x="296" y="920" on="1"/>
        <pt x="280" y="936" on="0"/>
        <pt x="280" y="958" on="1"/>
        <pt x="280" y="964" on="0"/>
        <pt x="282" y="972" on="1"/>
        <pt x="206" y="972" on="1"/>
        <pt x="206" y="958" on="1"/>
        <pt x="206" y="904" on="0"/>
        <pt x="243" y="867" on="1"/>
        <pt x="280" y="830" on="0"/>
        <pt x="334" y="830" on="1"/>
        <pt x="388" y="830" on="0"/>
        <pt x="425" y="868" on="1"/>
        <pt x="462" y="905" on="0"/>
        <pt x="462" y="958" on="1"/>
        <pt x="462" y="972" on="0"/>
      </contour>
      <contour>
        <pt x="509" y="495" on="1"/>
        <pt x="202" y="495" on="1"/>
        <pt x="202" y="636" on="1"/>
        <pt x="618" y="636" on="1"/>
        <pt x="617" y="788" on="1"/>
        <pt x="50" y="788" on="1"/>
        <pt x="50" y="784" on="1"/>
        <pt x="50" y="8" on="1"/>
        <pt x="51" y="8" on="1"/>
        <pt x="51" y="7" on="1"/>
        <pt x="618" y="7" on="1"/>
        <pt x="617" y="159" on="1"/>
        <pt x="202" y="159" on="1"/>
        <pt x="202" y="343" on="1"/>
        <pt x="510" y="343" on="1"/>
      </contour>
    </TTGlyph>
    <TTGlyph name="Ebreve.1" xMin="50" yMin="-3" xMax="618" yMax="962">
      <component glyphName="Ebreve.0" x="0" y="-10" flags="0x204"/>
    </TTGlyph>
    <TTGlyph name="Ecaron" xMin="76" yMin="34" xMax="592" yMax="993">
      <component glyphName="uni030C" x="300" y="65" flags="0x1004"/>
      <component glyphName="E" x="0" y="0" flags="0x1204"/>
    </TTGlyph>
    <TTGlyph name="Ecaron.0" xMin="50" yMin="7" xMax="618" yMax="1016">
      <contour>
        <pt x="234" y="1016" on="1"/>
        <pt x="305" y="848" on="1"/>
        <pt x="306" y="848" on="1"/>
        <pt x="381" y="848" on="1"/>
        <pt x="382" y="848" on="1"/>
        <pt x="434" y="1016" on="1"/>
        <pt x="358" y="1016" on="1"/>
        <pt x="338" y="908" on="1"/>
        <pt x="310" y="1016" on="1"/>
      </contour>
      <contour>
        <pt x="509" y="495" on="1"/>
        <pt x="202" y="495" on="1"/>
        <pt x="202" y="636" on="1"/>
        <pt x="618" y="636" on="1"/>
        <pt x="617" y="788" on="1"/>
        <pt x="50" y="788" on="1"/>
        <pt x="50" y="784" on="1"/>
        <pt x="50" y="8" on="1"/>
        <pt x="51" y="8" on="1"/>
        <pt x="51" y="7" on="1"/>
        <pt x="618" y="7" on="1"/>
        <pt x="617" y="159" on="1"/>
        <pt x="202" y="159" on="1"/>
        <pt x="202" y="343" on="1"/>
        <pt x="510" y="343" on="1"/>
      </contour>
    </TTGlyph>
    <TTGlyph name="Ecaron.1" xMin="50" yMin="-3" xMax="618" yMax="1006">
      <component glyphName="Ecaron.0" x="0" y="-10" flags="0x204"/>
    </TTGlyph>
    <TTGlyph name="Ecircumflex" xMin="76" yMin="34" xMax="592" yMax="991">
      <component glyphName="uni0302" x="300" y="64" flags="0x1004"/>
      <component glyphName="E" x="0" y="0" flags="0x1204"/>
    </TTGlyph>
    <TTGlyph name="Ecircumflex.0" xMin="50" yMin="7" xMax="618" yMax="1016">
      <contour>
        <pt x="234" y="848" on="1"/>
        <pt x="310" y="848" on="1"/>
        <pt x="338" y="956" on="1"/>
        <pt x="358" y="848" on="1"/>
        <pt x="434" y="848" on="1"/>
        <pt x="382" y="1016" on="1"/>
        <pt x="381" y="1016" on="1"/>
        <pt x="306" y="1016" on="1"/>
        <pt x="305" y="1016" on="1"/>
      </contour>
      <contour>
        <pt x="509" y="495" on="1"/>
        <pt x="202" y="495" on="1"/>
        <pt x="202" y="636" on="1"/>
        <pt x="618" y="636" on="1"/>
        <pt x="617" y="788" on="1"/>
        <pt x="50" y="788" on="1"/>
        <pt x="50" y="784" on="1"/>
        <pt x="50" y="8" on="1"/>
        <pt x="51" y="8" on="1"/>
        <pt x="51" y="7" on="1"/>
        <pt x="618" y="7" on="1"/>
        <pt x="617" y="159" on="1"/>
        <pt x="202" y="159" on="1"/>
        <pt x="202" y="343" on="1"/>
        <pt x="510" y="343" on="1"/>
      </contour>
    </TTGlyph>
    <TTGlyph name="Ecircumflex.1" xMin="50" yMin="-3" xMax="618" yMax="1006">
      <component glyphName="Ecircumflex.0" x="0" y="-10" flags="0x204"/>
    </TTGlyph>
    <TTGlyph name="Edieresis" xMin="76" yMin="34" xMax="592" yMax="941">
      <component glyphName="uni0308" x="300" y="306" flags="0x1004"/>
      <component glyphName="E" x="0" y="0" flags="0x1204"/>
    </TTGlyph>
    <TTGlyph name="Edieresis.0" xMin="50" yMin="7" xMax="618" yMax="990">
      <contour>
        <pt x="358" y="848" on="1"/>
        <pt x="510" y="848" on="1"/>
        <pt x="510" y="990" on="1"/>
        <pt x="358" y="990" on="1"/>
      </contour>
      <contour>
        <pt x="158" y="848" on="1"/>
        <pt x="310" y="848" on="1"/>
        <pt x="310" y="990" on="1"/>
        <pt x="158" y="990" on="1"/>
      </contour>
      <contour>
        <pt x="509" y="495" on="1"/>
        <pt x="202" y="495" on="1"/>
        <pt x="202" y="636" on="1"/>
        <pt x="618" y="636" on="1"/>
        <pt x="617" y="788" on="1"/>
        <pt x="50" y="788" on="1"/>
        <pt x="50" y="784" on="1"/>
        <pt x="50" y="8" on="1"/>
        <pt x="51" y="8" on="1"/>
        <pt x="51" y="7" on="1"/>
        <pt x="618" y="7" on="1"/>
        <pt x="617" y="159" on="1"/>
        <pt x="202" y="159" on="1"/>
        <pt x="202" y="343" on="1"/>
        <pt x="510" y="343" on="1"/>
      </contour>
    </TTGlyph>
    <TTGlyph name="Edieresis.1" xMin="50" yMin="-3" xMax="618" yMax="980">
      <component glyphName="Edieresis.0" x="0" y="-10" flags="0x204"/>
    </TTGlyph>
    <TTGlyph name="Edotaccent" xMin="76" yMin="34" xMax="592" yMax="941">
      <component glyphName="uni0307" x="300" y="306" flags="0x1004"/>
      <component glyphName="E" x="0" y="0" flags="0x1204"/>
    </TTGlyph>
    <TTGlyph name="Edotaccent.0" xMin="50" yMin="7" xMax="618" yMax="990">
      <contour>
        <pt x="258" y="848" on="1"/>
        <pt x="410" y="848" on="1"/>
        <pt x="410" y="990" on="1"/>
        <pt x="258" y="990" on="1"/>
      </contour>
      <contour>
        <pt x="509" y="495" on="1"/>
        <pt x="202" y="495" on="1"/>
        <pt x="202" y="636" on="1"/>
        <pt x="618" y="636" on="1"/>
        <pt x="617" y="788" on="1"/>
        <pt x="50" y="788" on="1"/>
        <pt x="50" y="784" on="1"/>
        <pt x="50" y="8" on="1"/>
        <pt x="51" y="8" on="1"/>
        <pt x="51" y="7" on="1"/>
        <pt x="618" y="7" on="1"/>
        <pt x="617" y="159" on="1"/>
        <pt x="202" y="159" on="1"/>
        <pt x="202" y="343" on="1"/>
        <pt x="510" y="343" on="1"/>
      </contour>
    </TTGlyph>
    <TTGlyph name="Edotaccent.1" xMin="50" yMin="-3" xMax="618" yMax="980">
      <component glyphName="Edotaccent.0" x="0" y="-10" flags="0x204"/>
    </TTGlyph>
    <TTGlyph name="Egrave" xMin="76" yMin="34" xMax="592" yMax="1083">
      <component glyphName="gravecomb" x="267" y="290" flags="0x1004"/>
      <component glyphName="E" x="0" y="0" flags="0x1204"/>
    </TTGlyph>
    <TTGlyph name="Egrave.0" xMin="50" yMin="7" xMax="618" yMax="1137">
      <contour>
        <pt x="333" y="848" on="1"/>
        <pt x="441" y="955" on="1"/>
        <pt x="259" y="1137" on="1"/>
        <pt x="151" y="1030" on="1"/>
      </contour>
      <contour>
        <pt x="509" y="495" on="1"/>
        <pt x="202" y="495" on="1"/>
        <pt x="202" y="636" on="1"/>
        <pt x="618" y="636" on="1"/>
        <pt x="617" y="788" on="1"/>
        <pt x="50" y="788" on="1"/>
        <pt x="50" y="784" on="1"/>
        <pt x="50" y="8" on="1"/>
        <pt x="51" y="8" on="1"/>
        <pt x="51" y="7" on="1"/>
        <pt x="618" y="7" on="1"/>
        <pt x="617" y="159" on="1"/>
        <pt x="202" y="159" on="1"/>
        <pt x="202" y="343" on="1"/>
        <pt x="510" y="343" on="1"/>
      </contour>
    </TTGlyph>
    <TTGlyph name="Egrave.1" xMin="50" yMin="-3" xMax="618" yMax="1127">
      <component glyphName="Egrave.0" x="0" y="-10" flags="0x204"/>
    </TTGlyph>
    <TTGlyph name="Emacron" xMin="76" yMin="34" xMax="592" yMax="906">
      <component glyphName="uni0304" x="300" y="50" flags="0x1004"/>
      <component glyphName="E" x="0" y="0" flags="0x1204"/>
    </TTGlyph>
    <TTGlyph name="Emacron.0" xMin="50" yMin="7" xMax="618" yMax="924">
      <contour>
        <pt x="470" y="924" on="1"/>
        <pt x="198" y="924" on="1"/>
        <pt x="198" y="848" on="1"/>
        <pt x="470" y="848" on="1"/>
      </contour>
      <contour>
        <pt x="509" y="495" on="1"/>
        <pt x="202" y="495" on="1"/>
        <pt x="202" y="636" on="1"/>
        <pt x="618" y="636" on="1"/>
        <pt x="617" y="788" on="1"/>
        <pt x="50" y="788" on="1"/>
        <pt x="50" y="784" on="1"/>
        <pt x="50" y="8" on="1"/>
        <pt x="51" y="8" on="1"/>
        <pt x="51" y="7" on="1"/>
        <pt x="618" y="7" on="1"/>
        <pt x="617" y="159" on="1"/>
        <pt x="202" y="159" on="1"/>
        <pt x="202" y="343" on="1"/>
        <pt x="510" y="343" on="1"/>
      </contour>
    </TTGlyph>
    <TTGlyph name="Emacron.1" xMin="50" yMin="-3" xMax="618" yMax="914">
      <component glyphName="Emacron.0" x="0" y="-10" flags="0x204"/>
    </TTGlyph>
    <TTGlyph name="Eogonek" xMin="76" yMin="-233" xMax="592" yMax="741">
      <component glyphName="uni0328" x="494" y="-176" flags="0x1004"/>
      <component glyphName="E" x="0" y="0" flags="0x1004"/>
    </TTGlyph>
    <TTGlyph name="Eogonek.0" xMin="50" yMin="-253" xMax="619" yMax="788">
      <contour>
        <pt x="619" y="-253" on="1"/>
        <pt x="619" y="-176" on="1"/>
        <pt x="611" y="-178" on="0"/>
        <pt x="606" y="-178" on="1"/>
        <pt x="583" y="-178" on="0"/>
        <pt x="568" y="-162" on="1"/>
        <pt x="552" y="-147" on="0"/>
        <pt x="552" y="-125" on="1"/>
        <pt x="552" y="-103" on="0"/>
        <pt x="568" y="-87" on="1"/>
        <pt x="584" y="-71" on="0"/>
        <pt x="606" y="-71" on="1"/>
        <pt x="611" y="-71" on="0"/>
        <pt x="619" y="-73" on="1"/>
        <pt x="619" y="4" on="1"/>
        <pt x="606" y="4" on="1"/>
        <pt x="552" y="4" on="0"/>
        <pt x="515" y="-33" on="1"/>
        <pt x="477" y="-71" on="0"/>
        <pt x="477" y="-125" on="1"/>
        <pt x="477" y="-178" on="0"/>
        <pt x="515" y="-215" on="1"/>
        <pt x="552" y="-253" on="0"/>
        <pt x="606" y="-253" on="1"/>
        <pt x="619" y="-253" on="0"/>
      </contour>
      <contour>
        <pt x="509" y="495" on="1"/>
        <pt x="202" y="495" on="1"/>
        <pt x="202" y="636" on="1"/>
        <pt x="618" y="636" on="1"/>
        <pt x="617" y="788" on="1"/>
        <pt x="50" y="788" on="1"/>
        <pt x="50" y="784" on="1"/>
        <pt x="50" y="8" on="1"/>
        <pt x="51" y="8" on="1"/>
        <pt x="51" y="7" on="1"/>
        <pt x="618" y="7" on="1"/>
        <pt x="617" y="159" on="1"/>
        <pt x="202" y="159" on="1"/>
        <pt x="202" y="343" on="1"/>
        <pt x="510" y="343" on="1"/>
      </contour>
    </TTGlyph>
    <TTGlyph name="Eogonek.1" xMin="50" yMin="-263" xMax="619" yMax="778">
      <component glyphName="Eogonek.0" x="0" y="-10" flags="0x204"/>
    </TTGlyph>
    <TTGlyph name="Eth" xMin="77" yMin="23" xMax="613" yMax="736">
      <contour>
        <pt x="273" y="345" on="1"/>
        <pt x="273" y="169" on="1"/>
        <pt x="355" y="171" on="0"/>
        <pt x="471" y="293" on="0"/>
        <pt x="471" y="378" on="1"/>
        <pt x="471" y="463" on="0"/>
        <pt x="355" y="584" on="0"/>
        <pt x="273" y="586" on="1"/>
        <pt x="273" y="487" on="1"/>
        <pt x="323" y="487" on="1"/>
        <pt x="326" y="487" on="0"/>
        <pt x="326" y="484" on="1"/>
        <pt x="326" y="348" on="1"/>
        <pt x="326" y="345" on="0"/>
        <pt x="323" y="345" on="1"/>
      </contour>
      <contour>
        <pt x="268" y="167" on="1"/>
        <pt x="268" y="348" on="1"/>
        <pt x="268" y="350" on="0"/>
        <pt x="270" y="350" on="1"/>
        <pt x="321" y="350" on="1"/>
        <pt x="321" y="482" on="1"/>
        <pt x="270" y="482" on="1"/>
        <pt x="268" y="482" on="0"/>
        <pt x="268" y="484" on="1"/>
        <pt x="268" y="589" on="1"/>
        <pt x="268" y="591" on="0"/>
        <pt x="270" y="591" on="1"/>
        <pt x="356" y="589" on="0"/>
        <pt x="475" y="465" on="0"/>
        <pt x="475" y="378" on="1"/>
        <pt x="475" y="290" on="0"/>
        <pt x="356" y="166" on="0"/>
        <pt x="270" y="164" on="1"/>
        <pt x="268" y="164" on="0"/>
      </contour>
      <contour>
        <pt x="267" y="731" on="1"/>
        <pt x="250" y="731" on="0"/>
        <pt x="181" y="725" on="0"/>
        <pt x="164" y="725" on="1"/>
        <pt x="149" y="725" on="0"/>
        <pt x="136" y="727" on="1"/>
        <pt x="136" y="484" on="1"/>
        <pt x="136" y="482" on="0"/>
        <pt x="134" y="482" on="1"/>
        <pt x="82" y="482" on="1"/>
        <pt x="82" y="350" on="1"/>
        <pt x="134" y="350" on="1"/>
        <pt x="136" y="350" on="0"/>
        <pt x="136" y="348" on="1"/>
        <pt x="136" y="28" on="1"/>
        <pt x="270" y="28" on="1"/>
        <pt x="362" y="29" on="0"/>
        <pt x="518" y="123" on="0"/>
        <pt x="608" y="285" on="0"/>
        <pt x="608" y="475" on="0"/>
        <pt x="517" y="637" on="0"/>
        <pt x="359" y="731" on="0"/>
      </contour>
      <contour>
        <pt x="164" y="729" on="1"/>
        <pt x="181" y="729" on="0"/>
        <pt x="249" y="736" on="0"/>
        <pt x="267" y="736" on="1"/>
        <pt x="361" y="736" on="0"/>
        <pt x="520" y="641" on="0"/>
        <pt x="613" y="477" on="0"/>
        <pt x="613" y="380" on="1"/>
        <pt x="613" y="283" on="0"/>
        <pt x="521" y="120" on="0"/>
        <pt x="364" y="24" on="0"/>
        <pt x="270" y="23" on="1"/>
        <pt x="134" y="23" on="1"/>
        <pt x="131" y="23" on="0"/>
        <pt x="131" y="25" on="1"/>
        <pt x="131" y="345" on="1"/>
        <pt x="80" y="345" on="1"/>
        <pt x="77" y="345" on="0"/>
        <pt x="77" y="348" on="1"/>
        <pt x="77" y="484" on="1"/>
        <pt x="77" y="487" on="0"/>
        <pt x="80" y="487" on="1"/>
        <pt x="131" y="487" on="1"/>
        <pt x="131" y="729" on="1"/>
        <pt x="131" y="731" on="0"/>
        <pt x="134" y="731" on="1"/>
        <pt x="148" y="729" on="0"/>
      </contour>
    </TTGlyph>
    <TTGlyph name="Eth.0" xMin="50" yMin="-4" xMax="640" yMax="783">
      <contour>
        <pt x="262" y="153" on="1"/>
        <pt x="262" y="354" on="1"/>
        <pt x="321" y="354" on="1"/>
        <pt x="321" y="506" on="1"/>
        <pt x="262" y="506" on="1"/>
        <pt x="262" y="622" on="1"/>
        <pt x="356" y="620" on="0"/>
        <pt x="422" y="552" on="1"/>
        <pt x="487" y="484" on="0"/>
        <pt x="487" y="388" on="1"/>
        <pt x="487" y="292" on="0"/>
        <pt x="422" y="224" on="1"/>
        <pt x="356" y="155" on="0"/>
      </contour>
      <contour>
        <pt x="110" y="778" on="1"/>
        <pt x="110" y="506" on="1"/>
        <pt x="50" y="506" on="1"/>
        <pt x="50" y="354" on="1"/>
        <pt x="110" y="354" on="1"/>
        <pt x="110" y="-4" on="1"/>
        <pt x="262" y="-4" on="1"/>
        <pt x="365" y="-3" on="0"/>
        <pt x="452" y="50" on="1"/>
        <pt x="539" y="103" on="0"/>
        <pt x="590" y="193" on="1"/>
        <pt x="640" y="283" on="0"/>
        <pt x="640" y="390" on="1"/>
        <pt x="640" y="553" on="0"/>
        <pt x="528" y="668" on="1"/>
        <pt x="416" y="783" on="0"/>
        <pt x="258" y="783" on="1"/>
        <pt x="243" y="783" on="0"/>
        <pt x="184" y="778" on="1"/>
        <pt x="125" y="773" on="0"/>
      </contour>
    </TTGlyph>
    <TTGlyph name="Eth.1" xMin="50" yMin="-14" xMax="640" yMax="773">
      <component glyphName="Eth.0" x="0" y="-10" flags="0x204"/>
    </TTGlyph>
    <TTGlyph name="F" xMin="76" yMin="35" xMax="592" yMax="741">
      <contour>
        <pt x="215" y="473" on="1"/>
        <pt x="213" y="473" on="0"/>
        <pt x="213" y="475" on="1"/>
        <pt x="213" y="602" on="1"/>
        <pt x="213" y="604" on="0"/>
        <pt x="215" y="604" on="1"/>
        <pt x="587" y="604" on="1"/>
        <pt x="586" y="737" on="1"/>
        <pt x="81" y="737" on="1"/>
        <pt x="81" y="737" on="0"/>
        <pt x="81" y="736" on="0"/>
        <pt x="81" y="735" on="1"/>
        <pt x="81" y="39" on="1"/>
        <pt x="213" y="39" on="1"/>
        <pt x="213" y="338" on="1"/>
        <pt x="213" y="341" on="0"/>
        <pt x="215" y="341" on="1"/>
        <pt x="490" y="341" on="1"/>
        <pt x="489" y="473" on="1"/>
      </contour>
      <contour>
        <pt x="492" y="336" on="1"/>
        <pt x="217" y="336" on="1"/>
        <pt x="217" y="37" on="1"/>
        <pt x="217" y="35" on="0"/>
        <pt x="215" y="35" on="1"/>
        <pt x="78" y="35" on="1"/>
        <pt x="76" y="35" on="0"/>
        <pt x="76" y="37" on="1"/>
        <pt x="76" y="735" on="1"/>
        <pt x="76" y="736" on="0"/>
        <pt x="76" y="736" on="1"/>
        <pt x="76" y="739" on="1"/>
        <pt x="76" y="741" on="0"/>
        <pt x="78" y="741" on="1"/>
        <pt x="589" y="741" on="1"/>
        <pt x="591" y="741" on="0"/>
        <pt x="591" y="739" on="1"/>
        <pt x="592" y="602" on="1"/>
        <pt x="592" y="600" on="0"/>
        <pt x="590" y="600" on="1"/>
        <pt x="217" y="600" on="1"/>
        <pt x="217" y="478" on="1"/>
        <pt x="492" y="478" on="1"/>
        <pt x="494" y="478" on="0"/>
        <pt x="494" y="475" on="1"/>
        <pt x="495" y="339" on="1"/>
        <pt x="495" y="336" on="0"/>
      </contour>
    </TTGlyph>
    <TTGlyph name="F.0" xMin="50" yMin="8" xMax="618" yMax="788">
      <contour>
        <pt x="509" y="495" on="1"/>
        <pt x="202" y="495" on="1"/>
        <pt x="202" y="636" on="1"/>
        <pt x="618" y="636" on="1"/>
        <pt x="617" y="788" on="1"/>
        <pt x="50" y="788" on="1"/>
        <pt x="50" y="784" on="1"/>
        <pt x="50" y="8" on="1"/>
        <pt x="202" y="8" on="1"/>
        <pt x="202" y="343" on="1"/>
        <pt x="510" y="343" on="1"/>
      </contour>
    </TTGlyph>
    <TTGlyph name="F.1" xMin="50" yMin="-2" xMax="618" yMax="778">
      <component glyphName="F.0" x="0" y="-10" flags="0x204"/>
    </TTGlyph>
    <TTGlyph name="G" xMin="75" yMin="23" xMax="576" yMax="736">
      <contour>
        <pt x="421" y="28" on="1"/>
        <pt x="424" y="28" on="0"/>
        <pt x="434" y="28" on="0"/>
        <pt x="437" y="28" on="1"/>
        <pt x="437" y="28" on="0"/>
        <pt x="438" y="28" on="1"/>
        <pt x="571" y="28" on="1"/>
        <pt x="571" y="317" on="1"/>
        <pt x="439" y="317" on="1"/>
        <pt x="439" y="167" on="1"/>
        <pt x="439" y="165" on="0"/>
        <pt x="437" y="165" on="1"/>
        <pt x="429" y="164" on="0"/>
        <pt x="421" y="164" on="1"/>
        <pt x="335" y="164" on="0"/>
        <pt x="213" y="289" on="0"/>
        <pt x="213" y="378" on="1"/>
        <pt x="213" y="466" on="0"/>
        <pt x="335" y="591" on="0"/>
        <pt x="421" y="591" on="1"/>
        <pt x="454" y="591" on="0"/>
        <pt x="485" y="581" on="1"/>
        <pt x="485" y="725" on="1"/>
        <pt x="453" y="731" on="0"/>
        <pt x="421" y="731" on="1"/>
        <pt x="329" y="731" on="0"/>
        <pt x="171" y="637" on="0"/>
        <pt x="80" y="475" on="0"/>
        <pt x="80" y="380" on="1"/>
        <pt x="80" y="284" on="0"/>
        <pt x="171" y="122" on="0"/>
        <pt x="329" y="28" on="0"/>
      </contour>
      <contour>
        <pt x="421" y="586" on="1"/>
        <pt x="337" y="586" on="0"/>
        <pt x="218" y="464" on="0"/>
        <pt x="218" y="378" on="1"/>
        <pt x="218" y="291" on="0"/>
        <pt x="337" y="169" on="0"/>
        <pt x="421" y="169" on="1"/>
        <pt x="428" y="169" on="0"/>
        <pt x="434" y="169" on="1"/>
        <pt x="434" y="320" on="1"/>
        <pt x="434" y="322" on="0"/>
        <pt x="437" y="322" on="1"/>
        <pt x="573" y="322" on="1"/>
        <pt x="576" y="322" on="0"/>
        <pt x="576" y="320" on="1"/>
        <pt x="576" y="25" on="1"/>
        <pt x="576" y="23" on="0"/>
        <pt x="573" y="23" on="1"/>
        <pt x="437" y="23" on="1"/>
        <pt x="436" y="23" on="0"/>
        <pt x="436" y="23" on="1"/>
        <pt x="428" y="23" on="0"/>
        <pt x="421" y="23" on="1"/>
        <pt x="327" y="23" on="0"/>
        <pt x="168" y="118" on="0"/>
        <pt x="75" y="283" on="0"/>
        <pt x="75" y="380" on="1"/>
        <pt x="75" y="477" on="0"/>
        <pt x="168" y="641" on="0"/>
        <pt x="327" y="736" on="0"/>
        <pt x="421" y="736" on="1"/>
        <pt x="455" y="736" on="0"/>
        <pt x="487" y="729" on="1"/>
        <pt x="489" y="729" on="0"/>
        <pt x="489" y="727" on="1"/>
        <pt x="489" y="578" on="1"/>
        <pt x="489" y="576" on="0"/>
        <pt x="487" y="576" on="1"/>
        <pt x="487" y="576" on="0"/>
        <pt x="486" y="576" on="1"/>
        <pt x="455" y="586" on="0"/>
      </contour>
    </TTGlyph>
    <TTGlyph name="G.0" xMin="50" yMin="-4" xMax="601" yMax="783">
      <contour>
        <pt x="432" y="622" on="1"/>
        <pt x="470" y="622" on="0"/>
        <pt x="505" y="610" on="1"/>
        <pt x="505" y="776" on="1"/>
        <pt x="469" y="783" on="0"/>
        <pt x="432" y="783" on="1"/>
        <pt x="274" y="783" on="0"/>
        <pt x="162" y="668" on="1"/>
        <pt x="50" y="553" on="0"/>
        <pt x="50" y="390" on="1"/>
        <pt x="50" y="227" on="0"/>
        <pt x="162" y="112" on="1"/>
        <pt x="274" y="-4" on="0"/>
        <pt x="432" y="-4" on="1"/>
        <pt x="441" y="-4" on="0"/>
        <pt x="449" y="-4" on="1"/>
        <pt x="601" y="-4" on="1"/>
        <pt x="601" y="323" on="1"/>
        <pt x="449" y="323" on="1"/>
        <pt x="449" y="154" on="1"/>
        <pt x="441" y="153" on="0"/>
        <pt x="432" y="153" on="1"/>
        <pt x="337" y="153" on="0"/>
        <pt x="270" y="222" on="1"/>
        <pt x="203" y="290" on="0"/>
        <pt x="203" y="388" on="1"/>
        <pt x="203" y="485" on="0"/>
        <pt x="270" y="554" on="1"/>
        <pt x="337" y="622" on="0"/>
      </contour>
    </TTGlyph>
    <TTGlyph name="G.1" xMin="50" yMin="-14" xMax="601" yMax="773">
      <component glyphName="G.0" x="0" y="-10" flags="0x204"/>
    </TTGlyph>
    <TTGlyph name="Gbreve" xMin="75" yMin="23" xMax="576" yMax="950">
      <component glyphName="uni0306" x="389" y="23" flags="0x1004"/>
      <component glyphName="G" x="0" y="0" flags="0x1204"/>
    </TTGlyph>
    <TTGlyph name="Gbreve.0" xMin="50" yMin="-4" xMax="601" yMax="967">
      <contour>
        <pt x="560" y="967" on="1"/>
        <pt x="484" y="967" on="1"/>
        <pt x="486" y="959" on="0"/>
        <pt x="486" y="953" on="1"/>
        <pt x="486" y="931" on="0"/>
        <pt x="471" y="915" on="1"/>
        <pt x="455" y="899" on="0"/>
        <pt x="433" y="899" on="1"/>
        <pt x="410" y="899" on="0"/>
        <pt x="394" y="915" on="1"/>
        <pt x="378" y="931" on="0"/>
        <pt x="378" y="953" on="1"/>
        <pt x="378" y="959" on="0"/>
        <pt x="380" y="967" on="1"/>
        <pt x="304" y="967" on="1"/>
        <pt x="304" y="953" on="1"/>
        <pt x="304" y="899" on="0"/>
        <pt x="341" y="862" on="1"/>
        <pt x="378" y="825" on="0"/>
        <pt x="432" y="825" on="1"/>
        <pt x="486" y="825" on="0"/>
        <pt x="523" y="863" on="1"/>
        <pt x="560" y="900" on="0"/>
        <pt x="560" y="953" on="1"/>
        <pt x="560" y="967" on="0"/>
      </contour>
      <contour>
        <pt x="432" y="622" on="1"/>
        <pt x="470" y="622" on="0"/>
        <pt x="505" y="610" on="1"/>
        <pt x="505" y="776" on="1"/>
        <pt x="469" y="783" on="0"/>
        <pt x="432" y="783" on="1"/>
        <pt x="274" y="783" on="0"/>
        <pt x="162" y="668" on="1"/>
        <pt x="50" y="553" on="0"/>
        <pt x="50" y="390" on="1"/>
        <pt x="50" y="227" on="0"/>
        <pt x="162" y="112" on="1"/>
        <pt x="274" y="-4" on="0"/>
        <pt x="432" y="-4" on="1"/>
        <pt x="441" y="-4" on="0"/>
        <pt x="449" y="-4" on="1"/>
        <pt x="601" y="-4" on="1"/>
        <pt x="601" y="323" on="1"/>
        <pt x="449" y="323" on="1"/>
        <pt x="449" y="154" on="1"/>
        <pt x="441" y="153" on="0"/>
        <pt x="432" y="153" on="1"/>
        <pt x="337" y="153" on="0"/>
        <pt x="270" y="222" on="1"/>
        <pt x="203" y="290" on="0"/>
        <pt x="203" y="388" on="1"/>
        <pt x="203" y="485" on="0"/>
        <pt x="270" y="554" on="1"/>
        <pt x="337" y="622" on="0"/>
      </contour>
    </TTGlyph>
    <TTGlyph name="Gbreve.1" xMin="50" yMin="-14" xMax="601" yMax="957">
      <component glyphName="Gbreve.0" x="0" y="-10" flags="0x204"/>
    </TTGlyph>
    <TTGlyph name="Gcircumflex" xMin="75" yMin="23" xMax="576" yMax="987">
      <component glyphName="uni0302" x="389" y="60" flags="0x1004"/>
      <component glyphName="G" x="0" y="0" flags="0x1204"/>
    </TTGlyph>
    <TTGlyph name="Gcircumflex.0" xMin="50" yMin="-4" xMax="601" yMax="1010">
      <contour>
        <pt x="332" y="842" on="1"/>
        <pt x="408" y="842" on="1"/>
        <pt x="436" y="950" on="1"/>
        <pt x="456" y="842" on="1"/>
        <pt x="532" y="842" on="1"/>
        <pt x="480" y="1010" on="1"/>
        <pt x="479" y="1010" on="1"/>
        <pt x="404" y="1010" on="1"/>
        <pt x="403" y="1010" on="1"/>
      </contour>
      <contour>
        <pt x="432" y="622" on="1"/>
        <pt x="470" y="622" on="0"/>
        <pt x="505" y="610" on="1"/>
        <pt x="505" y="776" on="1"/>
        <pt x="469" y="783" on="0"/>
        <pt x="432" y="783" on="1"/>
        <pt x="274" y="783" on="0"/>
        <pt x="162" y="668" on="1"/>
        <pt x="50" y="553" on="0"/>
        <pt x="50" y="390" on="1"/>
        <pt x="50" y="227" on="0"/>
        <pt x="162" y="112" on="1"/>
        <pt x="274" y="-4" on="0"/>
        <pt x="432" y="-4" on="1"/>
        <pt x="441" y="-4" on="0"/>
        <pt x="449" y="-4" on="1"/>
        <pt x="601" y="-4" on="1"/>
        <pt x="601" y="323" on="1"/>
        <pt x="449" y="323" on="1"/>
        <pt x="449" y="154" on="1"/>
        <pt x="441" y="153" on="0"/>
        <pt x="432" y="153" on="1"/>
        <pt x="337" y="153" on="0"/>
        <pt x="270" y="222" on="1"/>
        <pt x="203" y="290" on="0"/>
        <pt x="203" y="388" on="1"/>
        <pt x="203" y="485" on="0"/>
        <pt x="270" y="554" on="1"/>
        <pt x="337" y="622" on="0"/>
      </contour>
    </TTGlyph>
    <TTGlyph name="Gcircumflex.1" xMin="50" yMin="-14" xMax="601" yMax="1000">
      <component glyphName="Gcircumflex.0" x="0" y="-10" flags="0x204"/>
    </TTGlyph>
    <TTGlyph name="Gdotaccent" xMin="75" yMin="23" xMax="576" yMax="937">
      <component glyphName="uni0307" x="389" y="302" flags="0x1004"/>
      <component glyphName="G" x="0" y="0" flags="0x1204"/>
    </TTGlyph>
    <TTGlyph name="Gdotaccent.0" xMin="50" yMin="-4" xMax="601" yMax="985">
      <contour>
        <pt x="356" y="843" on="1"/>
        <pt x="508" y="843" on="1"/>
        <pt x="508" y="985" on="1"/>
        <pt x="356" y="985" on="1"/>
      </contour>
      <contour>
        <pt x="432" y="622" on="1"/>
        <pt x="470" y="622" on="0"/>
        <pt x="505" y="610" on="1"/>
        <pt x="505" y="776" on="1"/>
        <pt x="469" y="783" on="0"/>
        <pt x="432" y="783" on="1"/>
        <pt x="274" y="783" on="0"/>
        <pt x="162" y="668" on="1"/>
        <pt x="50" y="553" on="0"/>
        <pt x="50" y="390" on="1"/>
        <pt x="50" y="227" on="0"/>
        <pt x="162" y="112" on="1"/>
        <pt x="274" y="-4" on="0"/>
        <pt x="432" y="-4" on="1"/>
        <pt x="441" y="-4" on="0"/>
        <pt x="449" y="-4" on="1"/>
        <pt x="601" y="-4" on="1"/>
        <pt x="601" y="323" on="1"/>
        <pt x="449" y="323" on="1"/>
        <pt x="449" y="154" on="1"/>
        <pt x="441" y="153" on="0"/>
        <pt x="432" y="153" on="1"/>
        <pt x="337" y="153" on="0"/>
        <pt x="270" y="222" on="1"/>
        <pt x="203" y="290" on="0"/>
        <pt x="203" y="388" on="1"/>
        <pt x="203" y="485" on="0"/>
        <pt x="270" y="554" on="1"/>
        <pt x="337" y="622" on="0"/>
      </contour>
    </TTGlyph>
    <TTGlyph name="Gdotaccent.1" xMin="50" yMin="-14" xMax="601" yMax="975">
      <component glyphName="Gdotaccent.0" x="0" y="-10" flags="0x204"/>
    </TTGlyph>
    <TTGlyph name="H" xMin="75" yMin="35" xMax="577" yMax="737">
      <contour>
        <pt x="572" y="733" on="1"/>
        <pt x="440" y="733" on="1"/>
        <pt x="440" y="475" on="1"/>
        <pt x="440" y="473" on="0"/>
        <pt x="438" y="473" on="1"/>
        <pt x="214" y="473" on="1"/>
        <pt x="212" y="473" on="0"/>
        <pt x="212" y="475" on="1"/>
        <pt x="212" y="733" on="1"/>
        <pt x="80" y="733" on="1"/>
        <pt x="80" y="39" on="1"/>
        <pt x="212" y="39" on="1"/>
        <pt x="212" y="338" on="1"/>
        <pt x="212" y="341" on="0"/>
        <pt x="214" y="341" on="1"/>
        <pt x="438" y="341" on="1"/>
        <pt x="440" y="341" on="0"/>
        <pt x="440" y="338" on="1"/>
        <pt x="440" y="39" on="1"/>
        <pt x="572" y="39" on="1"/>
      </contour>
      <contour>
        <pt x="438" y="737" on="1"/>
        <pt x="574" y="737" on="1"/>
        <pt x="577" y="737" on="0"/>
        <pt x="577" y="735" on="1"/>
        <pt x="577" y="37" on="1"/>
        <pt x="577" y="35" on="0"/>
        <pt x="574" y="35" on="1"/>
        <pt x="438" y="35" on="1"/>
        <pt x="435" y="35" on="0"/>
        <pt x="435" y="37" on="1"/>
        <pt x="435" y="336" on="1"/>
        <pt x="217" y="336" on="1"/>
        <pt x="217" y="37" on="1"/>
        <pt x="217" y="35" on="0"/>
        <pt x="214" y="35" on="1"/>
        <pt x="78" y="35" on="1"/>
        <pt x="75" y="35" on="0"/>
        <pt x="75" y="37" on="1"/>
        <pt x="75" y="735" on="1"/>
        <pt x="75" y="737" on="0"/>
        <pt x="78" y="737" on="1"/>
        <pt x="214" y="737" on="1"/>
        <pt x="217" y="737" on="0"/>
        <pt x="217" y="735" on="1"/>
        <pt x="217" y="477" on="1"/>
        <pt x="435" y="477" on="1"/>
        <pt x="435" y="735" on="1"/>
        <pt x="435" y="737" on="0"/>
      </contour>
    </TTGlyph>
    <TTGlyph name="H.0" xMin="50" yMin="8" xMax="602" yMax="784">
      <contour>
        <pt x="450" y="784" on="1"/>
        <pt x="450" y="495" on="1"/>
        <pt x="202" y="495" on="1"/>
        <pt x="202" y="784" on="1"/>
        <pt x="50" y="784" on="1"/>
        <pt x="50" y="8" on="1"/>
        <pt x="202" y="8" on="1"/>
        <pt x="202" y="343" on="1"/>
        <pt x="450" y="343" on="1"/>
        <pt x="450" y="8" on="1"/>
        <pt x="602" y="8" on="1"/>
        <pt x="602" y="784" on="1"/>
      </contour>
    </TTGlyph>
    <TTGlyph name="H.1" xMin="50" yMin="-2" xMax="602" yMax="774">
      <component glyphName="H.0" x="0" y="-10" flags="0x204"/>
    </TTGlyph>
    <TTGlyph name="Hbar" xMin="30" yMin="35" xMax="617" yMax="737">
      <contour>
        <pt x="572" y="733" on="1"/>
        <pt x="440" y="733" on="1"/>
        <pt x="440" y="680" on="1"/>
        <pt x="440" y="678" on="0"/>
        <pt x="437" y="678" on="1"/>
        <pt x="214" y="678" on="1"/>
        <pt x="212" y="678" on="0"/>
        <pt x="212" y="680" on="1"/>
        <pt x="212" y="733" on="1"/>
        <pt x="80" y="733" on="1"/>
        <pt x="80" y="680" on="1"/>
        <pt x="80" y="678" on="0"/>
        <pt x="77" y="678" on="1"/>
        <pt x="35" y="678" on="1"/>
        <pt x="35" y="546" on="1"/>
        <pt x="77" y="546" on="1"/>
        <pt x="80" y="546" on="0"/>
        <pt x="80" y="544" on="1"/>
        <pt x="80" y="39" on="1"/>
        <pt x="212" y="39" on="1"/>
        <pt x="212" y="338" on="1"/>
        <pt x="212" y="341" on="0"/>
        <pt x="214" y="341" on="1"/>
        <pt x="437" y="341" on="1"/>
        <pt x="440" y="341" on="0"/>
        <pt x="440" y="338" on="1"/>
        <pt x="440" y="39" on="1"/>
        <pt x="572" y="39" on="1"/>
        <pt x="572" y="544" on="1"/>
        <pt x="572" y="546" on="0"/>
        <pt x="574" y="546" on="1"/>
        <pt x="612" y="546" on="1"/>
        <pt x="612" y="678" on="1"/>
        <pt x="574" y="678" on="1"/>
        <pt x="572" y="678" on="0"/>
        <pt x="572" y="680" on="1"/>
      </contour>
      <contour>
        <pt x="437" y="737" on="1"/>
        <pt x="574" y="737" on="1"/>
        <pt x="576" y="737" on="0"/>
        <pt x="576" y="735" on="1"/>
        <pt x="576" y="683" on="1"/>
        <pt x="615" y="683" on="1"/>
        <pt x="617" y="683" on="0"/>
        <pt x="617" y="680" on="1"/>
        <pt x="617" y="544" on="1"/>
        <pt x="617" y="541" on="0"/>
        <pt x="615" y="541" on="1"/>
        <pt x="576" y="541" on="1"/>
        <pt x="576" y="37" on="1"/>
        <pt x="576" y="35" on="0"/>
        <pt x="574" y="35" on="1"/>
        <pt x="437" y="35" on="1"/>
        <pt x="435" y="35" on="0"/>
        <pt x="435" y="37" on="1"/>
        <pt x="435" y="336" on="1"/>
        <pt x="216" y="336" on="1"/>
        <pt x="216" y="37" on="1"/>
        <pt x="216" y="35" on="0"/>
        <pt x="214" y="35" on="1"/>
        <pt x="77" y="35" on="1"/>
        <pt x="75" y="35" on="0"/>
        <pt x="75" y="37" on="1"/>
        <pt x="75" y="541" on="1"/>
        <pt x="32" y="541" on="1"/>
        <pt x="30" y="541" on="0"/>
        <pt x="30" y="544" on="1"/>
        <pt x="30" y="680" on="1"/>
        <pt x="30" y="683" on="0"/>
        <pt x="32" y="683" on="1"/>
        <pt x="75" y="683" on="1"/>
        <pt x="75" y="735" on="1"/>
        <pt x="75" y="737" on="0"/>
        <pt x="77" y="737" on="1"/>
        <pt x="214" y="737" on="1"/>
        <pt x="216" y="737" on="0"/>
        <pt x="216" y="735" on="1"/>
        <pt x="216" y="683" on="1"/>
        <pt x="435" y="683" on="1"/>
        <pt x="435" y="735" on="1"/>
        <pt x="435" y="737" on="0"/>
      </contour>
      <contour>
        <pt x="435" y="541" on="1"/>
        <pt x="216" y="541" on="1"/>
        <pt x="216" y="477" on="1"/>
        <pt x="435" y="477" on="1"/>
      </contour>
      <contour>
        <pt x="214" y="546" on="1"/>
        <pt x="437" y="546" on="1"/>
        <pt x="440" y="546" on="0"/>
        <pt x="440" y="544" on="1"/>
        <pt x="440" y="475" on="1"/>
        <pt x="440" y="473" on="0"/>
        <pt x="437" y="473" on="1"/>
        <pt x="214" y="473" on="1"/>
        <pt x="212" y="473" on="0"/>
        <pt x="212" y="475" on="1"/>
        <pt x="212" y="544" on="1"/>
        <pt x="212" y="546" on="0"/>
      </contour>
    </TTGlyph>
    <TTGlyph name="Hbar.0" xMin="0" yMin="8" xMax="647" yMax="784">
      <contour>
        <pt x="450" y="784" on="1"/>
        <pt x="450" y="723" on="1"/>
        <pt x="202" y="723" on="1"/>
        <pt x="202" y="784" on="1"/>
        <pt x="50" y="784" on="1"/>
        <pt x="50" y="723" on="1"/>
        <pt x="0" y="723" on="1"/>
        <pt x="0" y="571" on="1"/>
        <pt x="50" y="571" on="1"/>
        <pt x="50" y="8" on="1"/>
        <pt x="202" y="8" on="1"/>
        <pt x="202" y="343" on="1"/>
        <pt x="450" y="343" on="1"/>
        <pt x="450" y="8" on="1"/>
        <pt x="602" y="8" on="1"/>
        <pt x="602" y="571" on="1"/>
        <pt x="647" y="571" on="1"/>
        <pt x="647" y="723" on="1"/>
        <pt x="602" y="723" on="1"/>
        <pt x="602" y="784" on="1"/>
      </contour>
      <contour>
        <pt x="202" y="571" on="1"/>
        <pt x="450" y="571" on="1"/>
        <pt x="450" y="495" on="1"/>
        <pt x="202" y="495" on="1"/>
      </contour>
    </TTGlyph>
    <TTGlyph name="Hbar.1" xMin="0" yMin="-2" xMax="647" yMax="774">
      <component glyphName="Hbar.0" x="0" y="-10" flags="0x204"/>
    </TTGlyph>
    <TTGlyph name="Hcircumflex" xMin="75" yMin="35" xMax="577" yMax="988">
      <component glyphName="uni0302" x="293" y="61" flags="0x1004"/>
      <component glyphName="H" x="0" y="0" flags="0x1204"/>
    </TTGlyph>
    <TTGlyph name="Hcircumflex.0" xMin="50" yMin="8" xMax="602" yMax="1012">
      <contour>
        <pt x="226" y="844" on="1"/>
        <pt x="302" y="844" on="1"/>
        <pt x="330" y="952" on="1"/>
        <pt x="350" y="844" on="1"/>
        <pt x="426" y="844" on="1"/>
        <pt x="374" y="1012" on="1"/>
        <pt x="373" y="1012" on="1"/>
        <pt x="298" y="1012" on="1"/>
        <pt x="297" y="1012" on="1"/>
      </contour>
      <contour>
        <pt x="450" y="784" on="1"/>
        <pt x="450" y="495" on="1"/>
        <pt x="202" y="495" on="1"/>
        <pt x="202" y="784" on="1"/>
        <pt x="50" y="784" on="1"/>
        <pt x="50" y="8" on="1"/>
        <pt x="202" y="8" on="1"/>
        <pt x="202" y="343" on="1"/>
        <pt x="450" y="343" on="1"/>
        <pt x="450" y="8" on="1"/>
        <pt x="602" y="8" on="1"/>
        <pt x="602" y="784" on="1"/>
      </contour>
    </TTGlyph>
    <TTGlyph name="Hcircumflex.1" xMin="50" yMin="-2" xMax="602" yMax="1002">
      <component glyphName="Hcircumflex.0" x="0" y="-10" flags="0x204"/>
    </TTGlyph>
    <TTGlyph name="I" xMin="55" yMin="35" xMax="197" yMax="737">
      <contour>
        <pt x="192" y="733" on="1"/>
        <pt x="60" y="733" on="1"/>
        <pt x="60" y="39" on="1"/>
        <pt x="192" y="39" on="1"/>
      </contour>
      <contour>
        <pt x="58" y="737" on="1"/>
        <pt x="194" y="737" on="1"/>
        <pt x="197" y="737" on="0"/>
        <pt x="197" y="735" on="1"/>
        <pt x="197" y="37" on="1"/>
        <pt x="197" y="35" on="0"/>
        <pt x="194" y="35" on="1"/>
        <pt x="58" y="35" on="1"/>
        <pt x="55" y="35" on="0"/>
        <pt x="55" y="37" on="1"/>
        <pt x="55" y="735" on="1"/>
        <pt x="55" y="737" on="0"/>
      </contour>
    </TTGlyph>
    <TTGlyph name="I.0" xMin="50" yMin="8" xMax="202" yMax="784">
      <contour>
        <pt x="50" y="784" on="1"/>
        <pt x="50" y="8" on="1"/>
        <pt x="202" y="8" on="1"/>
        <pt x="202" y="784" on="1"/>
      </contour>
    </TTGlyph>
    <TTGlyph name="I.1" xMin="50" yMin="-2" xMax="202" yMax="774">
      <contour>
        <pt x="50" y="774" on="1"/>
        <pt x="50" y="-2" on="1"/>
        <pt x="202" y="-2" on="1"/>
        <pt x="202" y="774" on="1"/>
      </contour>
    </TTGlyph>
    <TTGlyph name="Iacute" xMin="14" yMin="35" xMax="280" yMax="1079">
      <component glyphName="acutecomb" x="147" y="286" flags="0x1004"/>
      <component glyphName="I" x="0" y="0" flags="0x1204"/>
    </TTGlyph>
    <TTGlyph name="Iacute.0" xMin="18" yMin="8" xMax="308" yMax="1133">
      <contour>
        <pt x="126" y="844" on="1"/>
        <pt x="308" y="1026" on="1"/>
        <pt x="200" y="1133" on="1"/>
        <pt x="18" y="951" on="1"/>
      </contour>
      <contour>
        <pt x="50" y="784" on="1"/>
        <pt x="50" y="8" on="1"/>
        <pt x="202" y="8" on="1"/>
        <pt x="202" y="784" on="1"/>
      </contour>
    </TTGlyph>
    <TTGlyph name="Iacute.1" xMin="18" yMin="-2" xMax="308" yMax="1123">
      <component glyphName="Iacute.0" x="0" y="-10" flags="0x204"/>
    </TTGlyph>
    <TTGlyph name="Ibreve" xMin="-4" yMin="35" xMax="232" yMax="951">
      <component glyphName="uni0306" x="114" y="24" flags="0x1004"/>
      <component glyphName="I" x="0" y="0" flags="0x1204"/>
    </TTGlyph>
    <TTGlyph name="Ibreve.0" xMin="-2" yMin="8" xMax="254" yMax="968">
      <contour>
        <pt x="254" y="968" on="1"/>
        <pt x="178" y="968" on="1"/>
        <pt x="180" y="960" on="0"/>
        <pt x="180" y="954" on="1"/>
        <pt x="180" y="932" on="0"/>
        <pt x="165" y="916" on="1"/>
        <pt x="149" y="900" on="0"/>
        <pt x="127" y="900" on="1"/>
        <pt x="104" y="900" on="0"/>
        <pt x="88" y="916" on="1"/>
        <pt x="72" y="932" on="0"/>
        <pt x="72" y="954" on="1"/>
        <pt x="72" y="960" on="0"/>
        <pt x="74" y="968" on="1"/>
        <pt x="-2" y="968" on="1"/>
        <pt x="-2" y="954" on="1"/>
        <pt x="-2" y="900" on="0"/>
        <pt x="35" y="863" on="1"/>
        <pt x="72" y="826" on="0"/>
        <pt x="126" y="826" on="1"/>
        <pt x="180" y="826" on="0"/>
        <pt x="217" y="864" on="1"/>
        <pt x="254" y="901" on="0"/>
        <pt x="254" y="954" on="1"/>
        <pt x="254" y="968" on="0"/>
      </contour>
      <contour>
        <pt x="50" y="784" on="1"/>
        <pt x="50" y="8" on="1"/>
        <pt x="202" y="8" on="1"/>
        <pt x="202" y="784" on="1"/>
      </contour>
    </TTGlyph>
    <TTGlyph name="Ibreve.1" xMin="-2" yMin="-2" xMax="254" yMax="958">
      <component glyphName="Ibreve.0" x="0" y="-10" flags="0x204"/>
    </TTGlyph>
    <TTGlyph name="Icircumflex" xMin="20" yMin="35" xMax="206" yMax="988">
      <component glyphName="uni0302" x="113" y="61" flags="0x1004"/>
      <component glyphName="I" x="0" y="0" flags="0x1204"/>
    </TTGlyph>
    <TTGlyph name="Icircumflex.0" xMin="26" yMin="8" xMax="226" yMax="1012">
      <contour>
        <pt x="26" y="844" on="1"/>
        <pt x="102" y="844" on="1"/>
        <pt x="130" y="952" on="1"/>
        <pt x="150" y="844" on="1"/>
        <pt x="226" y="844" on="1"/>
        <pt x="174" y="1012" on="1"/>
        <pt x="173" y="1012" on="1"/>
        <pt x="98" y="1012" on="1"/>
        <pt x="97" y="1012" on="1"/>
      </contour>
      <contour>
        <pt x="50" y="784" on="1"/>
        <pt x="50" y="8" on="1"/>
        <pt x="202" y="8" on="1"/>
        <pt x="202" y="784" on="1"/>
      </contour>
    </TTGlyph>
    <TTGlyph name="Icircumflex.1" xMin="26" yMin="-2" xMax="226" yMax="1002">
      <component glyphName="Icircumflex.0" x="0" y="-10" flags="0x204"/>
    </TTGlyph>
    <TTGlyph name="Idieresis" xMin="-48" yMin="35" xMax="274" yMax="937">
      <component glyphName="uni0308" x="113" y="302" flags="0x1004"/>
      <component glyphName="I" x="0" y="0" flags="0x1204"/>
    </TTGlyph>
    <TTGlyph name="Idieresis.0" xMin="-50" yMin="8" xMax="302" yMax="986">
      <contour>
        <pt x="150" y="844" on="1"/>
        <pt x="302" y="844" on="1"/>
        <pt x="302" y="986" on="1"/>
        <pt x="150" y="986" on="1"/>
      </contour>
      <contour>
        <pt x="-50" y="844" on="1"/>
        <pt x="102" y="844" on="1"/>
        <pt x="102" y="986" on="1"/>
        <pt x="-50" y="986" on="1"/>
      </contour>
      <contour>
        <pt x="50" y="784" on="1"/>
        <pt x="50" y="8" on="1"/>
        <pt x="202" y="8" on="1"/>
        <pt x="202" y="784" on="1"/>
      </contour>
    </TTGlyph>
    <TTGlyph name="Idieresis.1" xMin="-50" yMin="-2" xMax="302" yMax="976">
      <component glyphName="Idieresis.0" x="0" y="-10" flags="0x204"/>
    </TTGlyph>
    <TTGlyph name="Idotaccent" xMin="42" yMin="35" xMax="197" yMax="937">
      <component glyphName="uni0307" x="113" y="302" flags="0x1004"/>
      <component glyphName="I" x="0" y="0" flags="0x1204"/>
    </TTGlyph>
    <TTGlyph name="Idotaccent.0" xMin="50" yMin="8" xMax="202" yMax="986">
      <contour>
        <pt x="50" y="844" on="1"/>
        <pt x="202" y="844" on="1"/>
        <pt x="202" y="986" on="1"/>
        <pt x="50" y="986" on="1"/>
      </contour>
      <contour>
        <pt x="50" y="784" on="1"/>
        <pt x="50" y="8" on="1"/>
        <pt x="202" y="8" on="1"/>
        <pt x="202" y="784" on="1"/>
      </contour>
    </TTGlyph>
    <TTGlyph name="Idotaccent.1" xMin="50" yMin="-2" xMax="202" yMax="976">
      <component glyphName="Idotaccent.0" x="0" y="-10" flags="0x204"/>
    </TTGlyph>
    <TTGlyph name="Igrave" xMin="-53" yMin="35" xMax="213" yMax="1079">
      <component glyphName="gravecomb" x="80" y="286" flags="0x1004"/>
      <component glyphName="I" x="0" y="0" flags="0x1204"/>
    </TTGlyph>
    <TTGlyph name="Igrave.0" xMin="-56" yMin="8" xMax="234" yMax="1133">
      <contour>
        <pt x="126" y="844" on="1"/>
        <pt x="234" y="951" on="1"/>
        <pt x="52" y="1133" on="1"/>
        <pt x="-56" y="1026" on="1"/>
      </contour>
      <contour>
        <pt x="50" y="784" on="1"/>
        <pt x="50" y="8" on="1"/>
        <pt x="202" y="8" on="1"/>
        <pt x="202" y="784" on="1"/>
      </contour>
    </TTGlyph>
    <TTGlyph name="Igrave.1" xMin="-56" yMin="-2" xMax="234" yMax="1123">
      <component glyphName="Igrave.0" x="0" y="-10" flags="0x204"/>
    </TTGlyph>
    <TTGlyph name="Imacron" xMin="-12" yMin="35" xMax="238" yMax="903">
      <component glyphName="uni0304" x="113" y="47" flags="0x1004"/>
      <component glyphName="I" x="0" y="0" flags="0x1204"/>
    </TTGlyph>
    <TTGlyph name="Imacron.0" xMin="-10" yMin="8" xMax="262" yMax="920">
      <contour>
        <pt x="262" y="920" on="1"/>
        <pt x="-10" y="920" on="1"/>
        <pt x="-10" y="844" on="1"/>
        <pt x="262" y="844" on="1"/>
      </contour>
      <contour>
        <pt x="50" y="784" on="1"/>
        <pt x="50" y="8" on="1"/>
        <pt x="202" y="8" on="1"/>
        <pt x="202" y="784" on="1"/>
      </contour>
    </TTGlyph>
    <TTGlyph name="Imacron.1" xMin="-10" yMin="-2" xMax="262" yMax="910">
      <component glyphName="Imacron.0" x="0" y="-10" flags="0x204"/>
    </TTGlyph>
    <TTGlyph name="Iogonek" xMin="-11" yMin="-221" xMax="197" yMax="737">
      <component glyphName="uni0328" x="55" y="-164" flags="0x1004"/>
      <component glyphName="I" x="0" y="0" flags="0x1204"/>
    </TTGlyph>
    <TTGlyph name="Iogonek.0" xMin="-9" yMin="-240" xMax="202" yMax="784">
      <contour>
        <pt x="133" y="-240" on="1"/>
        <pt x="133" y="-163" on="1"/>
        <pt x="125" y="-165" on="0"/>
        <pt x="120" y="-165" on="1"/>
        <pt x="97" y="-165" on="0"/>
        <pt x="82" y="-149" on="1"/>
        <pt x="66" y="-134" on="0"/>
        <pt x="66" y="-112" on="1"/>
        <pt x="66" y="-90" on="0"/>
        <pt x="82" y="-74" on="1"/>
        <pt x="98" y="-58" on="0"/>
        <pt x="120" y="-58" on="1"/>
        <pt x="125" y="-58" on="0"/>
        <pt x="133" y="-60" on="1"/>
        <pt x="133" y="17" on="1"/>
        <pt x="120" y="17" on="1"/>
        <pt x="66" y="17" on="0"/>
        <pt x="29" y="-20" on="1"/>
        <pt x="-9" y="-58" on="0"/>
        <pt x="-9" y="-112" on="1"/>
        <pt x="-9" y="-165" on="0"/>
        <pt x="29" y="-202" on="1"/>
        <pt x="66" y="-240" on="0"/>
        <pt x="120" y="-240" on="1"/>
        <pt x="133" y="-240" on="0"/>
      </contour>
      <contour>
        <pt x="50" y="784" on="1"/>
        <pt x="50" y="8" on="1"/>
        <pt x="202" y="8" on="1"/>
        <pt x="202" y="784" on="1"/>
      </contour>
    </TTGlyph>
    <TTGlyph name="Iogonek.1" xMin="-9" yMin="-250" xMax="202" yMax="774">
      <component glyphName="Iogonek.0" x="0" y="-10" flags="0x204"/>
    </TTGlyph>
    <TTGlyph name="Itilde" xMin="-2" yMin="35" xMax="228" yMax="944">
      <component glyphName="tildecomb" x="113" y="29" flags="0x1004"/>
      <component glyphName="I" x="0" y="0" flags="0x1204"/>
    </TTGlyph>
    <TTGlyph name="Itilde.0" xMin="1" yMin="8" xMax="251" yMax="961">
      <contour>
        <pt x="251" y="961" on="1"/>
        <pt x="241" y="951" on="1"/>
        <pt x="232" y="941" on="0"/>
        <pt x="215" y="931" on="1"/>
        <pt x="198" y="921" on="0"/>
        <pt x="183" y="921" on="1"/>
        <pt x="161" y="921" on="0"/>
        <pt x="138" y="921" on="1"/>
        <pt x="122" y="921" on="0"/>
        <pt x="99" y="935" on="1"/>
        <pt x="75" y="948" on="0"/>
        <pt x="58" y="948" on="1"/>
        <pt x="33" y="948" on="0"/>
        <pt x="1" y="920" on="1"/>
        <pt x="1" y="844" on="1"/>
        <pt x="10" y="851" on="1"/>
        <pt x="19" y="858" on="0"/>
        <pt x="34" y="865" on="1"/>
        <pt x="49" y="872" on="0"/>
        <pt x="60" y="872" on="1"/>
        <pt x="76" y="872" on="0"/>
        <pt x="99" y="858" on="1"/>
        <pt x="121" y="844" on="0"/>
        <pt x="137" y="844" on="1"/>
        <pt x="187" y="844" on="1"/>
        <pt x="203" y="844" on="0"/>
        <pt x="219" y="855" on="1"/>
        <pt x="235" y="865" on="0"/>
        <pt x="243" y="874" on="1"/>
        <pt x="250" y="883" on="0"/>
        <pt x="251" y="885" on="1"/>
      </contour>
      <contour>
        <pt x="50" y="784" on="1"/>
        <pt x="50" y="8" on="1"/>
        <pt x="202" y="8" on="1"/>
        <pt x="202" y="784" on="1"/>
      </contour>
    </TTGlyph>
    <TTGlyph name="Itilde.1" xMin="1" yMin="-2" xMax="251" yMax="951">
      <component glyphName="Itilde.0" x="0" y="-10" flags="0x204"/>
    </TTGlyph>
    <TTGlyph name="J" xMin="64" yMin="33" xMax="355" yMax="725">
      <contour>
        <pt x="205" y="721" on="1"/>
        <pt x="205" y="204" on="1"/>
        <pt x="205" y="204" on="0"/>
        <pt x="204" y="203" on="1"/>
        <pt x="175" y="169" on="0"/>
        <pt x="130" y="169" on="1"/>
        <pt x="96" y="169" on="0"/>
        <pt x="68" y="190" on="1"/>
        <pt x="68" y="45" on="1"/>
        <pt x="98" y="37" on="0"/>
        <pt x="130" y="37" on="1"/>
        <pt x="208" y="37" on="0"/>
        <pt x="327" y="130" on="0"/>
        <pt x="348" y="204" on="1"/>
        <pt x="351" y="721" on="1"/>
      </contour>
      <contour>
        <pt x="64" y="43" on="1"/>
        <pt x="64" y="194" on="1"/>
        <pt x="64" y="197" on="0"/>
        <pt x="66" y="197" on="1"/>
        <pt x="67" y="197" on="0"/>
        <pt x="67" y="196" on="1"/>
        <pt x="95" y="173" on="0"/>
        <pt x="130" y="173" on="1"/>
        <pt x="172" y="173" on="0"/>
        <pt x="200" y="205" on="1"/>
        <pt x="200" y="723" on="1"/>
        <pt x="200" y="725" on="0"/>
        <pt x="203" y="725" on="1"/>
        <pt x="353" y="725" on="1"/>
        <pt x="355" y="725" on="0"/>
        <pt x="355" y="723" on="1"/>
        <pt x="353" y="203" on="1"/>
        <pt x="331" y="128" on="0"/>
        <pt x="209" y="33" on="0"/>
        <pt x="130" y="33" on="1"/>
        <pt x="97" y="33" on="0"/>
        <pt x="65" y="41" on="1"/>
        <pt x="64" y="42" on="0"/>
      </contour>
    </TTGlyph>
    <TTGlyph name="J.0" xMin="50" yMin="7" xMax="369" yMax="771">
      <contour>
        <pt x="50" y="16" on="1"/>
        <pt x="84" y="7" on="0"/>
        <pt x="121" y="7" on="1"/>
        <pt x="208" y="7" on="0"/>
        <pt x="275" y="59" on="1"/>
        <pt x="342" y="111" on="0"/>
        <pt x="366" y="194" on="1"/>
        <pt x="369" y="771" on="1"/>
        <pt x="202" y="771" on="1"/>
        <pt x="202" y="195" on="1"/>
        <pt x="170" y="158" on="0"/>
        <pt x="121" y="158" on="1"/>
        <pt x="81" y="158" on="0"/>
        <pt x="50" y="184" on="1"/>
      </contour>
    </TTGlyph>
    <TTGlyph name="J.1" xMin="50" yMin="-3" xMax="369" yMax="761">
      <component glyphName="J.0" x="0" y="-10" flags="0x204"/>
    </TTGlyph>
    <TTGlyph name="Jcircumflex" xMin="64" yMin="33" xMax="355" yMax="987">
      <component glyphName="uni0302" x="257" y="60" flags="0x1004"/>
      <component glyphName="J" x="0" y="0" flags="0x1204"/>
    </TTGlyph>
    <TTGlyph name="Jcircumflex.0" xMin="50" yMin="7" xMax="386" yMax="1010">
      <contour>
        <pt x="186" y="842" on="1"/>
        <pt x="262" y="842" on="1"/>
        <pt x="290" y="950" on="1"/>
        <pt x="310" y="842" on="1"/>
        <pt x="386" y="842" on="1"/>
        <pt x="334" y="1010" on="1"/>
        <pt x="333" y="1010" on="1"/>
        <pt x="258" y="1010" on="1"/>
        <pt x="257" y="1010" on="1"/>
      </contour>
      <contour>
        <pt x="50" y="16" on="1"/>
        <pt x="84" y="7" on="0"/>
        <pt x="121" y="7" on="1"/>
        <pt x="208" y="7" on="0"/>
        <pt x="275" y="59" on="1"/>
        <pt x="342" y="111" on="0"/>
        <pt x="366" y="194" on="1"/>
        <pt x="369" y="771" on="1"/>
        <pt x="202" y="771" on="1"/>
        <pt x="202" y="195" on="1"/>
        <pt x="170" y="158" on="0"/>
        <pt x="121" y="158" on="1"/>
        <pt x="81" y="158" on="0"/>
        <pt x="50" y="184" on="1"/>
      </contour>
    </TTGlyph>
    <TTGlyph name="Jcircumflex.1" xMin="50" yMin="-3" xMax="386" yMax="1000">
      <component glyphName="Jcircumflex.0" x="0" y="-10" flags="0x204"/>
    </TTGlyph>
    <TTGlyph name="K" xMin="80" yMin="34" xMax="673" yMax="737">
      <contour>
        <pt x="217" y="733" on="1"/>
        <pt x="85" y="733" on="1"/>
        <pt x="85" y="39" on="1"/>
        <pt x="217" y="39" on="1"/>
        <pt x="217" y="235" on="1"/>
        <pt x="217" y="236" on="0"/>
        <pt x="218" y="236" on="1"/>
        <pt x="269" y="312" on="1"/>
        <pt x="270" y="312" on="0"/>
        <pt x="272" y="312" on="0"/>
        <pt x="273" y="312" on="1"/>
        <pt x="499" y="39" on="1"/>
        <pt x="665" y="38" on="1"/>
        <pt x="371" y="385" on="1"/>
        <pt x="370" y="386" on="0"/>
        <pt x="370" y="388" on="0"/>
        <pt x="371" y="388" on="1"/>
        <pt x="603" y="728" on="1"/>
        <pt x="441" y="729" on="1"/>
        <pt x="221" y="427" on="1"/>
        <pt x="221" y="426" on="0"/>
        <pt x="219" y="426" on="1"/>
        <pt x="217" y="426" on="0"/>
        <pt x="217" y="428" on="1"/>
      </contour>
      <contour>
        <pt x="83" y="737" on="1"/>
        <pt x="219" y="737" on="1"/>
        <pt x="222" y="737" on="0"/>
        <pt x="222" y="735" on="1"/>
        <pt x="222" y="435" on="1"/>
        <pt x="438" y="733" on="1"/>
        <pt x="439" y="734" on="0"/>
        <pt x="440" y="734" on="1"/>
        <pt x="607" y="732" on="1"/>
        <pt x="610" y="732" on="0"/>
        <pt x="610" y="730" on="1"/>
        <pt x="610" y="729" on="0"/>
        <pt x="609" y="728" on="1"/>
        <pt x="375" y="387" on="1"/>
        <pt x="672" y="37" on="1"/>
        <pt x="673" y="37" on="0"/>
        <pt x="673" y="36" on="1"/>
        <pt x="673" y="34" on="0"/>
        <pt x="670" y="34" on="1"/>
        <pt x="498" y="34" on="1"/>
        <pt x="496" y="35" on="0"/>
        <pt x="496" y="35" on="1"/>
        <pt x="271" y="307" on="1"/>
        <pt x="222" y="235" on="1"/>
        <pt x="222" y="37" on="1"/>
        <pt x="222" y="34" on="0"/>
        <pt x="219" y="34" on="1"/>
        <pt x="83" y="34" on="1"/>
        <pt x="80" y="34" on="0"/>
        <pt x="80" y="37" on="1"/>
        <pt x="80" y="735" on="1"/>
        <pt x="80" y="737" on="0"/>
      </contour>
    </TTGlyph>
    <TTGlyph name="K.0" xMin="50" yMin="7" xMax="703" yMax="784">
      <contour>
        <pt x="50" y="784" on="1"/>
        <pt x="50" y="8" on="1"/>
        <pt x="202" y="8" on="1"/>
        <pt x="202" y="229" on="1"/>
        <pt x="259" y="312" on="1"/>
        <pt x="511" y="8" on="1"/>
        <pt x="703" y="7" on="1"/>
        <pt x="372" y="397" on="1"/>
        <pt x="633" y="778" on="1"/>
        <pt x="447" y="780" on="1"/>
        <pt x="202" y="443" on="1"/>
        <pt x="202" y="784" on="1"/>
      </contour>
    </TTGlyph>
    <TTGlyph name="K.1" xMin="50" yMin="-3" xMax="703" yMax="774">
      <component glyphName="K.0" x="0" y="-10" flags="0x204"/>
    </TTGlyph>
    <TTGlyph name="L" xMin="79" yMin="34" xMax="639" yMax="737">
      <contour>
        <pt x="215" y="733" on="1"/>
        <pt x="83" y="733" on="1"/>
        <pt x="83" y="39" on="1"/>
        <pt x="83" y="38" on="0"/>
        <pt x="84" y="38" on="1"/>
        <pt x="635" y="38" on="1"/>
        <pt x="634" y="170" on="1"/>
        <pt x="218" y="170" on="1"/>
        <pt x="215" y="170" on="0"/>
        <pt x="215" y="173" on="1"/>
      </contour>
      <contour>
        <pt x="81" y="737" on="1"/>
        <pt x="218" y="737" on="1"/>
        <pt x="220" y="737" on="0"/>
        <pt x="220" y="735" on="1"/>
        <pt x="220" y="175" on="1"/>
        <pt x="636" y="175" on="1"/>
        <pt x="638" y="175" on="0"/>
        <pt x="638" y="173" on="1"/>
        <pt x="639" y="36" on="1"/>
        <pt x="639" y="34" on="0"/>
        <pt x="637" y="34" on="1"/>
        <pt x="82" y="34" on="1"/>
        <pt x="80" y="34" on="0"/>
        <pt x="80" y="35" on="1"/>
        <pt x="79" y="35" on="0"/>
        <pt x="79" y="37" on="1"/>
        <pt x="79" y="735" on="1"/>
        <pt x="79" y="737" on="0"/>
      </contour>
    </TTGlyph>
    <TTGlyph name="L.0" xMin="50" yMin="7" xMax="668" yMax="784">
      <contour>
        <pt x="50" y="784" on="1"/>
        <pt x="50" y="8" on="1"/>
        <pt x="51" y="8" on="1"/>
        <pt x="51" y="7" on="1"/>
        <pt x="668" y="7" on="1"/>
        <pt x="667" y="159" on="1"/>
        <pt x="202" y="159" on="1"/>
        <pt x="202" y="784" on="1"/>
      </contour>
    </TTGlyph>
    <TTGlyph name="L.1" xMin="50" yMin="-3" xMax="668" yMax="774">
      <component glyphName="L.0" x="0" y="-10" flags="0x204"/>
    </TTGlyph>
    <TTGlyph name="Lacute" xMin="14" yMin="34" xMax="639" yMax="1079">
      <component glyphName="acutecomb" x="147" y="286" flags="0x1004"/>
      <component glyphName="L" x="0" y="0" flags="0x1204"/>
    </TTGlyph>
    <TTGlyph name="Lacute.0" xMin="18" yMin="7" xMax="668" yMax="1133">
      <contour>
        <pt x="126" y="844" on="1"/>
        <pt x="308" y="1026" on="1"/>
        <pt x="200" y="1133" on="1"/>
        <pt x="18" y="951" on="1"/>
      </contour>
      <contour>
        <pt x="50" y="784" on="1"/>
        <pt x="50" y="8" on="1"/>
        <pt x="51" y="8" on="1"/>
        <pt x="51" y="7" on="1"/>
        <pt x="668" y="7" on="1"/>
        <pt x="667" y="159" on="1"/>
        <pt x="202" y="159" on="1"/>
        <pt x="202" y="784" on="1"/>
      </contour>
    </TTGlyph>
    <TTGlyph name="Lacute.1" xMin="18" yMin="-3" xMax="668" yMax="1123">
      <component glyphName="Lacute.0" x="0" y="-10" flags="0x204"/>
    </TTGlyph>
    <TTGlyph name="Lcaron" xMin="79" yMin="34" xMax="639" yMax="740">
      <contour>
        <pt x="265" y="736" on="1"/>
        <pt x="265" y="509" on="1"/>
        <pt x="357" y="509" on="1"/>
        <pt x="397" y="736" on="1"/>
      </contour>
      <contour>
        <pt x="260" y="507" on="1"/>
        <pt x="260" y="738" on="1"/>
        <pt x="260" y="740" on="0"/>
        <pt x="263" y="740" on="1"/>
        <pt x="400" y="740" on="1"/>
        <pt x="402" y="740" on="0"/>
        <pt x="402" y="738" on="1"/>
        <pt x="402" y="738" on="0"/>
        <pt x="361" y="506" on="1"/>
        <pt x="361" y="504" on="0"/>
        <pt x="359" y="504" on="1"/>
        <pt x="263" y="504" on="1"/>
        <pt x="260" y="504" on="0"/>
      </contour>
      <contour>
        <pt x="215" y="733" on="1"/>
        <pt x="83" y="733" on="1"/>
        <pt x="83" y="39" on="1"/>
        <pt x="83" y="39" on="0"/>
        <pt x="84" y="38" on="1"/>
        <pt x="635" y="38" on="1"/>
        <pt x="634" y="171" on="1"/>
        <pt x="218" y="171" on="1"/>
        <pt x="215" y="171" on="0"/>
        <pt x="215" y="173" on="1"/>
      </contour>
      <contour>
        <pt x="81" y="738" on="1"/>
        <pt x="218" y="738" on="1"/>
        <pt x="220" y="738" on="0"/>
        <pt x="220" y="735" on="1"/>
        <pt x="220" y="175" on="1"/>
        <pt x="636" y="175" on="1"/>
        <pt x="638" y="175" on="0"/>
        <pt x="638" y="173" on="1"/>
        <pt x="639" y="36" on="1"/>
        <pt x="639" y="34" on="0"/>
        <pt x="637" y="34" on="1"/>
        <pt x="82" y="34" on="1"/>
        <pt x="80" y="34" on="0"/>
        <pt x="80" y="35" on="1"/>
        <pt x="79" y="36" on="0"/>
        <pt x="79" y="37" on="1"/>
        <pt x="79" y="735" on="1"/>
        <pt x="79" y="738" on="0"/>
      </contour>
    </TTGlyph>
    <TTGlyph name="Lcaron.0" xMin="50" yMin="7" xMax="668" yMax="787">
      <contour>
        <pt x="252" y="530" on="1"/>
        <pt x="359" y="530" on="1"/>
        <pt x="404" y="787" on="1"/>
        <pt x="252" y="787" on="1"/>
      </contour>
      <contour>
        <pt x="50" y="784" on="1"/>
        <pt x="50" y="8" on="1"/>
        <pt x="51" y="8" on="1"/>
        <pt x="51" y="7" on="1"/>
        <pt x="668" y="7" on="1"/>
        <pt x="667" y="159" on="1"/>
        <pt x="202" y="159" on="1"/>
        <pt x="202" y="784" on="1"/>
      </contour>
    </TTGlyph>
    <TTGlyph name="Lcaron.1" xMin="50" yMin="-3" xMax="668" yMax="777">
      <component glyphName="Lcaron.0" x="0" y="-10" flags="0x204"/>
    </TTGlyph>
    <TTGlyph name="Ldot" xMin="79" yMin="34" xMax="639" yMax="737">
      <component glyphName="periodcentered" x="210" y="-75" flags="0x1004"/>
      <component glyphName="L" x="0" y="0" flags="0x1204"/>
    </TTGlyph>
    <TTGlyph name="Ldot.0" xMin="50" yMin="7" xMax="668" yMax="784">
      <contour>
        <pt x="283" y="324" on="1"/>
        <pt x="435" y="324" on="1"/>
        <pt x="435" y="466" on="1"/>
        <pt x="283" y="466" on="1"/>
      </contour>
      <contour>
        <pt x="50" y="784" on="1"/>
        <pt x="50" y="8" on="1"/>
        <pt x="51" y="8" on="1"/>
        <pt x="51" y="7" on="1"/>
        <pt x="668" y="7" on="1"/>
        <pt x="667" y="159" on="1"/>
        <pt x="202" y="159" on="1"/>
        <pt x="202" y="784" on="1"/>
      </contour>
    </TTGlyph>
    <TTGlyph name="Ldot.1" xMin="50" yMin="-3" xMax="668" yMax="774">
      <component glyphName="Ldot.0" x="0" y="-10" flags="0x204"/>
    </TTGlyph>
    <TTGlyph name="Lslash" xMin="79" yMin="34" xMax="639" yMax="737">
      <contour>
        <pt x="215" y="733" on="1"/>
        <pt x="83" y="733" on="1"/>
        <pt x="83" y="39" on="1"/>
        <pt x="83" y="38" on="0"/>
        <pt x="84" y="38" on="1"/>
        <pt x="635" y="38" on="1"/>
        <pt x="634" y="170" on="1"/>
        <pt x="218" y="170" on="1"/>
        <pt x="215" y="170" on="0"/>
        <pt x="215" y="173" on="1"/>
      </contour>
      <contour>
        <pt x="81" y="737" on="1"/>
        <pt x="218" y="737" on="1"/>
        <pt x="220" y="737" on="0"/>
        <pt x="220" y="735" on="1"/>
        <pt x="220" y="175" on="1"/>
        <pt x="636" y="175" on="1"/>
        <pt x="638" y="175" on="0"/>
        <pt x="638" y="173" on="1"/>
        <pt x="639" y="36" on="1"/>
        <pt x="639" y="34" on="0"/>
        <pt x="637" y="34" on="1"/>
        <pt x="82" y="34" on="1"/>
        <pt x="80" y="34" on="0"/>
        <pt x="80" y="35" on="1"/>
        <pt x="79" y="35" on="0"/>
        <pt x="79" y="37" on="1"/>
        <pt x="79" y="735" on="1"/>
        <pt x="79" y="737" on="0"/>
      </contour>
    </TTGlyph>
    <TTGlyph name="Lslash.0" xMin="50" yMin="-3" xMax="668" yMax="774">
      <component glyphName="L.0" x="0" y="-10" flags="0x204"/>
    </TTGlyph>
    <TTGlyph name="M" xMin="95" yMin="34" xMax="957" yMax="732">
      <contour>
        <pt x="100" y="727" on="1"/>
        <pt x="100" y="39" on="1"/>
        <pt x="232" y="39" on="1"/>
        <pt x="232" y="467" on="1"/>
        <pt x="232" y="469" on="0"/>
        <pt x="234" y="469" on="1"/>
        <pt x="236" y="469" on="0"/>
        <pt x="236" y="468" on="1"/>
        <pt x="459" y="41" on="1"/>
        <pt x="593" y="41" on="1"/>
        <pt x="816" y="468" on="1"/>
        <pt x="816" y="469" on="0"/>
        <pt x="818" y="469" on="1"/>
        <pt x="820" y="469" on="0"/>
        <pt x="820" y="467" on="1"/>
        <pt x="820" y="39" on="1"/>
        <pt x="952" y="39" on="1"/>
        <pt x="952" y="727" on="1"/>
        <pt x="819" y="727" on="1"/>
        <pt x="528" y="169" on="1"/>
        <pt x="527" y="167" on="0"/>
        <pt x="525" y="167" on="0"/>
        <pt x="524" y="169" on="1"/>
        <pt x="233" y="727" on="1"/>
      </contour>
      <contour>
        <pt x="98" y="732" on="1"/>
        <pt x="234" y="732" on="1"/>
        <pt x="236" y="732" on="0"/>
        <pt x="236" y="731" on="1"/>
        <pt x="526" y="174" on="1"/>
        <pt x="816" y="731" on="1"/>
        <pt x="816" y="732" on="0"/>
        <pt x="818" y="732" on="1"/>
        <pt x="954" y="732" on="1"/>
        <pt x="957" y="732" on="0"/>
        <pt x="957" y="730" on="1"/>
        <pt x="957" y="36" on="1"/>
        <pt x="957" y="34" on="0"/>
        <pt x="954" y="34" on="1"/>
        <pt x="818" y="34" on="1"/>
        <pt x="815" y="34" on="0"/>
        <pt x="815" y="36" on="1"/>
        <pt x="815" y="458" on="1"/>
        <pt x="596" y="37" on="1"/>
        <pt x="596" y="36" on="0"/>
        <pt x="594" y="36" on="1"/>
        <pt x="458" y="36" on="1"/>
        <pt x="456" y="36" on="0"/>
        <pt x="456" y="37" on="1"/>
        <pt x="237" y="458" on="1"/>
        <pt x="237" y="36" on="1"/>
        <pt x="237" y="34" on="0"/>
        <pt x="234" y="34" on="1"/>
        <pt x="98" y="34" on="1"/>
        <pt x="95" y="34" on="0"/>
        <pt x="95" y="36" on="1"/>
        <pt x="95" y="730" on="1"/>
        <pt x="95" y="732" on="0"/>
      </contour>
    </TTGlyph>
    <TTGlyph name="M.0" xMin="50" yMin="8" xMax="1002" yMax="778">
      <contour>
        <pt x="50" y="778" on="1"/>
        <pt x="50" y="8" on="1"/>
        <pt x="202" y="8" on="1"/>
        <pt x="202" y="486" on="1"/>
        <pt x="450" y="10" on="1"/>
        <pt x="602" y="10" on="1"/>
        <pt x="850" y="486" on="1"/>
        <pt x="850" y="8" on="1"/>
        <pt x="1002" y="8" on="1"/>
        <pt x="1002" y="778" on="1"/>
        <pt x="850" y="778" on="1"/>
        <pt x="526" y="156" on="1"/>
        <pt x="202" y="778" on="1"/>
      </contour>
    </TTGlyph>
    <TTGlyph name="M.1" xMin="50" yMin="-2" xMax="1002" yMax="768">
      <component glyphName="M.0" x="0" y="-10" flags="0x204"/>
    </TTGlyph>
    <TTGlyph name="N" xMin="85" yMin="35" xMax="767" yMax="737">
      <contour>
        <pt x="90" y="733" on="1"/>
        <pt x="90" y="39" on="1"/>
        <pt x="222" y="39" on="1"/>
        <pt x="222" y="509" on="1"/>
        <pt x="222" y="512" on="0"/>
        <pt x="224" y="512" on="1"/>
        <pt x="225" y="512" on="0"/>
        <pt x="226" y="511" on="1"/>
        <pt x="629" y="39" on="1"/>
        <pt x="762" y="39" on="1"/>
        <pt x="762" y="733" on="1"/>
        <pt x="630" y="733" on="1"/>
        <pt x="630" y="264" on="1"/>
        <pt x="630" y="262" on="0"/>
        <pt x="628" y="262" on="1"/>
        <pt x="627" y="262" on="0"/>
        <pt x="626" y="263" on="1"/>
        <pt x="223" y="733" on="1"/>
      </contour>
      <contour>
        <pt x="88" y="737" on="1"/>
        <pt x="224" y="737" on="1"/>
        <pt x="225" y="737" on="0"/>
        <pt x="226" y="737" on="1"/>
        <pt x="625" y="270" on="1"/>
        <pt x="625" y="735" on="1"/>
        <pt x="625" y="737" on="0"/>
        <pt x="628" y="737" on="1"/>
        <pt x="764" y="737" on="1"/>
        <pt x="767" y="737" on="0"/>
        <pt x="767" y="735" on="1"/>
        <pt x="767" y="37" on="1"/>
        <pt x="767" y="35" on="0"/>
        <pt x="764" y="35" on="1"/>
        <pt x="628" y="35" on="1"/>
        <pt x="627" y="35" on="0"/>
        <pt x="626" y="35" on="1"/>
        <pt x="227" y="503" on="1"/>
        <pt x="227" y="37" on="1"/>
        <pt x="227" y="35" on="0"/>
        <pt x="224" y="35" on="1"/>
        <pt x="88" y="35" on="1"/>
        <pt x="85" y="35" on="0"/>
        <pt x="85" y="37" on="1"/>
        <pt x="85" y="735" on="1"/>
        <pt x="85" y="737" on="0"/>
      </contour>
    </TTGlyph>
    <TTGlyph name="N.0" xMin="50" yMin="8" xMax="802" yMax="784">
      <contour>
        <pt x="50" y="784" on="1"/>
        <pt x="50" y="8" on="1"/>
        <pt x="202" y="8" on="1"/>
        <pt x="202" y="533" on="1"/>
        <pt x="650" y="8" on="1"/>
        <pt x="802" y="8" on="1"/>
        <pt x="802" y="784" on="1"/>
        <pt x="650" y="784" on="1"/>
        <pt x="650" y="261" on="1"/>
        <pt x="202" y="784" on="1"/>
      </contour>
    </TTGlyph>
    <TTGlyph name="N.1" xMin="50" yMin="-2" xMax="802" yMax="774">
      <component glyphName="N.0" x="0" y="-10" flags="0x204"/>
    </TTGlyph>
    <TTGlyph name="Nacute" xMin="85" yMin="35" xMax="767" yMax="1079">
      <component glyphName="acutecomb" x="417" y="286" flags="0x1004"/>
      <component glyphName="N" x="0" y="0" flags="0x1204"/>
    </TTGlyph>
    <TTGlyph name="Nacute.0" xMin="50" yMin="8" xMax="802" yMax="1133">
      <contour>
        <pt x="426" y="844" on="1"/>
        <pt x="608" y="1026" on="1"/>
        <pt x="500" y="1133" on="1"/>
        <pt x="318" y="951" on="1"/>
      </contour>
      <contour>
        <pt x="50" y="784" on="1"/>
        <pt x="50" y="8" on="1"/>
        <pt x="202" y="8" on="1"/>
        <pt x="202" y="533" on="1"/>
        <pt x="650" y="8" on="1"/>
        <pt x="802" y="8" on="1"/>
        <pt x="802" y="784" on="1"/>
        <pt x="650" y="784" on="1"/>
        <pt x="650" y="261" on="1"/>
        <pt x="202" y="784" on="1"/>
      </contour>
    </TTGlyph>
    <TTGlyph name="Nacute.1" xMin="50" yMin="-2" xMax="802" yMax="1123">
      <component glyphName="Nacute.0" x="0" y="-10" flags="0x204"/>
    </TTGlyph>
    <TTGlyph name="Ncaron" xMin="85" yMin="35" xMax="767" yMax="989">
      <component glyphName="uni030C" x="383" y="61" flags="0x1004"/>
      <component glyphName="N" x="0" y="0" flags="0x1204"/>
    </TTGlyph>
    <TTGlyph name="Ncaron.0" xMin="50" yMin="8" xMax="802" yMax="1012">
      <contour>
        <pt x="326" y="1012" on="1"/>
        <pt x="397" y="844" on="1"/>
        <pt x="398" y="844" on="1"/>
        <pt x="473" y="844" on="1"/>
        <pt x="474" y="844" on="1"/>
        <pt x="526" y="1012" on="1"/>
        <pt x="450" y="1012" on="1"/>
        <pt x="430" y="904" on="1"/>
        <pt x="402" y="1012" on="1"/>
      </contour>
      <contour>
        <pt x="50" y="784" on="1"/>
        <pt x="50" y="8" on="1"/>
        <pt x="202" y="8" on="1"/>
        <pt x="202" y="533" on="1"/>
        <pt x="650" y="8" on="1"/>
        <pt x="802" y="8" on="1"/>
        <pt x="802" y="784" on="1"/>
        <pt x="650" y="784" on="1"/>
        <pt x="650" y="261" on="1"/>
        <pt x="202" y="784" on="1"/>
      </contour>
    </TTGlyph>
    <TTGlyph name="Ncaron.1" xMin="50" yMin="-2" xMax="802" yMax="1002">
      <component glyphName="Ncaron.0" x="0" y="-10" flags="0x204"/>
    </TTGlyph>
    <TTGlyph name="Ntilde" xMin="85" yMin="35" xMax="767" yMax="944">
      <component glyphName="tildecomb" x="383" y="29" flags="0x1004"/>
      <component glyphName="N" x="0" y="0" flags="0x1204"/>
    </TTGlyph>
    <TTGlyph name="Ntilde.0" xMin="50" yMin="8" xMax="802" yMax="961">
      <contour>
        <pt x="551" y="961" on="1"/>
        <pt x="541" y="951" on="1"/>
        <pt x="532" y="941" on="0"/>
        <pt x="515" y="931" on="1"/>
        <pt x="498" y="921" on="0"/>
        <pt x="483" y="921" on="1"/>
        <pt x="461" y="921" on="0"/>
        <pt x="438" y="921" on="1"/>
        <pt x="422" y="921" on="0"/>
        <pt x="399" y="935" on="1"/>
        <pt x="375" y="948" on="0"/>
        <pt x="358" y="948" on="1"/>
        <pt x="333" y="948" on="0"/>
        <pt x="301" y="920" on="1"/>
        <pt x="301" y="844" on="1"/>
        <pt x="310" y="851" on="1"/>
        <pt x="319" y="858" on="0"/>
        <pt x="334" y="865" on="1"/>
        <pt x="349" y="872" on="0"/>
        <pt x="360" y="872" on="1"/>
        <pt x="376" y="872" on="0"/>
        <pt x="399" y="858" on="1"/>
        <pt x="421" y="844" on="0"/>
        <pt x="437" y="844" on="1"/>
        <pt x="487" y="844" on="1"/>
        <pt x="503" y="844" on="0"/>
        <pt x="519" y="855" on="1"/>
        <pt x="535" y="865" on="0"/>
        <pt x="543" y="874" on="1"/>
        <pt x="550" y="883" on="0"/>
        <pt x="551" y="885" on="1"/>
      </contour>
      <contour>
        <pt x="50" y="784" on="1"/>
        <pt x="50" y="8" on="1"/>
        <pt x="202" y="8" on="1"/>
        <pt x="202" y="533" on="1"/>
        <pt x="650" y="8" on="1"/>
        <pt x="802" y="8" on="1"/>
        <pt x="802" y="784" on="1"/>
        <pt x="650" y="784" on="1"/>
        <pt x="650" y="261" on="1"/>
        <pt x="202" y="784" on="1"/>
      </contour>
    </TTGlyph>
    <TTGlyph name="Ntilde.1" xMin="50" yMin="-2" xMax="802" yMax="951">
      <component glyphName="Ntilde.0" x="0" y="-10" flags="0x204"/>
    </TTGlyph>
    <TTGlyph name="O" xMin="86" yMin="23" xMax="778" yMax="736">
      <contour>
        <pt x="774" y="380" on="1"/>
        <pt x="774" y="475" on="0"/>
        <pt x="682" y="637" on="0"/>
        <pt x="525" y="731" on="0"/>
        <pt x="339" y="731" on="0"/>
        <pt x="182" y="637" on="0"/>
        <pt x="90" y="475" on="0"/>
        <pt x="90" y="380" on="1"/>
        <pt x="90" y="284" on="0"/>
        <pt x="182" y="122" on="0"/>
        <pt x="339" y="28" on="0"/>
        <pt x="525" y="28" on="0"/>
        <pt x="682" y="122" on="0"/>
        <pt x="774" y="284" on="0"/>
      </contour>
      <contour>
        <pt x="778" y="380" on="1"/>
        <pt x="778" y="283" on="0"/>
        <pt x="685" y="118" on="0"/>
        <pt x="526" y="23" on="0"/>
        <pt x="338" y="23" on="0"/>
        <pt x="179" y="118" on="0"/>
        <pt x="86" y="283" on="0"/>
        <pt x="86" y="380" on="1"/>
        <pt x="86" y="477" on="0"/>
        <pt x="179" y="641" on="0"/>
        <pt x="338" y="736" on="0"/>
        <pt x="526" y="736" on="0"/>
        <pt x="685" y="641" on="0"/>
        <pt x="778" y="477" on="0"/>
      </contour>
      <contour>
        <pt x="636" y="378" on="1"/>
        <pt x="636" y="464" on="0"/>
        <pt x="517" y="586" on="0"/>
        <pt x="347" y="586" on="0"/>
        <pt x="228" y="464" on="0"/>
        <pt x="228" y="378" on="1"/>
        <pt x="228" y="291" on="0"/>
        <pt x="347" y="169" on="0"/>
        <pt x="517" y="169" on="0"/>
        <pt x="636" y="291" on="0"/>
      </contour>
      <contour>
        <pt x="640" y="378" on="1"/>
        <pt x="640" y="289" on="0"/>
        <pt x="519" y="164" on="0"/>
        <pt x="345" y="164" on="0"/>
        <pt x="224" y="289" on="0"/>
        <pt x="224" y="378" on="1"/>
        <pt x="224" y="466" on="0"/>
        <pt x="345" y="591" on="0"/>
        <pt x="519" y="591" on="0"/>
        <pt x="640" y="466" on="0"/>
      </contour>
    </TTGlyph>
    <TTGlyph name="O.0" xMin="50" yMin="-4" xMax="814" yMax="783">
      <contour>
        <pt x="814" y="390" on="1"/>
        <pt x="814" y="553" on="0"/>
        <pt x="702" y="668" on="1"/>
        <pt x="590" y="783" on="0"/>
        <pt x="432" y="783" on="1"/>
        <pt x="274" y="783" on="0"/>
        <pt x="162" y="668" on="1"/>
        <pt x="50" y="553" on="0"/>
        <pt x="50" y="390" on="1"/>
        <pt x="50" y="227" on="0"/>
        <pt x="162" y="112" on="1"/>
        <pt x="274" y="-4" on="0"/>
        <pt x="432" y="-4" on="1"/>
        <pt x="590" y="-4" on="0"/>
        <pt x="702" y="112" on="1"/>
        <pt x="814" y="227" on="0"/>
      </contour>
      <contour>
        <pt x="661" y="388" on="1"/>
        <pt x="661" y="290" on="0"/>
        <pt x="594" y="222" on="1"/>
        <pt x="527" y="153" on="0"/>
        <pt x="432" y="153" on="1"/>
        <pt x="337" y="153" on="0"/>
        <pt x="270" y="222" on="1"/>
        <pt x="203" y="290" on="0"/>
        <pt x="203" y="388" on="1"/>
        <pt x="203" y="485" on="0"/>
        <pt x="270" y="554" on="1"/>
        <pt x="337" y="622" on="0"/>
        <pt x="432" y="622" on="1"/>
        <pt x="527" y="622" on="0"/>
        <pt x="594" y="554" on="1"/>
        <pt x="661" y="485" on="0"/>
      </contour>
    </TTGlyph>
    <TTGlyph name="O.1" xMin="50" yMin="-14" xMax="814" yMax="773">
      <component glyphName="O.0" x="0" y="-10" flags="0x204"/>
    </TTGlyph>
    <TTGlyph name="OE" xMin="96" yMin="23" xMax="972" yMax="741">
      <contour>
        <pt x="458" y="731" on="1"/>
        <pt x="456" y="731" on="0"/>
        <pt x="445" y="732" on="0"/>
        <pt x="442" y="732" on="1"/>
        <pt x="349" y="732" on="0"/>
        <pt x="192" y="638" on="0"/>
        <pt x="101" y="476" on="0"/>
        <pt x="101" y="380" on="1"/>
        <pt x="101" y="284" on="0"/>
        <pt x="192" y="122" on="0"/>
        <pt x="349" y="28" on="0"/>
        <pt x="442" y="28" on="1"/>
        <pt x="474" y="28" on="0"/>
        <pt x="506" y="34" on="1"/>
        <pt x="506" y="36" on="1"/>
        <pt x="506" y="38" on="0"/>
        <pt x="508" y="38" on="1"/>
        <pt x="967" y="38" on="1"/>
        <pt x="966" y="170" on="1"/>
        <pt x="595" y="170" on="1"/>
        <pt x="593" y="170" on="0"/>
        <pt x="593" y="172" on="1"/>
        <pt x="593" y="338" on="1"/>
        <pt x="593" y="340" on="0"/>
        <pt x="595" y="340" on="1"/>
        <pt x="870" y="340" on="1"/>
        <pt x="869" y="472" on="1"/>
        <pt x="595" y="472" on="1"/>
        <pt x="593" y="472" on="0"/>
        <pt x="593" y="475" on="1"/>
        <pt x="593" y="602" on="1"/>
        <pt x="593" y="604" on="0"/>
        <pt x="595" y="604" on="1"/>
        <pt x="967" y="604" on="1"/>
        <pt x="966" y="736" on="1"/>
        <pt x="461" y="736" on="1"/>
        <pt x="461" y="734" on="1"/>
        <pt x="461" y="731" on="0"/>
      </contour>
      <contour>
        <pt x="872" y="336" on="1"/>
        <pt x="597" y="336" on="1"/>
        <pt x="597" y="175" on="1"/>
        <pt x="969" y="175" on="1"/>
        <pt x="971" y="175" on="0"/>
        <pt x="971" y="172" on="1"/>
        <pt x="972" y="36" on="1"/>
        <pt x="972" y="33" on="0"/>
        <pt x="970" y="33" on="1"/>
        <pt x="510" y="33" on="1"/>
        <pt x="510" y="32" on="1"/>
        <pt x="510" y="30" on="0"/>
        <pt x="508" y="30" on="1"/>
        <pt x="476" y="23" on="0"/>
        <pt x="442" y="23" on="1"/>
        <pt x="348" y="23" on="0"/>
        <pt x="189" y="119" on="0"/>
        <pt x="96" y="283" on="0"/>
        <pt x="96" y="380" on="1"/>
        <pt x="96" y="477" on="0"/>
        <pt x="189" y="641" on="0"/>
        <pt x="348" y="736" on="0"/>
        <pt x="442" y="736" on="1"/>
        <pt x="449" y="736" on="0"/>
        <pt x="456" y="736" on="1"/>
        <pt x="456" y="738" on="1"/>
        <pt x="456" y="741" on="0"/>
        <pt x="458" y="741" on="1"/>
        <pt x="969" y="741" on="1"/>
        <pt x="971" y="741" on="0"/>
        <pt x="971" y="738" on="1"/>
        <pt x="972" y="602" on="1"/>
        <pt x="972" y="599" on="0"/>
        <pt x="970" y="599" on="1"/>
        <pt x="597" y="599" on="1"/>
        <pt x="597" y="477" on="1"/>
        <pt x="872" y="477" on="1"/>
        <pt x="874" y="477" on="0"/>
        <pt x="874" y="475" on="1"/>
        <pt x="875" y="338" on="1"/>
        <pt x="875" y="336" on="0"/>
      </contour>
      <contour>
        <pt x="442" y="587" on="1"/>
        <pt x="358" y="587" on="0"/>
        <pt x="238" y="465" on="0"/>
        <pt x="238" y="378" on="1"/>
        <pt x="238" y="292" on="0"/>
        <pt x="357" y="169" on="0"/>
        <pt x="442" y="169" on="1"/>
        <pt x="449" y="169" on="0"/>
        <pt x="456" y="170" on="1"/>
        <pt x="456" y="586" on="1"/>
        <pt x="449" y="587" on="0"/>
      </contour>
      <contour>
        <pt x="442" y="591" on="1"/>
        <pt x="450" y="591" on="0"/>
        <pt x="459" y="591" on="1"/>
        <pt x="461" y="590" on="0"/>
        <pt x="461" y="588" on="1"/>
        <pt x="461" y="168" on="1"/>
        <pt x="461" y="165" on="0"/>
        <pt x="459" y="165" on="1"/>
        <pt x="450" y="165" on="0"/>
        <pt x="442" y="165" on="1"/>
        <pt x="356" y="165" on="0"/>
        <pt x="234" y="290" on="0"/>
        <pt x="234" y="378" on="1"/>
        <pt x="234" y="467" on="0"/>
        <pt x="356" y="591" on="0"/>
      </contour>
    </TTGlyph>
    <TTGlyph name="OE.0" xMin="50" yMin="-4" xMax="1018" yMax="788">
      <contour>
        <pt x="909" y="495" on="1"/>
        <pt x="602" y="495" on="1"/>
        <pt x="602" y="636" on="1"/>
        <pt x="1018" y="636" on="1"/>
        <pt x="1017" y="788" on="1"/>
        <pt x="450" y="788" on="1"/>
        <pt x="450" y="784" on="1"/>
        <pt x="450" y="783" on="1"/>
        <pt x="441" y="783" on="0"/>
        <pt x="432" y="783" on="1"/>
        <pt x="274" y="783" on="0"/>
        <pt x="162" y="668" on="1"/>
        <pt x="50" y="553" on="0"/>
        <pt x="50" y="390" on="1"/>
        <pt x="50" y="227" on="0"/>
        <pt x="162" y="112" on="1"/>
        <pt x="274" y="-4" on="0"/>
        <pt x="432" y="-4" on="1"/>
        <pt x="469" y="-4" on="0"/>
        <pt x="505" y="3" on="1"/>
        <pt x="505" y="7" on="1"/>
        <pt x="1018" y="7" on="1"/>
        <pt x="1017" y="159" on="1"/>
        <pt x="602" y="159" on="1"/>
        <pt x="602" y="343" on="1"/>
        <pt x="910" y="343" on="1"/>
      </contour>
      <contour>
        <pt x="432" y="622" on="1"/>
        <pt x="441" y="622" on="0"/>
        <pt x="450" y="621" on="1"/>
        <pt x="450" y="154" on="1"/>
        <pt x="441" y="153" on="0"/>
        <pt x="432" y="153" on="1"/>
        <pt x="337" y="153" on="0"/>
        <pt x="270" y="222" on="1"/>
        <pt x="203" y="290" on="0"/>
        <pt x="203" y="388" on="1"/>
        <pt x="203" y="485" on="0"/>
        <pt x="270" y="554" on="1"/>
        <pt x="337" y="622" on="0"/>
      </contour>
    </TTGlyph>
    <TTGlyph name="OE.1" xMin="50" yMin="-14" xMax="1018" yMax="778">
      <component glyphName="OE.0" x="0" y="-10" flags="0x204"/>
    </TTGlyph>
    <TTGlyph name="Oacute" xMin="86" yMin="23" xMax="778" yMax="1078">
      <component glyphName="acutecomb" x="422" y="285" flags="0x1004"/>
      <component glyphName="O" x="0" y="0" flags="0x1204"/>
    </TTGlyph>
    <TTGlyph name="Oacute.0" xMin="50" yMin="-4" xMax="814" yMax="1132">
      <contour>
        <pt x="432" y="843" on="1"/>
        <pt x="614" y="1025" on="1"/>
        <pt x="506" y="1132" on="1"/>
        <pt x="324" y="950" on="1"/>
      </contour>
      <contour>
        <pt x="814" y="390" on="1"/>
        <pt x="814" y="553" on="0"/>
        <pt x="702" y="668" on="1"/>
        <pt x="590" y="783" on="0"/>
        <pt x="432" y="783" on="1"/>
        <pt x="274" y="783" on="0"/>
        <pt x="162" y="668" on="1"/>
        <pt x="50" y="553" on="0"/>
        <pt x="50" y="390" on="1"/>
        <pt x="50" y="227" on="0"/>
        <pt x="162" y="112" on="1"/>
        <pt x="274" y="-4" on="0"/>
        <pt x="432" y="-4" on="1"/>
        <pt x="590" y="-4" on="0"/>
        <pt x="702" y="112" on="1"/>
        <pt x="814" y="227" on="0"/>
      </contour>
      <contour>
        <pt x="661" y="388" on="1"/>
        <pt x="661" y="290" on="0"/>
        <pt x="594" y="222" on="1"/>
        <pt x="527" y="153" on="0"/>
        <pt x="432" y="153" on="1"/>
        <pt x="337" y="153" on="0"/>
        <pt x="270" y="222" on="1"/>
        <pt x="203" y="290" on="0"/>
        <pt x="203" y="388" on="1"/>
        <pt x="203" y="485" on="0"/>
        <pt x="270" y="554" on="1"/>
        <pt x="337" y="622" on="0"/>
        <pt x="432" y="622" on="1"/>
        <pt x="527" y="622" on="0"/>
        <pt x="594" y="554" on="1"/>
        <pt x="661" y="485" on="0"/>
      </contour>
    </TTGlyph>
    <TTGlyph name="Oacute.1" xMin="50" yMin="-14" xMax="814" yMax="1122">
      <component glyphName="Oacute.0" x="0" y="-10" flags="0x204"/>
    </TTGlyph>
    <TTGlyph name="Obreve" xMin="86" yMin="23" xMax="778" yMax="950">
      <component glyphName="uni0306" x="389" y="23" flags="0x1004"/>
      <component glyphName="O" x="0" y="0" flags="0x1204"/>
    </TTGlyph>
    <TTGlyph name="Obreve.0" xMin="50" yMin="-4" xMax="814" yMax="967">
      <contour>
        <pt x="560" y="967" on="1"/>
        <pt x="484" y="967" on="1"/>
        <pt x="486" y="959" on="0"/>
        <pt x="486" y="953" on="1"/>
        <pt x="486" y="931" on="0"/>
        <pt x="471" y="915" on="1"/>
        <pt x="455" y="899" on="0"/>
        <pt x="433" y="899" on="1"/>
        <pt x="410" y="899" on="0"/>
        <pt x="394" y="915" on="1"/>
        <pt x="378" y="931" on="0"/>
        <pt x="378" y="953" on="1"/>
        <pt x="378" y="959" on="0"/>
        <pt x="380" y="967" on="1"/>
        <pt x="304" y="967" on="1"/>
        <pt x="304" y="953" on="1"/>
        <pt x="304" y="899" on="0"/>
        <pt x="341" y="862" on="1"/>
        <pt x="378" y="825" on="0"/>
        <pt x="432" y="825" on="1"/>
        <pt x="486" y="825" on="0"/>
        <pt x="523" y="863" on="1"/>
        <pt x="560" y="900" on="0"/>
        <pt x="560" y="953" on="1"/>
        <pt x="560" y="967" on="0"/>
      </contour>
      <contour>
        <pt x="814" y="390" on="1"/>
        <pt x="814" y="553" on="0"/>
        <pt x="702" y="668" on="1"/>
        <pt x="590" y="783" on="0"/>
        <pt x="432" y="783" on="1"/>
        <pt x="274" y="783" on="0"/>
        <pt x="162" y="668" on="1"/>
        <pt x="50" y="553" on="0"/>
        <pt x="50" y="390" on="1"/>
        <pt x="50" y="227" on="0"/>
        <pt x="162" y="112" on="1"/>
        <pt x="274" y="-4" on="0"/>
        <pt x="432" y="-4" on="1"/>
        <pt x="590" y="-4" on="0"/>
        <pt x="702" y="112" on="1"/>
        <pt x="814" y="227" on="0"/>
      </contour>
      <contour>
        <pt x="661" y="388" on="1"/>
        <pt x="661" y="290" on="0"/>
        <pt x="594" y="222" on="1"/>
        <pt x="527" y="153" on="0"/>
        <pt x="432" y="153" on="1"/>
        <pt x="337" y="153" on="0"/>
        <pt x="270" y="222" on="1"/>
        <pt x="203" y="290" on="0"/>
        <pt x="203" y="388" on="1"/>
        <pt x="203" y="485" on="0"/>
        <pt x="270" y="554" on="1"/>
        <pt x="337" y="622" on="0"/>
        <pt x="432" y="622" on="1"/>
        <pt x="527" y="622" on="0"/>
        <pt x="594" y="554" on="1"/>
        <pt x="661" y="485" on="0"/>
      </contour>
    </TTGlyph>
    <TTGlyph name="Obreve.1" xMin="50" yMin="-14" xMax="814" yMax="957">
      <component glyphName="Obreve.0" x="0" y="-10" flags="0x204"/>
    </TTGlyph>
    <TTGlyph name="Ocircumflex" xMin="86" yMin="23" xMax="778" yMax="987">
      <component glyphName="uni0302" x="389" y="60" flags="0x1004"/>
      <component glyphName="O" x="0" y="0" flags="0x1204"/>
    </TTGlyph>
    <TTGlyph name="Ocircumflex.0" xMin="50" yMin="-4" xMax="814" yMax="1010">
      <contour>
        <pt x="332" y="842" on="1"/>
        <pt x="408" y="842" on="1"/>
        <pt x="436" y="950" on="1"/>
        <pt x="456" y="842" on="1"/>
        <pt x="532" y="842" on="1"/>
        <pt x="480" y="1010" on="1"/>
        <pt x="479" y="1010" on="1"/>
        <pt x="404" y="1010" on="1"/>
        <pt x="403" y="1010" on="1"/>
      </contour>
      <contour>
        <pt x="814" y="390" on="1"/>
        <pt x="814" y="553" on="0"/>
        <pt x="702" y="668" on="1"/>
        <pt x="590" y="783" on="0"/>
        <pt x="432" y="783" on="1"/>
        <pt x="274" y="783" on="0"/>
        <pt x="162" y="668" on="1"/>
        <pt x="50" y="553" on="0"/>
        <pt x="50" y="390" on="1"/>
        <pt x="50" y="227" on="0"/>
        <pt x="162" y="112" on="1"/>
        <pt x="274" y="-4" on="0"/>
        <pt x="432" y="-4" on="1"/>
        <pt x="590" y="-4" on="0"/>
        <pt x="702" y="112" on="1"/>
        <pt x="814" y="227" on="0"/>
      </contour>
      <contour>
        <pt x="661" y="388" on="1"/>
        <pt x="661" y="290" on="0"/>
        <pt x="594" y="222" on="1"/>
        <pt x="527" y="153" on="0"/>
        <pt x="432" y="153" on="1"/>
        <pt x="337" y="153" on="0"/>
        <pt x="270" y="222" on="1"/>
        <pt x="203" y="290" on="0"/>
        <pt x="203" y="388" on="1"/>
        <pt x="203" y="485" on="0"/>
        <pt x="270" y="554" on="1"/>
        <pt x="337" y="622" on="0"/>
        <pt x="432" y="622" on="1"/>
        <pt x="527" y="622" on="0"/>
        <pt x="594" y="554" on="1"/>
        <pt x="661" y="485" on="0"/>
      </contour>
    </TTGlyph>
    <TTGlyph name="Ocircumflex.1" xMin="50" yMin="-14" xMax="814" yMax="1000">
      <component glyphName="Ocircumflex.0" x="0" y="-10" flags="0x204"/>
    </TTGlyph>
    <TTGlyph name="Odieresis" xMin="86" yMin="23" xMax="778" yMax="937">
      <component glyphName="uni0308" x="389" y="302" flags="0x1004"/>
      <component glyphName="O" x="0" y="0" flags="0x1204"/>
    </TTGlyph>
    <TTGlyph name="Odieresis.0" xMin="50" yMin="-4" xMax="814" yMax="985">
      <contour>
        <pt x="456" y="843" on="1"/>
        <pt x="608" y="843" on="1"/>
        <pt x="608" y="985" on="1"/>
        <pt x="456" y="985" on="1"/>
      </contour>
      <contour>
        <pt x="256" y="843" on="1"/>
        <pt x="408" y="843" on="1"/>
        <pt x="408" y="985" on="1"/>
        <pt x="256" y="985" on="1"/>
      </contour>
      <contour>
        <pt x="814" y="390" on="1"/>
        <pt x="814" y="553" on="0"/>
        <pt x="702" y="668" on="1"/>
        <pt x="590" y="783" on="0"/>
        <pt x="432" y="783" on="1"/>
        <pt x="274" y="783" on="0"/>
        <pt x="162" y="668" on="1"/>
        <pt x="50" y="553" on="0"/>
        <pt x="50" y="390" on="1"/>
        <pt x="50" y="227" on="0"/>
        <pt x="162" y="112" on="1"/>
        <pt x="274" y="-4" on="0"/>
        <pt x="432" y="-4" on="1"/>
        <pt x="590" y="-4" on="0"/>
        <pt x="702" y="112" on="1"/>
        <pt x="814" y="227" on="0"/>
      </contour>
      <contour>
        <pt x="661" y="388" on="1"/>
        <pt x="661" y="290" on="0"/>
        <pt x="594" y="222" on="1"/>
        <pt x="527" y="153" on="0"/>
        <pt x="432" y="153" on="1"/>
        <pt x="337" y="153" on="0"/>
        <pt x="270" y="222" on="1"/>
        <pt x="203" y="290" on="0"/>
        <pt x="203" y="388" on="1"/>
        <pt x="203" y="485" on="0"/>
        <pt x="270" y="554" on="1"/>
        <pt x="337" y="622" on="0"/>
        <pt x="432" y="622" on="1"/>
        <pt x="527" y="622" on="0"/>
        <pt x="594" y="554" on="1"/>
        <pt x="661" y="485" on="0"/>
      </contour>
    </TTGlyph>
    <TTGlyph name="Odieresis.1" xMin="50" yMin="-14" xMax="814" yMax="975">
      <component glyphName="Odieresis.0" x="0" y="-10" flags="0x204"/>
    </TTGlyph>
    <TTGlyph name="Ograve" xMin="86" yMin="23" xMax="778" yMax="1078">
      <component glyphName="gravecomb" x="356" y="285" flags="0x1004"/>
      <component glyphName="O" x="0" y="0" flags="0x1204"/>
    </TTGlyph>
    <TTGlyph name="Ograve.0" xMin="50" yMin="-4" xMax="814" yMax="1132">
      <contour>
        <pt x="432" y="843" on="1"/>
        <pt x="540" y="950" on="1"/>
        <pt x="358" y="1132" on="1"/>
        <pt x="250" y="1025" on="1"/>
      </contour>
      <contour>
        <pt x="814" y="390" on="1"/>
        <pt x="814" y="553" on="0"/>
        <pt x="702" y="668" on="1"/>
        <pt x="590" y="783" on="0"/>
        <pt x="432" y="783" on="1"/>
        <pt x="274" y="783" on="0"/>
        <pt x="162" y="668" on="1"/>
        <pt x="50" y="553" on="0"/>
        <pt x="50" y="390" on="1"/>
        <pt x="50" y="227" on="0"/>
        <pt x="162" y="112" on="1"/>
        <pt x="274" y="-4" on="0"/>
        <pt x="432" y="-4" on="1"/>
        <pt x="590" y="-4" on="0"/>
        <pt x="702" y="112" on="1"/>
        <pt x="814" y="227" on="0"/>
      </contour>
      <contour>
        <pt x="661" y="388" on="1"/>
        <pt x="661" y="290" on="0"/>
        <pt x="594" y="222" on="1"/>
        <pt x="527" y="153" on="0"/>
        <pt x="432" y="153" on="1"/>
        <pt x="337" y="153" on="0"/>
        <pt x="270" y="222" on="1"/>
        <pt x="203" y="290" on="0"/>
        <pt x="203" y="388" on="1"/>
        <pt x="203" y="485" on="0"/>
        <pt x="270" y="554" on="1"/>
        <pt x="337" y="622" on="0"/>
        <pt x="432" y="622" on="1"/>
        <pt x="527" y="622" on="0"/>
        <pt x="594" y="554" on="1"/>
        <pt x="661" y="485" on="0"/>
      </contour>
    </TTGlyph>
    <TTGlyph name="Ograve.1" xMin="50" yMin="-14" xMax="814" yMax="1122">
      <component glyphName="Ograve.0" x="0" y="-10" flags="0x204"/>
    </TTGlyph>
    <TTGlyph name="Ohungarumlaut" xMin="86" yMin="23" xMax="778" yMax="1080">
      <component glyphName="uni030B" x="422" y="287" flags="0x1004"/>
      <component glyphName="O" x="0" y="0" flags="0x1204"/>
    </TTGlyph>
    <TTGlyph name="Ohungarumlaut.0" xMin="50" yMin="-4" xMax="814" yMax="1134">
      <contour>
        <pt x="575" y="843" on="1"/>
        <pt x="757" y="1025" on="1"/>
        <pt x="649" y="1132" on="1"/>
        <pt x="467" y="950" on="1"/>
      </contour>
      <contour>
        <pt x="289" y="845" on="1"/>
        <pt x="471" y="1027" on="1"/>
        <pt x="363" y="1134" on="1"/>
        <pt x="181" y="952" on="1"/>
      </contour>
      <contour>
        <pt x="814" y="390" on="1"/>
        <pt x="814" y="553" on="0"/>
        <pt x="702" y="668" on="1"/>
        <pt x="590" y="783" on="0"/>
        <pt x="432" y="783" on="1"/>
        <pt x="274" y="783" on="0"/>
        <pt x="162" y="668" on="1"/>
        <pt x="50" y="553" on="0"/>
        <pt x="50" y="390" on="1"/>
        <pt x="50" y="227" on="0"/>
        <pt x="162" y="112" on="1"/>
        <pt x="274" y="-4" on="0"/>
        <pt x="432" y="-4" on="1"/>
        <pt x="590" y="-4" on="0"/>
        <pt x="702" y="112" on="1"/>
        <pt x="814" y="227" on="0"/>
      </contour>
      <contour>
        <pt x="661" y="388" on="1"/>
        <pt x="661" y="290" on="0"/>
        <pt x="594" y="222" on="1"/>
        <pt x="527" y="153" on="0"/>
        <pt x="432" y="153" on="1"/>
        <pt x="337" y="153" on="0"/>
        <pt x="270" y="222" on="1"/>
        <pt x="203" y="290" on="0"/>
        <pt x="203" y="388" on="1"/>
        <pt x="203" y="485" on="0"/>
        <pt x="270" y="554" on="1"/>
        <pt x="337" y="622" on="0"/>
        <pt x="432" y="622" on="1"/>
        <pt x="527" y="622" on="0"/>
        <pt x="594" y="554" on="1"/>
        <pt x="661" y="485" on="0"/>
      </contour>
    </TTGlyph>
    <TTGlyph name="Ohungarumlaut.1" xMin="50" yMin="-14" xMax="814" yMax="1124">
      <component glyphName="Ohungarumlaut.0" x="0" y="-10" flags="0x204"/>
    </TTGlyph>
    <TTGlyph name="Omacron" xMin="86" yMin="23" xMax="778" yMax="902">
      <component glyphName="uni0304" x="389" y="46" flags="0x1004"/>
      <component glyphName="O" x="0" y="0" flags="0x1204"/>
    </TTGlyph>
    <TTGlyph name="Omacron.0" xMin="50" yMin="-4" xMax="814" yMax="919">
      <contour>
        <pt x="568" y="919" on="1"/>
        <pt x="296" y="919" on="1"/>
        <pt x="296" y="843" on="1"/>
        <pt x="568" y="843" on="1"/>
      </contour>
      <contour>
        <pt x="814" y="390" on="1"/>
        <pt x="814" y="553" on="0"/>
        <pt x="702" y="668" on="1"/>
        <pt x="590" y="783" on="0"/>
        <pt x="432" y="783" on="1"/>
        <pt x="274" y="783" on="0"/>
        <pt x="162" y="668" on="1"/>
        <pt x="50" y="553" on="0"/>
        <pt x="50" y="390" on="1"/>
        <pt x="50" y="227" on="0"/>
        <pt x="162" y="112" on="1"/>
        <pt x="274" y="-4" on="0"/>
        <pt x="432" y="-4" on="1"/>
        <pt x="590" y="-4" on="0"/>
        <pt x="702" y="112" on="1"/>
        <pt x="814" y="227" on="0"/>
      </contour>
      <contour>
        <pt x="661" y="388" on="1"/>
        <pt x="661" y="290" on="0"/>
        <pt x="594" y="222" on="1"/>
        <pt x="527" y="153" on="0"/>
        <pt x="432" y="153" on="1"/>
        <pt x="337" y="153" on="0"/>
        <pt x="270" y="222" on="1"/>
        <pt x="203" y="290" on="0"/>
        <pt x="203" y="388" on="1"/>
        <pt x="203" y="485" on="0"/>
        <pt x="270" y="554" on="1"/>
        <pt x="337" y="622" on="0"/>
        <pt x="432" y="622" on="1"/>
        <pt x="527" y="622" on="0"/>
        <pt x="594" y="554" on="1"/>
        <pt x="661" y="485" on="0"/>
      </contour>
    </TTGlyph>
    <TTGlyph name="Omacron.1" xMin="50" yMin="-14" xMax="814" yMax="909">
      <component glyphName="Omacron.0" x="0" y="-10" flags="0x204"/>
    </TTGlyph>
    <TTGlyph name="Oslash" xMin="86" yMin="-40" xMax="778" yMax="775">
      <contour>
        <pt x="774" y="379" on="1"/>
        <pt x="774" y="458" on="0"/>
        <pt x="710" y="597" on="0"/>
        <pt x="654" y="646" on="1"/>
        <pt x="653" y="647" on="0"/>
        <pt x="653" y="648" on="1"/>
        <pt x="653" y="648" on="0"/>
        <pt x="653" y="649" on="1"/>
        <pt x="693" y="717" on="1"/>
        <pt x="601" y="770" on="1"/>
        <pt x="564" y="705" on="1"/>
        <pt x="563" y="704" on="0"/>
        <pt x="562" y="704" on="1"/>
        <pt x="561" y="704" on="0"/>
        <pt x="561" y="704" on="1"/>
        <pt x="499" y="730" on="0"/>
        <pt x="432" y="730" on="1"/>
        <pt x="339" y="730" on="0"/>
        <pt x="182" y="636" on="0"/>
        <pt x="90" y="474" on="0"/>
        <pt x="90" y="379" on="1"/>
        <pt x="90" y="298" on="0"/>
        <pt x="157" y="155" on="0"/>
        <pt x="216" y="106" on="1"/>
        <pt x="216" y="105" on="0"/>
        <pt x="216" y="104" on="1"/>
        <pt x="216" y="104" on="0"/>
        <pt x="216" y="103" on="1"/>
        <pt x="167" y="18" on="1"/>
        <pt x="258" y="-35" on="1"/>
        <pt x="307" y="49" on="1"/>
        <pt x="307" y="50" on="0"/>
        <pt x="309" y="50" on="1"/>
        <pt x="368" y="26" on="0"/>
        <pt x="432" y="26" on="1"/>
        <pt x="525" y="26" on="0"/>
        <pt x="682" y="121" on="0"/>
        <pt x="774" y="283" on="0"/>
      </contour>
      <contour>
        <pt x="778" y="379" on="1"/>
        <pt x="778" y="282" on="0"/>
        <pt x="685" y="117" on="0"/>
        <pt x="526" y="22" on="0"/>
        <pt x="432" y="22" on="1"/>
        <pt x="368" y="22" on="0"/>
        <pt x="310" y="45" on="1"/>
        <pt x="261" y="-39" on="1"/>
        <pt x="260" y="-40" on="0"/>
        <pt x="259" y="-40" on="1"/>
        <pt x="259" y="-40" on="0"/>
        <pt x="258" y="-40" on="1"/>
        <pt x="163" y="15" on="1"/>
        <pt x="162" y="16" on="0"/>
        <pt x="162" y="17" on="1"/>
        <pt x="162" y="18" on="0"/>
        <pt x="162" y="18" on="1"/>
        <pt x="211" y="104" on="1"/>
        <pt x="153" y="154" on="0"/>
        <pt x="86" y="297" on="0"/>
        <pt x="86" y="379" on="1"/>
        <pt x="86" y="475" on="0"/>
        <pt x="179" y="639" on="0"/>
        <pt x="338" y="735" on="0"/>
        <pt x="432" y="735" on="1"/>
        <pt x="499" y="735" on="0"/>
        <pt x="561" y="709" on="1"/>
        <pt x="598" y="774" on="1"/>
        <pt x="599" y="775" on="0"/>
        <pt x="600" y="775" on="1"/>
        <pt x="601" y="775" on="0"/>
        <pt x="601" y="775" on="1"/>
        <pt x="697" y="720" on="1"/>
        <pt x="698" y="719" on="0"/>
        <pt x="698" y="718" on="1"/>
        <pt x="698" y="717" on="0"/>
        <pt x="698" y="717" on="1"/>
        <pt x="658" y="648" on="1"/>
        <pt x="714" y="598" on="0"/>
        <pt x="778" y="458" on="0"/>
      </contour>
      <contour>
        <pt x="432" y="585" on="1"/>
        <pt x="347" y="585" on="0"/>
        <pt x="228" y="463" on="0"/>
        <pt x="228" y="377" on="1"/>
        <pt x="228" y="292" on="0"/>
        <pt x="285" y="232" on="1"/>
        <pt x="485" y="578" on="1"/>
        <pt x="459" y="585" on="0"/>
      </contour>
      <contour>
        <pt x="286" y="226" on="1"/>
        <pt x="285" y="226" on="0"/>
        <pt x="284" y="226" on="1"/>
        <pt x="224" y="289" on="0"/>
        <pt x="224" y="465" on="0"/>
        <pt x="345" y="590" on="0"/>
        <pt x="432" y="590" on="1"/>
        <pt x="461" y="590" on="0"/>
        <pt x="489" y="582" on="1"/>
        <pt x="491" y="581" on="0"/>
        <pt x="491" y="580" on="1"/>
        <pt x="491" y="579" on="0"/>
        <pt x="491" y="578" on="1"/>
        <pt x="288" y="227" on="1"/>
        <pt x="287" y="226" on="0"/>
      </contour>
      <contour>
        <pt x="636" y="377" on="1"/>
        <pt x="636" y="458" on="0"/>
        <pt x="583" y="518" on="1"/>
        <pt x="384" y="174" on="1"/>
        <pt x="407" y="168" on="0"/>
        <pt x="432" y="168" on="1"/>
        <pt x="517" y="168" on="0"/>
        <pt x="636" y="290" on="0"/>
      </contour>
      <contour>
        <pt x="640" y="377" on="1"/>
        <pt x="640" y="288" on="0"/>
        <pt x="519" y="163" on="0"/>
        <pt x="432" y="163" on="1"/>
        <pt x="405" y="163" on="0"/>
        <pt x="380" y="170" on="1"/>
        <pt x="378" y="170" on="0"/>
        <pt x="378" y="172" on="1"/>
        <pt x="378" y="173" on="0"/>
        <pt x="379" y="173" on="1"/>
        <pt x="580" y="522" on="1"/>
        <pt x="581" y="524" on="0"/>
        <pt x="582" y="524" on="1"/>
        <pt x="583" y="524" on="0"/>
        <pt x="584" y="523" on="1"/>
        <pt x="640" y="461" on="0"/>
      </contour>
    </TTGlyph>
    <TTGlyph name="Oslash.0" xMin="50" yMin="-73" xMax="814" yMax="828">
      <contour>
        <pt x="814" y="390" on="1"/>
        <pt x="814" y="478" on="0"/>
        <pt x="779" y="556" on="1"/>
        <pt x="743" y="634" on="0"/>
        <pt x="680" y="689" on="1"/>
        <pt x="725" y="767" on="1"/>
        <pt x="619" y="828" on="1"/>
        <pt x="576" y="754" on="1"/>
        <pt x="507" y="783" on="0"/>
        <pt x="432" y="783" on="1"/>
        <pt x="274" y="783" on="0"/>
        <pt x="162" y="668" on="1"/>
        <pt x="50" y="553" on="0"/>
        <pt x="50" y="390" on="1"/>
        <pt x="50" y="299" on="0"/>
        <pt x="88" y="220" on="1"/>
        <pt x="125" y="140" on="0"/>
        <pt x="190" y="85" on="1"/>
        <pt x="134" y="-12" on="1"/>
        <pt x="240" y="-73" on="1"/>
        <pt x="295" y="22" on="1"/>
        <pt x="361" y="-4" on="0"/>
        <pt x="432" y="-4" on="1"/>
        <pt x="590" y="-4" on="0"/>
        <pt x="702" y="112" on="1"/>
        <pt x="814" y="227" on="0"/>
      </contour>
      <contour>
        <pt x="495" y="613" on="1"/>
        <pt x="269" y="222" on="1"/>
        <pt x="203" y="291" on="0"/>
        <pt x="203" y="388" on="1"/>
        <pt x="203" y="485" on="0"/>
        <pt x="270" y="554" on="1"/>
        <pt x="337" y="622" on="0"/>
        <pt x="432" y="622" on="1"/>
        <pt x="464" y="622" on="0"/>
      </contour>
      <contour>
        <pt x="599" y="548" on="1"/>
        <pt x="661" y="481" on="0"/>
        <pt x="661" y="388" on="1"/>
        <pt x="661" y="290" on="0"/>
        <pt x="594" y="222" on="1"/>
        <pt x="527" y="153" on="0"/>
        <pt x="432" y="153" on="1"/>
        <pt x="403" y="153" on="0"/>
        <pt x="375" y="160" on="1"/>
      </contour>
    </TTGlyph>
    <TTGlyph name="Oslash.1" xMin="50" yMin="-83" xMax="814" yMax="818">
      <component glyphName="Oslash.0" x="0" y="-10" flags="0x204"/>
    </TTGlyph>
    <TTGlyph name="Otilde" xMin="86" yMin="23" xMax="778" yMax="943">
      <component glyphName="tildecomb" x="389" y="28" flags="0x1004"/>
      <component glyphName="O" x="0" y="0" flags="0x1204"/>
    </TTGlyph>
    <TTGlyph name="Otilde.0" xMin="50" yMin="-4" xMax="814" yMax="960">
      <contour>
        <pt x="557" y="960" on="1"/>
        <pt x="547" y="950" on="1"/>
        <pt x="538" y="940" on="0"/>
        <pt x="521" y="930" on="1"/>
        <pt x="504" y="920" on="0"/>
        <pt x="489" y="920" on="1"/>
        <pt x="467" y="920" on="0"/>
        <pt x="444" y="920" on="1"/>
        <pt x="428" y="920" on="0"/>
        <pt x="405" y="934" on="1"/>
        <pt x="381" y="947" on="0"/>
        <pt x="364" y="947" on="1"/>
        <pt x="339" y="947" on="0"/>
        <pt x="307" y="919" on="1"/>
        <pt x="307" y="843" on="1"/>
        <pt x="316" y="850" on="1"/>
        <pt x="325" y="857" on="0"/>
        <pt x="340" y="864" on="1"/>
        <pt x="355" y="871" on="0"/>
        <pt x="366" y="871" on="1"/>
        <pt x="382" y="871" on="0"/>
        <pt x="405" y="857" on="1"/>
        <pt x="427" y="843" on="0"/>
        <pt x="443" y="843" on="1"/>
        <pt x="493" y="843" on="1"/>
        <pt x="509" y="843" on="0"/>
        <pt x="525" y="854" on="1"/>
        <pt x="541" y="864" on="0"/>
        <pt x="549" y="873" on="1"/>
        <pt x="556" y="882" on="0"/>
        <pt x="557" y="884" on="1"/>
      </contour>
      <contour>
        <pt x="814" y="390" on="1"/>
        <pt x="814" y="553" on="0"/>
        <pt x="702" y="668" on="1"/>
        <pt x="590" y="783" on="0"/>
        <pt x="432" y="783" on="1"/>
        <pt x="274" y="783" on="0"/>
        <pt x="162" y="668" on="1"/>
        <pt x="50" y="553" on="0"/>
        <pt x="50" y="390" on="1"/>
        <pt x="50" y="227" on="0"/>
        <pt x="162" y="112" on="1"/>
        <pt x="274" y="-4" on="0"/>
        <pt x="432" y="-4" on="1"/>
        <pt x="590" y="-4" on="0"/>
        <pt x="702" y="112" on="1"/>
        <pt x="814" y="227" on="0"/>
      </contour>
      <contour>
        <pt x="661" y="388" on="1"/>
        <pt x="661" y="290" on="0"/>
        <pt x="594" y="222" on="1"/>
        <pt x="527" y="153" on="0"/>
        <pt x="432" y="153" on="1"/>
        <pt x="337" y="153" on="0"/>
        <pt x="270" y="222" on="1"/>
        <pt x="203" y="290" on="0"/>
        <pt x="203" y="388" on="1"/>
        <pt x="203" y="485" on="0"/>
        <pt x="270" y="554" on="1"/>
        <pt x="337" y="622" on="0"/>
        <pt x="432" y="622" on="1"/>
        <pt x="527" y="622" on="0"/>
        <pt x="594" y="554" on="1"/>
        <pt x="661" y="485" on="0"/>
      </contour>
    </TTGlyph>
    <TTGlyph name="Otilde.1" xMin="50" yMin="-14" xMax="814" yMax="950">
      <component glyphName="Otilde.0" x="0" y="-10" flags="0x204"/>
    </TTGlyph>
    <TTGlyph name="P" xMin="69" yMin="40" xMax="465" yMax="743">
      <contour>
        <pt x="74" y="44" on="1"/>
        <pt x="206" y="44" on="1"/>
        <pt x="206" y="279" on="1"/>
        <pt x="206" y="281" on="0"/>
        <pt x="208" y="281" on="1"/>
        <pt x="209" y="281" on="0"/>
        <pt x="209" y="281" on="1"/>
        <pt x="216" y="280" on="0"/>
        <pt x="230" y="280" on="1"/>
        <pt x="326" y="280" on="0"/>
        <pt x="460" y="414" on="0"/>
        <pt x="460" y="510" on="1"/>
        <pt x="460" y="605" on="0"/>
        <pt x="326" y="739" on="0"/>
        <pt x="230" y="739" on="1"/>
        <pt x="216" y="739" on="0"/>
        <pt x="209" y="738" on="1"/>
        <pt x="209" y="738" on="0"/>
        <pt x="208" y="738" on="1"/>
        <pt x="74" y="738" on="1"/>
      </contour>
      <contour>
        <pt x="208" y="40" on="1"/>
        <pt x="72" y="40" on="1"/>
        <pt x="69" y="40" on="0"/>
        <pt x="69" y="42" on="1"/>
        <pt x="69" y="740" on="1"/>
        <pt x="69" y="742" on="0"/>
        <pt x="72" y="742" on="1"/>
        <pt x="208" y="742" on="1"/>
        <pt x="216" y="743" on="0"/>
        <pt x="229" y="743" on="1"/>
        <pt x="230" y="743" on="1"/>
        <pt x="327" y="743" on="0"/>
        <pt x="465" y="607" on="0"/>
        <pt x="465" y="510" on="1"/>
        <pt x="465" y="412" on="0"/>
        <pt x="328" y="275" on="0"/>
        <pt x="230" y="275" on="1"/>
        <pt x="227" y="275" on="0"/>
        <pt x="214" y="276" on="0"/>
        <pt x="211" y="276" on="1"/>
        <pt x="211" y="42" on="1"/>
        <pt x="211" y="40" on="0"/>
      </contour>
      <contour>
        <pt x="230" y="416" on="1"/>
        <pt x="270" y="416" on="0"/>
        <pt x="324" y="470" on="0"/>
        <pt x="324" y="510" on="1"/>
        <pt x="324" y="549" on="0"/>
        <pt x="270" y="603" on="0"/>
        <pt x="230" y="603" on="1"/>
        <pt x="220" y="603" on="0"/>
        <pt x="211" y="601" on="1"/>
        <pt x="211" y="418" on="1"/>
        <pt x="220" y="416" on="0"/>
      </contour>
      <contour>
        <pt x="230" y="608" on="1"/>
        <pt x="271" y="608" on="0"/>
        <pt x="329" y="551" on="0"/>
        <pt x="329" y="510" on="1"/>
        <pt x="329" y="468" on="0"/>
        <pt x="272" y="411" on="0"/>
        <pt x="230" y="411" on="1"/>
        <pt x="219" y="411" on="0"/>
        <pt x="208" y="414" on="1"/>
        <pt x="206" y="414" on="0"/>
        <pt x="206" y="416" on="1"/>
        <pt x="206" y="603" on="1"/>
        <pt x="206" y="604" on="0"/>
        <pt x="208" y="605" on="1"/>
        <pt x="219" y="608" on="0"/>
      </contour>
    </TTGlyph>
    <TTGlyph name="P.0" xMin="50" yMin="13" xMax="484" yMax="790">
      <contour>
        <pt x="202" y="13" on="1"/>
        <pt x="202" y="276" on="1"/>
        <pt x="210" y="275" on="0"/>
        <pt x="226" y="275" on="1"/>
        <pt x="333" y="275" on="0"/>
        <pt x="409" y="351" on="1"/>
        <pt x="484" y="426" on="0"/>
        <pt x="484" y="533" on="1"/>
        <pt x="484" y="640" on="0"/>
        <pt x="409" y="715" on="1"/>
        <pt x="333" y="790" on="0"/>
        <pt x="226" y="790" on="1"/>
        <pt x="210" y="790" on="0"/>
        <pt x="202" y="789" on="1"/>
        <pt x="50" y="789" on="1"/>
        <pt x="50" y="13" on="1"/>
      </contour>
      <contour>
        <pt x="202" y="636" on="1"/>
        <pt x="214" y="639" on="0"/>
        <pt x="226" y="639" on="1"/>
        <pt x="271" y="639" on="0"/>
        <pt x="302" y="608" on="1"/>
        <pt x="333" y="577" on="0"/>
        <pt x="333" y="533" on="1"/>
        <pt x="333" y="488" on="0"/>
        <pt x="302" y="457" on="1"/>
        <pt x="271" y="426" on="0"/>
        <pt x="226" y="426" on="1"/>
        <pt x="214" y="426" on="0"/>
        <pt x="202" y="429" on="1"/>
      </contour>
    </TTGlyph>
    <TTGlyph name="P.1" xMin="50" yMin="3" xMax="484" yMax="780">
      <component glyphName="P.0" x="0" y="-10" flags="0x204"/>
    </TTGlyph>
    <TTGlyph name="Q" xMin="86" yMin="-145" xMax="786" yMax="727">
      <contour>
        <pt x="636" y="369" on="1"/>
        <pt x="636" y="456" on="0"/>
        <pt x="517" y="578" on="0"/>
        <pt x="348" y="578" on="0"/>
        <pt x="229" y="456" on="0"/>
        <pt x="229" y="369" on="1"/>
        <pt x="229" y="282" on="0"/>
        <pt x="348" y="160" on="0"/>
        <pt x="517" y="160" on="0"/>
        <pt x="636" y="282" on="0"/>
      </contour>
      <contour>
        <pt x="641" y="369" on="1"/>
        <pt x="641" y="281" on="0"/>
        <pt x="519" y="156" on="0"/>
        <pt x="346" y="156" on="0"/>
        <pt x="224" y="281" on="0"/>
        <pt x="224" y="369" on="1"/>
        <pt x="224" y="457" on="0"/>
        <pt x="346" y="582" on="0"/>
        <pt x="519" y="582" on="0"/>
        <pt x="641" y="457" on="0"/>
      </contour>
      <contour>
        <pt x="774" y="371" on="1"/>
        <pt x="774" y="467" on="0"/>
        <pt x="683" y="628" on="0"/>
        <pt x="525" y="723" on="0"/>
        <pt x="340" y="723" on="0"/>
        <pt x="182" y="628" on="0"/>
        <pt x="91" y="467" on="0"/>
        <pt x="91" y="371" on="1"/>
        <pt x="91" y="275" on="0"/>
        <pt x="182" y="113" on="0"/>
        <pt x="340" y="19" on="0"/>
        <pt x="432" y="19" on="1"/>
        <pt x="463" y="19" on="0"/>
        <pt x="494" y="24" on="1"/>
        <pt x="495" y="24" on="0"/>
        <pt x="496" y="24" on="1"/>
        <pt x="659" y="-140" on="1"/>
        <pt x="780" y="-18" on="1"/>
        <pt x="659" y="104" on="1"/>
        <pt x="658" y="105" on="0"/>
        <pt x="658" y="106" on="0"/>
        <pt x="659" y="107" on="1"/>
        <pt x="713" y="156" on="0"/>
        <pt x="774" y="294" on="0"/>
      </contour>
      <contour>
        <pt x="432" y="14" on="1"/>
        <pt x="338" y="14" on="0"/>
        <pt x="179" y="110" on="0"/>
        <pt x="86" y="274" on="0"/>
        <pt x="86" y="371" on="1"/>
        <pt x="86" y="468" on="0"/>
        <pt x="179" y="632" on="0"/>
        <pt x="338" y="727" on="0"/>
        <pt x="526" y="727" on="0"/>
        <pt x="686" y="632" on="0"/>
        <pt x="778" y="468" on="0"/>
        <pt x="778" y="371" on="1"/>
        <pt x="778" y="293" on="0"/>
        <pt x="717" y="155" on="0"/>
        <pt x="664" y="105" on="1"/>
        <pt x="785" y="-16" on="1"/>
        <pt x="786" y="-17" on="0"/>
        <pt x="786" y="-19" on="0"/>
        <pt x="785" y="-19" on="1"/>
        <pt x="661" y="-144" on="1"/>
        <pt x="660" y="-145" on="0"/>
        <pt x="658" y="-145" on="0"/>
        <pt x="658" y="-144" on="1"/>
        <pt x="493" y="20" on="1"/>
        <pt x="463" y="14" on="0"/>
      </contour>
    </TTGlyph>
    <TTGlyph name="Q.0" xMin="50" yMin="-181" xMax="822" yMax="783">
      <contour>
        <pt x="661" y="388" on="1"/>
        <pt x="661" y="290" on="0"/>
        <pt x="594" y="222" on="1"/>
        <pt x="527" y="153" on="0"/>
        <pt x="432" y="153" on="1"/>
        <pt x="337" y="153" on="0"/>
        <pt x="270" y="222" on="1"/>
        <pt x="203" y="290" on="0"/>
        <pt x="203" y="388" on="1"/>
        <pt x="203" y="485" on="0"/>
        <pt x="270" y="554" on="1"/>
        <pt x="337" y="622" on="0"/>
        <pt x="432" y="622" on="1"/>
        <pt x="527" y="622" on="0"/>
        <pt x="594" y="554" on="1"/>
        <pt x="661" y="485" on="0"/>
      </contour>
      <contour>
        <pt x="814" y="390" on="1"/>
        <pt x="814" y="553" on="0"/>
        <pt x="702" y="668" on="1"/>
        <pt x="590" y="783" on="0"/>
        <pt x="432" y="783" on="1"/>
        <pt x="274" y="783" on="0"/>
        <pt x="162" y="668" on="1"/>
        <pt x="50" y="553" on="0"/>
        <pt x="50" y="390" on="1"/>
        <pt x="50" y="227" on="0"/>
        <pt x="162" y="112" on="1"/>
        <pt x="274" y="-4" on="0"/>
        <pt x="432" y="-4" on="1"/>
        <pt x="467" y="-4" on="0"/>
        <pt x="501" y="2" on="1"/>
        <pt x="684" y="-181" on="1"/>
        <pt x="822" y="-42" on="1"/>
        <pt x="685" y="95" on="1"/>
        <pt x="746" y="150" on="0"/>
        <pt x="780" y="227" on="1"/>
        <pt x="814" y="303" on="0"/>
      </contour>
    </TTGlyph>
    <TTGlyph name="Q.1" xMin="50" yMin="-191" xMax="822" yMax="773">
      <component glyphName="Q.0" x="0" y="-10" flags="0x204"/>
    </TTGlyph>
    <TTGlyph name="R" xMin="71" yMin="34" xMax="491" yMax="743">
      <contour>
        <pt x="232" y="416" on="1"/>
        <pt x="271" y="416" on="0"/>
        <pt x="326" y="470" on="0"/>
        <pt x="326" y="510" on="1"/>
        <pt x="326" y="549" on="0"/>
        <pt x="271" y="603" on="0"/>
        <pt x="232" y="603" on="1"/>
        <pt x="222" y="603" on="0"/>
        <pt x="212" y="600" on="1"/>
        <pt x="212" y="418" on="1"/>
        <pt x="222" y="416" on="0"/>
      </contour>
      <contour>
        <pt x="232" y="607" on="1"/>
        <pt x="273" y="607" on="0"/>
        <pt x="330" y="550" on="0"/>
        <pt x="330" y="510" on="1"/>
        <pt x="330" y="468" on="0"/>
        <pt x="273" y="411" on="0"/>
        <pt x="232" y="411" on="1"/>
        <pt x="220" y="411" on="0"/>
        <pt x="209" y="414" on="1"/>
        <pt x="208" y="414" on="0"/>
        <pt x="208" y="416" on="1"/>
        <pt x="208" y="602" on="1"/>
        <pt x="208" y="604" on="0"/>
        <pt x="209" y="604" on="1"/>
        <pt x="220" y="607" on="0"/>
      </contour>
      <contour>
        <pt x="75" y="44" on="1"/>
        <pt x="208" y="44" on="1"/>
        <pt x="208" y="278" on="1"/>
        <pt x="208" y="280" on="0"/>
        <pt x="210" y="280" on="1"/>
        <pt x="215" y="280" on="0"/>
        <pt x="216" y="279" on="1"/>
        <pt x="364" y="38" on="1"/>
        <pt x="485" y="38" on="1"/>
        <pt x="308" y="290" on="1"/>
        <pt x="308" y="290" on="0"/>
        <pt x="308" y="291" on="1"/>
        <pt x="308" y="292" on="0"/>
        <pt x="309" y="293" on="1"/>
        <pt x="377" y="317" on="0"/>
        <pt x="461" y="435" on="0"/>
        <pt x="461" y="510" on="1"/>
        <pt x="461" y="605" on="0"/>
        <pt x="327" y="739" on="0"/>
        <pt x="232" y="739" on="1"/>
        <pt x="217" y="739" on="0"/>
        <pt x="210" y="738" on="1"/>
        <pt x="75" y="738" on="1"/>
      </contour>
      <contour>
        <pt x="210" y="39" on="1"/>
        <pt x="73" y="39" on="1"/>
        <pt x="71" y="39" on="0"/>
        <pt x="71" y="42" on="1"/>
        <pt x="71" y="740" on="1"/>
        <pt x="71" y="742" on="0"/>
        <pt x="73" y="742" on="1"/>
        <pt x="210" y="742" on="1"/>
        <pt x="217" y="743" on="0"/>
        <pt x="231" y="743" on="1"/>
        <pt x="232" y="743" on="1"/>
        <pt x="329" y="743" on="0"/>
        <pt x="466" y="606" on="0"/>
        <pt x="466" y="510" on="1"/>
        <pt x="466" y="435" on="0"/>
        <pt x="381" y="315" on="0"/>
        <pt x="314" y="290" on="1"/>
        <pt x="491" y="37" on="1"/>
        <pt x="491" y="37" on="0"/>
        <pt x="491" y="36" on="1"/>
        <pt x="491" y="34" on="0"/>
        <pt x="489" y="34" on="1"/>
        <pt x="363" y="34" on="1"/>
        <pt x="362" y="34" on="0"/>
        <pt x="361" y="35" on="1"/>
        <pt x="213" y="276" on="1"/>
        <pt x="213" y="276" on="0"/>
        <pt x="212" y="276" on="1"/>
        <pt x="212" y="42" on="1"/>
        <pt x="212" y="39" on="0"/>
      </contour>
    </TTGlyph>
    <TTGlyph name="R.0" xMin="50" yMin="7" xMax="512" yMax="790">
      <contour>
        <pt x="202" y="636" on="1"/>
        <pt x="214" y="639" on="0"/>
        <pt x="226" y="639" on="1"/>
        <pt x="271" y="639" on="0"/>
        <pt x="302" y="608" on="1"/>
        <pt x="333" y="577" on="0"/>
        <pt x="333" y="533" on="1"/>
        <pt x="333" y="488" on="0"/>
        <pt x="302" y="457" on="1"/>
        <pt x="271" y="426" on="0"/>
        <pt x="226" y="426" on="1"/>
        <pt x="214" y="426" on="0"/>
        <pt x="202" y="429" on="1"/>
      </contour>
      <contour>
        <pt x="202" y="13" on="1"/>
        <pt x="202" y="276" on="1"/>
        <pt x="204" y="276" on="0"/>
        <pt x="207" y="276" on="1"/>
        <pt x="372" y="7" on="1"/>
        <pt x="512" y="7" on="1"/>
        <pt x="313" y="290" on="1"/>
        <pt x="389" y="317" on="0"/>
        <pt x="437" y="384" on="1"/>
        <pt x="484" y="450" on="0"/>
        <pt x="484" y="533" on="1"/>
        <pt x="484" y="640" on="0"/>
        <pt x="409" y="715" on="1"/>
        <pt x="333" y="790" on="0"/>
        <pt x="226" y="790" on="1"/>
        <pt x="210" y="790" on="0"/>
        <pt x="202" y="789" on="1"/>
        <pt x="50" y="789" on="1"/>
        <pt x="50" y="13" on="1"/>
      </contour>
    </TTGlyph>
    <TTGlyph name="R.1" xMin="50" yMin="-3" xMax="512" yMax="780">
      <component glyphName="R.0" x="0" y="-10" flags="0x204"/>
    </TTGlyph>
    <TTGlyph name="Racute" xMin="71" yMin="34" xMax="491" yMax="1085">
      <component glyphName="acutecomb" x="237" y="292" flags="0x1004"/>
      <component glyphName="R" x="0" y="0" flags="0x1204"/>
    </TTGlyph>
    <TTGlyph name="Racute.0" xMin="50" yMin="7" xMax="512" yMax="1139">
      <contour>
        <pt x="226" y="850" on="1"/>
        <pt x="408" y="1032" on="1"/>
        <pt x="300" y="1139" on="1"/>
        <pt x="118" y="957" on="1"/>
      </contour>
      <contour>
        <pt x="202" y="636" on="1"/>
        <pt x="214" y="639" on="0"/>
        <pt x="226" y="639" on="1"/>
        <pt x="271" y="639" on="0"/>
        <pt x="302" y="608" on="1"/>
        <pt x="333" y="577" on="0"/>
        <pt x="333" y="533" on="1"/>
        <pt x="333" y="488" on="0"/>
        <pt x="302" y="457" on="1"/>
        <pt x="271" y="426" on="0"/>
        <pt x="226" y="426" on="1"/>
        <pt x="214" y="426" on="0"/>
        <pt x="202" y="429" on="1"/>
      </contour>
      <contour>
        <pt x="202" y="13" on="1"/>
        <pt x="202" y="276" on="1"/>
        <pt x="204" y="276" on="0"/>
        <pt x="207" y="276" on="1"/>
        <pt x="372" y="7" on="1"/>
        <pt x="512" y="7" on="1"/>
        <pt x="313" y="290" on="1"/>
        <pt x="389" y="317" on="0"/>
        <pt x="437" y="384" on="1"/>
        <pt x="484" y="450" on="0"/>
        <pt x="484" y="533" on="1"/>
        <pt x="484" y="640" on="0"/>
        <pt x="409" y="715" on="1"/>
        <pt x="333" y="790" on="0"/>
        <pt x="226" y="790" on="1"/>
        <pt x="210" y="790" on="0"/>
        <pt x="202" y="789" on="1"/>
        <pt x="50" y="789" on="1"/>
        <pt x="50" y="13" on="1"/>
      </contour>
    </TTGlyph>
    <TTGlyph name="Racute.1" xMin="50" yMin="-3" xMax="512" yMax="1129">
      <component glyphName="Racute.0" x="0" y="-10" flags="0x204"/>
    </TTGlyph>
    <TTGlyph name="Rcaron" xMin="71" yMin="34" xMax="491" yMax="995">
      <component glyphName="uni030C" x="203" y="67" flags="0x1004"/>
      <component glyphName="R" x="0" y="0" flags="0x1204"/>
    </TTGlyph>
    <TTGlyph name="Rcaron.0" xMin="50" yMin="7" xMax="512" yMax="1018">
      <contour>
        <pt x="126" y="1018" on="1"/>
        <pt x="197" y="850" on="1"/>
        <pt x="198" y="850" on="1"/>
        <pt x="273" y="850" on="1"/>
        <pt x="274" y="850" on="1"/>
        <pt x="326" y="1018" on="1"/>
        <pt x="250" y="1018" on="1"/>
        <pt x="230" y="910" on="1"/>
        <pt x="202" y="1018" on="1"/>
      </contour>
      <contour>
        <pt x="202" y="636" on="1"/>
        <pt x="214" y="639" on="0"/>
        <pt x="226" y="639" on="1"/>
        <pt x="271" y="639" on="0"/>
        <pt x="302" y="608" on="1"/>
        <pt x="333" y="577" on="0"/>
        <pt x="333" y="533" on="1"/>
        <pt x="333" y="488" on="0"/>
        <pt x="302" y="457" on="1"/>
        <pt x="271" y="426" on="0"/>
        <pt x="226" y="426" on="1"/>
        <pt x="214" y="426" on="0"/>
        <pt x="202" y="429" on="1"/>
      </contour>
      <contour>
        <pt x="202" y="13" on="1"/>
        <pt x="202" y="276" on="1"/>
        <pt x="204" y="276" on="0"/>
        <pt x="207" y="276" on="1"/>
        <pt x="372" y="7" on="1"/>
        <pt x="512" y="7" on="1"/>
        <pt x="313" y="290" on="1"/>
        <pt x="389" y="317" on="0"/>
        <pt x="437" y="384" on="1"/>
        <pt x="484" y="450" on="0"/>
        <pt x="484" y="533" on="1"/>
        <pt x="484" y="640" on="0"/>
        <pt x="409" y="715" on="1"/>
        <pt x="333" y="790" on="0"/>
        <pt x="226" y="790" on="1"/>
        <pt x="210" y="790" on="0"/>
        <pt x="202" y="789" on="1"/>
        <pt x="50" y="789" on="1"/>
        <pt x="50" y="13" on="1"/>
      </contour>
    </TTGlyph>
    <TTGlyph name="Rcaron.1" xMin="50" yMin="-3" xMax="512" yMax="1008">
      <component glyphName="Rcaron.0" x="0" y="-10" flags="0x204"/>
    </TTGlyph>
    <TTGlyph name="S" xMin="74" yMin="44" xMax="455" yMax="724">
      <contour>
        <pt x="437" y="245" on="1"/>
        <pt x="437" y="296" on="0"/>
        <pt x="359" y="376" on="0"/>
        <pt x="292" y="412" on="1"/>
        <pt x="261" y="418" on="0"/>
        <pt x="221" y="471" on="0"/>
        <pt x="221" y="504" on="1"/>
        <pt x="221" y="528" on="0"/>
        <pt x="233" y="548" on="1"/>
        <pt x="247" y="570" on="0"/>
        <pt x="292" y="595" on="0"/>
        <pt x="318" y="595" on="1"/>
        <pt x="344" y="595" on="0"/>
        <pt x="367" y="582" on="1"/>
        <pt x="376" y="578" on="0"/>
        <pt x="385" y="570" on="1"/>
        <pt x="450" y="679" on="1"/>
        <pt x="448" y="680" on="0"/>
        <pt x="436" y="688" on="0"/>
        <pt x="433" y="691" on="1"/>
        <pt x="378" y="720" on="0"/>
        <pt x="317" y="720" on="1"/>
        <pt x="256" y="720" on="0"/>
        <pt x="150" y="663" on="0"/>
        <pt x="119" y="612" on="1"/>
        <pt x="89" y="562" on="0"/>
        <pt x="89" y="513" on="1"/>
        <pt x="89" y="456" on="0"/>
        <pt x="167" y="359" on="0"/>
        <pt x="231" y="324" on="1"/>
        <pt x="261" y="319" on="0"/>
        <pt x="305" y="279" on="0"/>
        <pt x="305" y="252" on="1"/>
        <pt x="305" y="235" on="0"/>
        <pt x="296" y="219" on="1"/>
        <pt x="282" y="197" on="0"/>
        <pt x="237" y="173" on="0"/>
        <pt x="212" y="173" on="1"/>
        <pt x="186" y="173" on="0"/>
        <pt x="162" y="187" on="1"/>
        <pt x="153" y="191" on="0"/>
        <pt x="144" y="199" on="1"/>
        <pt x="79" y="90" on="1"/>
        <pt x="81" y="89" on="0"/>
        <pt x="93" y="81" on="0"/>
        <pt x="96" y="78" on="1"/>
        <pt x="109" y="71" on="0"/>
        <pt x="149" y="59" on="0"/>
        <pt x="181" y="54" on="0"/>
        <pt x="211" y="49" on="0"/>
        <pt x="213" y="48" on="1"/>
        <pt x="273" y="48" on="0"/>
        <pt x="379" y="105" on="0"/>
        <pt x="409" y="157" on="1"/>
        <pt x="437" y="203" on="0"/>
      </contour>
      <contour>
        <pt x="143" y="204" on="1"/>
        <pt x="144" y="204" on="0"/>
        <pt x="145" y="204" on="1"/>
        <pt x="155" y="195" on="0"/>
        <pt x="164" y="191" on="1"/>
        <pt x="187" y="178" on="0"/>
        <pt x="212" y="178" on="1"/>
        <pt x="264" y="178" on="0"/>
        <pt x="292" y="221" on="1"/>
        <pt x="301" y="237" on="0"/>
        <pt x="301" y="252" on="1"/>
        <pt x="301" y="277" on="0"/>
        <pt x="259" y="315" on="0"/>
        <pt x="230" y="320" on="1"/>
        <pt x="164" y="355" on="0"/>
        <pt x="85" y="454" on="0"/>
        <pt x="85" y="513" on="1"/>
        <pt x="85" y="563" on="0"/>
        <pt x="115" y="615" on="1"/>
        <pt x="147" y="667" on="0"/>
        <pt x="255" y="724" on="0"/>
        <pt x="317" y="724" on="1"/>
        <pt x="380" y="724" on="0"/>
        <pt x="435" y="695" on="1"/>
        <pt x="436" y="695" on="0"/>
        <pt x="436" y="694" on="1"/>
        <pt x="439" y="691" on="0"/>
        <pt x="452" y="683" on="0"/>
        <pt x="455" y="681" on="1"/>
        <pt x="455" y="680" on="0"/>
        <pt x="455" y="679" on="1"/>
        <pt x="455" y="679" on="0"/>
        <pt x="455" y="678" on="1"/>
        <pt x="387" y="566" on="1"/>
        <pt x="387" y="564" on="0"/>
        <pt x="386" y="564" on="1"/>
        <pt x="385" y="564" on="0"/>
        <pt x="384" y="565" on="1"/>
        <pt x="374" y="574" on="0"/>
        <pt x="365" y="578" on="1"/>
        <pt x="343" y="590" on="0"/>
        <pt x="318" y="590" on="1"/>
        <pt x="264" y="590" on="0"/>
        <pt x="237" y="546" on="1"/>
        <pt x="226" y="527" on="0"/>
        <pt x="226" y="504" on="1"/>
        <pt x="226" y="473" on="0"/>
        <pt x="263" y="422" on="0"/>
        <pt x="293" y="417" on="1"/>
        <pt x="294" y="417" on="0"/>
        <pt x="294" y="417" on="1"/>
        <pt x="362" y="380" on="0"/>
        <pt x="442" y="298" on="0"/>
        <pt x="442" y="245" on="1"/>
        <pt x="442" y="202" on="0"/>
        <pt x="413" y="154" on="1"/>
        <pt x="382" y="102" on="0"/>
        <pt x="274" y="44" on="0"/>
        <pt x="213" y="44" on="1"/>
        <pt x="150" y="44" on="0"/>
        <pt x="94" y="74" on="1"/>
        <pt x="93" y="74" on="0"/>
        <pt x="93" y="75" on="1"/>
        <pt x="90" y="78" on="0"/>
        <pt x="77" y="86" on="0"/>
        <pt x="74" y="88" on="1"/>
        <pt x="74" y="89" on="0"/>
        <pt x="74" y="90" on="1"/>
        <pt x="74" y="90" on="0"/>
        <pt x="74" y="91" on="1"/>
        <pt x="142" y="203" on="1"/>
        <pt x="142" y="204" on="0"/>
      </contour>
    </TTGlyph>
    <TTGlyph name="S.0" xMin="55" yMin="1" xMax="474" yMax="787">
      <contour>
        <pt x="55" y="67" on="1"/>
        <pt x="58" y="64" on="0"/>
        <pt x="66" y="60" on="1"/>
        <pt x="73" y="55" on="0"/>
        <pt x="76" y="52" on="1"/>
        <pt x="170" y="1" on="0"/>
        <pt x="273" y="27" on="1"/>
        <pt x="375" y="52" on="0"/>
        <pt x="427" y="140" on="1"/>
        <pt x="458" y="190" on="0"/>
        <pt x="460" y="234" on="1"/>
        <pt x="461" y="278" on="0"/>
        <pt x="437" y="314" on="1"/>
        <pt x="412" y="349" on="0"/>
        <pt x="379" y="376" on="1"/>
        <pt x="345" y="402" on="0"/>
        <pt x="296" y="428" on="1"/>
        <pt x="248" y="436" on="0"/>
        <pt x="228" y="485" on="1"/>
        <pt x="207" y="534" on="0"/>
        <pt x="232" y="575" on="1"/>
        <pt x="254" y="612" on="0"/>
        <pt x="297" y="623" on="1"/>
        <pt x="339" y="633" on="0"/>
        <pt x="377" y="612" on="1"/>
        <pt x="387" y="607" on="0"/>
        <pt x="399" y="597" on="1"/>
        <pt x="474" y="722" on="1"/>
        <pt x="471" y="725" on="0"/>
        <pt x="464" y="730" on="1"/>
        <pt x="456" y="734" on="0"/>
        <pt x="453" y="737" on="1"/>
        <pt x="359" y="787" on="0"/>
        <pt x="256" y="762" on="1"/>
        <pt x="153" y="736" on="0"/>
        <pt x="101" y="649" on="1"/>
        <pt x="58" y="580" on="0"/>
        <pt x="69" y="518" on="1"/>
        <pt x="79" y="455" on="0"/>
        <pt x="120" y="408" on="1"/>
        <pt x="160" y="361" on="0"/>
        <pt x="227" y="325" on="1"/>
        <pt x="270" y="318" on="0"/>
        <pt x="295" y="285" on="1"/>
        <pt x="319" y="251" on="0"/>
        <pt x="297" y="212" on="1"/>
        <pt x="274" y="176" on="0"/>
        <pt x="232" y="166" on="1"/>
        <pt x="190" y="155" on="0"/>
        <pt x="152" y="177" on="1"/>
        <pt x="142" y="182" on="0"/>
        <pt x="130" y="192" on="1"/>
      </contour>
    </TTGlyph>
    <TTGlyph name="S.1" xMin="55" yMin="-9" xMax="474" yMax="777">
      <component glyphName="S.0" x="0" y="-10" flags="0x204"/>
    </TTGlyph>
    <TTGlyph name="Sacute" xMin="74" yMin="44" xMax="457" yMax="1078">
      <component glyphName="acutecomb" x="324" y="285" flags="0x1004"/>
      <component glyphName="S" x="0" y="0" flags="0x1204"/>
    </TTGlyph>
    <TTGlyph name="Sacute.0" xMin="55" yMin="1" xMax="505" yMax="1132">
      <contour>
        <pt x="323" y="843" on="1"/>
        <pt x="505" y="1025" on="1"/>
        <pt x="397" y="1132" on="1"/>
        <pt x="215" y="950" on="1"/>
      </contour>
      <contour>
        <pt x="55" y="67" on="1"/>
        <pt x="58" y="64" on="0"/>
        <pt x="66" y="60" on="1"/>
        <pt x="73" y="55" on="0"/>
        <pt x="76" y="52" on="1"/>
        <pt x="170" y="1" on="0"/>
        <pt x="273" y="27" on="1"/>
        <pt x="375" y="52" on="0"/>
        <pt x="427" y="140" on="1"/>
        <pt x="458" y="190" on="0"/>
        <pt x="460" y="234" on="1"/>
        <pt x="461" y="278" on="0"/>
        <pt x="437" y="314" on="1"/>
        <pt x="412" y="349" on="0"/>
        <pt x="379" y="376" on="1"/>
        <pt x="345" y="402" on="0"/>
        <pt x="296" y="428" on="1"/>
        <pt x="248" y="436" on="0"/>
        <pt x="228" y="485" on="1"/>
        <pt x="207" y="534" on="0"/>
        <pt x="232" y="575" on="1"/>
        <pt x="254" y="612" on="0"/>
        <pt x="297" y="623" on="1"/>
        <pt x="339" y="633" on="0"/>
        <pt x="377" y="612" on="1"/>
        <pt x="387" y="607" on="0"/>
        <pt x="399" y="597" on="1"/>
        <pt x="474" y="722" on="1"/>
        <pt x="471" y="725" on="0"/>
        <pt x="464" y="730" on="1"/>
        <pt x="456" y="734" on="0"/>
        <pt x="453" y="737" on="1"/>
        <pt x="359" y="787" on="0"/>
        <pt x="256" y="762" on="1"/>
        <pt x="153" y="736" on="0"/>
        <pt x="101" y="649" on="1"/>
        <pt x="58" y="580" on="0"/>
        <pt x="69" y="518" on="1"/>
        <pt x="79" y="455" on="0"/>
        <pt x="120" y="408" on="1"/>
        <pt x="160" y="361" on="0"/>
        <pt x="227" y="325" on="1"/>
        <pt x="270" y="318" on="0"/>
        <pt x="295" y="285" on="1"/>
        <pt x="319" y="251" on="0"/>
        <pt x="297" y="212" on="1"/>
        <pt x="274" y="176" on="0"/>
        <pt x="232" y="166" on="1"/>
        <pt x="190" y="155" on="0"/>
        <pt x="152" y="177" on="1"/>
        <pt x="142" y="182" on="0"/>
        <pt x="130" y="192" on="1"/>
      </contour>
    </TTGlyph>
    <TTGlyph name="Sacute.1" xMin="55" yMin="-9" xMax="505" yMax="1122">
      <component glyphName="Sacute.0" x="0" y="-10" flags="0x204"/>
    </TTGlyph>
    <TTGlyph name="Scaron" xMin="74" yMin="44" xMax="455" yMax="988">
      <component glyphName="uni030C" x="290" y="60" flags="0x1004"/>
      <component glyphName="S" x="0" y="0" flags="0x1204"/>
    </TTGlyph>
    <TTGlyph name="Scaron.0" xMin="55" yMin="1" xMax="474" yMax="1011">
      <contour>
        <pt x="223" y="1011" on="1"/>
        <pt x="294" y="843" on="1"/>
        <pt x="295" y="843" on="1"/>
        <pt x="370" y="843" on="1"/>
        <pt x="371" y="843" on="1"/>
        <pt x="423" y="1011" on="1"/>
        <pt x="347" y="1011" on="1"/>
        <pt x="327" y="903" on="1"/>
        <pt x="299" y="1011" on="1"/>
      </contour>
      <contour>
        <pt x="55" y="67" on="1"/>
        <pt x="58" y="64" on="0"/>
        <pt x="66" y="60" on="1"/>
        <pt x="73" y="55" on="0"/>
        <pt x="76" y="52" on="1"/>
        <pt x="170" y="1" on="0"/>
        <pt x="273" y="27" on="1"/>
        <pt x="375" y="52" on="0"/>
        <pt x="427" y="140" on="1"/>
        <pt x="458" y="190" on="0"/>
        <pt x="460" y="234" on="1"/>
        <pt x="461" y="278" on="0"/>
        <pt x="437" y="314" on="1"/>
        <pt x="412" y="349" on="0"/>
        <pt x="379" y="376" on="1"/>
        <pt x="345" y="402" on="0"/>
        <pt x="296" y="428" on="1"/>
        <pt x="248" y="436" on="0"/>
        <pt x="228" y="485" on="1"/>
        <pt x="207" y="534" on="0"/>
        <pt x="232" y="575" on="1"/>
        <pt x="254" y="612" on="0"/>
        <pt x="297" y="623" on="1"/>
        <pt x="339" y="633" on="0"/>
        <pt x="377" y="612" on="1"/>
        <pt x="387" y="607" on="0"/>
        <pt x="399" y="597" on="1"/>
        <pt x="474" y="722" on="1"/>
        <pt x="471" y="725" on="0"/>
        <pt x="464" y="730" on="1"/>
        <pt x="456" y="734" on="0"/>
        <pt x="453" y="737" on="1"/>
        <pt x="359" y="787" on="0"/>
        <pt x="256" y="762" on="1"/>
        <pt x="153" y="736" on="0"/>
        <pt x="101" y="649" on="1"/>
        <pt x="58" y="580" on="0"/>
        <pt x="69" y="518" on="1"/>
        <pt x="79" y="455" on="0"/>
        <pt x="120" y="408" on="1"/>
        <pt x="160" y="361" on="0"/>
        <pt x="227" y="325" on="1"/>
        <pt x="270" y="318" on="0"/>
        <pt x="295" y="285" on="1"/>
        <pt x="319" y="251" on="0"/>
        <pt x="297" y="212" on="1"/>
        <pt x="274" y="176" on="0"/>
        <pt x="232" y="166" on="1"/>
        <pt x="190" y="155" on="0"/>
        <pt x="152" y="177" on="1"/>
        <pt x="142" y="182" on="0"/>
        <pt x="130" y="192" on="1"/>
      </contour>
    </TTGlyph>
    <TTGlyph name="Scaron.1" xMin="55" yMin="-9" xMax="474" yMax="1001">
      <component glyphName="Scaron.0" x="0" y="-10" flags="0x204"/>
    </TTGlyph>
    <TTGlyph name="Scedilla" xMin="74" yMin="-222" xMax="455" yMax="724">
      <component glyphName="uni0327" x="261" y="-165" flags="0x1004"/>
      <component glyphName="S" x="0" y="0" flags="0x1204"/>
    </TTGlyph>
    <TTGlyph name="Scedilla.0" xMin="55" yMin="-242" xMax="474" yMax="787">
      <contour>
        <pt x="219" y="-242" on="1"/>
        <pt x="232" y="-242" on="1"/>
        <pt x="286" y="-242" on="0"/>
        <pt x="324" y="-204" on="1"/>
        <pt x="361" y="-167" on="0"/>
        <pt x="361" y="-114" on="1"/>
        <pt x="361" y="-60" on="0"/>
        <pt x="324" y="-22" on="1"/>
        <pt x="286" y="15" on="0"/>
        <pt x="232" y="15" on="1"/>
        <pt x="219" y="15" on="1"/>
        <pt x="219" y="-62" on="1"/>
        <pt x="227" y="-60" on="0"/>
        <pt x="232" y="-60" on="1"/>
        <pt x="254" y="-60" on="0"/>
        <pt x="270" y="-76" on="1"/>
        <pt x="286" y="-92" on="0"/>
        <pt x="286" y="-114" on="1"/>
        <pt x="286" y="-136" on="0"/>
        <pt x="271" y="-151" on="1"/>
        <pt x="255" y="-167" on="0"/>
        <pt x="232" y="-167" on="1"/>
        <pt x="227" y="-167" on="0"/>
        <pt x="219" y="-165" on="1"/>
      </contour>
      <contour>
        <pt x="55" y="67" on="1"/>
        <pt x="58" y="64" on="0"/>
        <pt x="66" y="60" on="1"/>
        <pt x="73" y="55" on="0"/>
        <pt x="76" y="52" on="1"/>
        <pt x="170" y="1" on="0"/>
        <pt x="273" y="27" on="1"/>
        <pt x="375" y="52" on="0"/>
        <pt x="427" y="140" on="1"/>
        <pt x="458" y="190" on="0"/>
        <pt x="460" y="234" on="1"/>
        <pt x="461" y="278" on="0"/>
        <pt x="437" y="314" on="1"/>
        <pt x="412" y="349" on="0"/>
        <pt x="379" y="376" on="1"/>
        <pt x="345" y="402" on="0"/>
        <pt x="296" y="428" on="1"/>
        <pt x="248" y="436" on="0"/>
        <pt x="228" y="485" on="1"/>
        <pt x="207" y="534" on="0"/>
        <pt x="232" y="575" on="1"/>
        <pt x="254" y="612" on="0"/>
        <pt x="297" y="623" on="1"/>
        <pt x="339" y="633" on="0"/>
        <pt x="377" y="612" on="1"/>
        <pt x="387" y="607" on="0"/>
        <pt x="399" y="597" on="1"/>
        <pt x="474" y="722" on="1"/>
        <pt x="471" y="725" on="0"/>
        <pt x="464" y="730" on="1"/>
        <pt x="456" y="734" on="0"/>
        <pt x="453" y="737" on="1"/>
        <pt x="359" y="787" on="0"/>
        <pt x="256" y="762" on="1"/>
        <pt x="153" y="736" on="0"/>
        <pt x="101" y="649" on="1"/>
        <pt x="58" y="580" on="0"/>
        <pt x="69" y="518" on="1"/>
        <pt x="79" y="455" on="0"/>
        <pt x="120" y="408" on="1"/>
        <pt x="160" y="361" on="0"/>
        <pt x="227" y="325" on="1"/>
        <pt x="270" y="318" on="0"/>
        <pt x="295" y="285" on="1"/>
        <pt x="319" y="251" on="0"/>
        <pt x="297" y="212" on="1"/>
        <pt x="274" y="176" on="0"/>
        <pt x="232" y="166" on="1"/>
        <pt x="190" y="155" on="0"/>
        <pt x="152" y="177" on="1"/>
        <pt x="142" y="182" on="0"/>
        <pt x="130" y="192" on="1"/>
      </contour>
    </TTGlyph>
    <TTGlyph name="Scedilla.1" xMin="55" yMin="-252" xMax="474" yMax="777">
      <component glyphName="Scedilla.0" x="0" y="-10" flags="0x204"/>
    </TTGlyph>
    <TTGlyph name="Scircumflex" xMin="74" yMin="44" xMax="455" yMax="987">
      <component glyphName="uni0302" x="290" y="60" flags="0x1004"/>
      <component glyphName="S" x="0" y="0" flags="0x1204"/>
    </TTGlyph>
</ttFont>
